<svg id="ec89bad5-fb4d-40cb-98d6-71f224e74714" data-name="Capa 2" xmlns="http://www.w3.org/2000/svg" viewBox="0 0 3707.32 2160"><defs><style>.e66c546f-31c2-4723-ba6b-3d58556ad4f7{fill:#cacbcd;}.bcd485ce-8311-4176-8123-faa007f9eee9{fill:#dbdcde;}.b17d5b4c-2df1-487b-8c60-7e1ca6490c87{fill:#a5a5a7;}.a448f41f-5818-4598-adb6-de0a593b93c1{fill:#feffff;}.fdae160c-4368-41ce-9573-0c8d36c796cf{fill:#b5b6b8;}.eb4c9ced-5151-4325-bcff-dab14698aaa4{fill:#eeeff1;}.fe152226-e3fd-4de0-911c-05b0f93c59ed{fill:#868688;}.b344b6e4-689f-4e9d-b25c-18324eab4957{fill:#7c7d7f;}.f89747d0-cddf-4dde-9755-04162c2b52c3{fill:#292a2c;}.b02da1cf-ff73-482d-8036-a7572dca9fed{fill:#343537;}.b07b5fba-2609-47fd-9999-94297cbb279d{fill:#6e6f71;}.ed905446-b6d4-48cd-b04a-632f8a0621c1{fill:#dedfe1;}.a4313bd8-95e3-4fcb-97df-24a3bb4c6560{fill:#909193;}.e1b24eca-4d65-4436-97cf-041432fa5730{fill:#cdced0;}.ad8a9fbc-3fd1-4493-a461-7a695564b402{fill:#909092;}.af1f9edd-e979-4264-89a9-bb42b2b96568{fill:#babbbd;}.b097006f-4e3c-4c20-b48a-e3a2e6376247{fill:#6e6e70;}.a0f1b9f0-4c71-4c46-94b5-23dd07570313{fill:#959597;}.fe6199ce-11e9-49c8-9c91-5345fbea7194{fill:#a1a2a4;}.f5be4dcb-3177-4c0a-bf75-d690643414d4{fill:#c8c9cb;}.bb99bab1-15e4-4717-a169-652e033f493e{fill:#fbfcfd;}.bf7d7db1-e6e9-4f03-a00c-4458b7b42f52{fill:#ebecee;}.f730d2e5-3e05-40d8-b4d6-39cda8e7696c{fill:#818284;}.f4e3bd32-71e9-4289-aa5d-5e13892c7657{fill:#cecfd1;}.e0a9a098-8300-4d76-933d-24f8d71f5b66{fill:#afb0b2;}.ae077354-487c-443f-8b56-1685fe18ec5d{fill:#9b9b9b;}.b9ece050-7db1-41ca-b49b-78515631802b{fill:#9b9c9e;}.f8e6de77-2e3f-4115-b127-794cd973b93b{fill:#767779;}.a7e76548-1eeb-4c03-9eb6-dbe7f3b1b98a{fill:#d0d1d3;}.bf7b27e0-edb2-491e-8d49-0e9e4a4adca1{fill:#abacae;}.b4be93dd-497a-4bc5-85c8-86223cbb5a4b{fill:#8e8f91;}.f28ca136-ac79-4fff-918e-3f2b24cb8d58{fill:#6b6c6e;}.ac22e0de-a98e-410a-804c-9191dffaddbe{fill:#363739;}.a3c5daae-0828-4383-9fd7-fc3071c0c0d2{fill:#8b8c8e;}.fe2a4722-4a0a-4904-9af0-2b7a1eee0850{fill:#9e9fa1;}.fd587d04-ca48-49fd-ad82-b3a5e3fbdbe1{fill:#b0b1b3;}.b24eebf3-8696-4445-9848-6ddb2cfb239a{fill:#b7b8ba;}.e4dda236-3dc0-48b9-b526-1f8bf2cea059{fill:#838486;}.a975d788-06dc-48b5-9b75-a30f9c4cdd18{fill:#7b7c7e;}.bf95217d-ff88-4b50-914f-d202c3d2cb30{fill:#919294;}.acc3edc9-c159-42e6-9050-c3909296c9af{fill:#929395;}.e1ac545a-5873-4672-8186-5b528b0643f0{fill:#969799;}.e203136c-fd51-454d-85dc-c3a118acb6bb{fill:#b9babc;}.f473da7b-0664-44ee-bfa2-1589c8a45ffa{fill:#68696b;}.ffbf6756-6dcf-4b91-859b-7975c73de45a{fill:#999a9c;}.f86ee462-f6cc-497f-bf82-ddd6dac0d11b{fill:#b4b5b7;}.b8f9736e-5803-4099-95a6-85c08e6513ca{fill:#808183;}.b30a02f5-d74a-46f7-b61e-7a4040cd4eb0{fill:#bcbcbe;}.e1ab2ce5-0d62-490e-b6c5-9100f2fbb019{fill:#4c4d4f;}.a3aaab54-d38f-4225-b718-096751432ba2{fill:#edeef0;}.e3dbf0ff-5248-4d65-9653-6fd59f21e61a{fill:#8f9092;}.ffd99274-21ee-445f-892d-f8b0919a5b63{fill:#424345;}.a564a3af-664a-426a-83bb-426969612d21{fill:#898a8c;}.b2eaa733-39cd-473e-a0e9-7250f1f1cdcf{fill:#a6a7a9;}.fd42c21e-b755-4ed0-944e-508369c428a8{fill:#e7e8ea;}.ac0f8cd6-9681-4a02-95ca-d2a2ab67d3aa{fill:#7e7f81;}.f855acdd-de19-4c7f-af1c-9bdc772b98fd{fill:#727274;}.f0b1d284-224b-476c-b6e7-9f8033078570{fill:#747577;}.b40a429b-5a5d-4a17-81dc-ad470fc0f3c5{fill:#5d5e60;}.fb6dae67-0d9a-4189-afd3-6e666d2a39a0{fill:#6f7072;}.abdcb210-00ce-434f-bd1f-7c8e599af789{fill:#a9a9ab;}.bf72665e-6673-4307-a3f4-3e7f1d992a28{fill:#bdbec0;}.b36b6608-c764-4276-aa8f-f5be277e3812{fill:#bcbdbf;}.a1940562-fd21-45e7-940d-cf29bf15ba31{fill:#fcfdfd;}.ab62e34c-5930-4a55-bd4e-272b8fb8965c{fill:#f4f5f7;}.be879fe8-6042-488d-ae44-66f1c4aa9bb7{fill:#777779;}.e259695a-27d3-481f-821a-c2771c3f698a{fill:#88898b;}.a9f30b03-2aee-4e66-b99b-4a613551d998{fill:#7f7f7f;}.ec594722-f6cb-4c7f-a288-8695fb55ac1b{fill:#848587;}.bbea3211-c20a-4284-a386-ea5c7af25e45{fill:#8a8b8d;}.a9e26fd5-e4f8-4831-bcf8-44af00276498{fill:#565759;}.f20519c8-e4ca-4684-b99b-85f774e18761{fill:#5b5c5e;}.bea8f8de-22b0-4ff0-ac2e-ebfe62e4ef57{fill:#3f4042;}.b79a9068-1fda-465f-b9dc-852f46013891{fill:#303133;}.b28ba414-e768-4943-b4db-c0fbd4b2c241{fill:#575759;}.ed27b52b-1af5-4e7d-a74e-93fedcd6b16c{fill:#9a9b9d;}.a7c1604f-d47e-4e3c-a90b-a338af3f0568{fill:#dadbdd;}.f61c3f00-328b-4437-86b6-2d0af7cc6da6{fill:#606163;}.bdbf7c2a-c2ae-4e77-991a-8d49d7f9ce70{fill:#626365;}.fcd33c2a-432c-429e-bc66-e8dd1090be43{fill:#a3a3a3;}.a936a87d-1391-48c6-934a-62ca3010d4e1{fill:#454648;}.b8d016c5-72a4-4f34-9816-0894076c7c53{fill:#c9cacc;}.aefa3aa1-fc3d-4c3d-9665-840495629024{fill:#dcdddf;}.b673a3be-96bb-4ece-a359-ed5828a058fa{fill:#b1b2b4;}.f257710c-617c-427c-92da-a2047dea1b43{fill:#919193;}.a2d6f7b8-21b1-4cf6-8ac1-2e8710c02d09{fill:#77787a;}.abeb1900-4aad-4b52-9ea4-dba6117f9b19{fill:#636466;}.a4807838-b8ec-431e-92dc-50c8aa461b24{fill:#5f6062;}.aceff1d1-75df-4fc3-a6a9-697b7625b520{fill:#98999b;}.b8716bdb-cff2-403e-a0dc-486516e4c39f{fill:#7a7b7d;}.ffba0c6c-be11-4679-a0bc-548e14383e55{fill:#b2b2b4;}.a677f670-e348-47ed-938e-2fd4c445bff5{fill:#5a5b5d;}.a4c11b5a-db8d-472c-ab96-40cdb7b41207{fill:#8d8e90;}.a8f42202-7dd2-4143-8965-e7bf4c6f3592{fill:#a0a1a3;}.bd11a1b5-d77a-4d43-b3c0-9b119a5ceb4d{fill:#777;}.e8dbda7f-2f5c-419c-9655-35a857042222{fill:#adadaf;}.ba9f7dae-9571-4bb2-afd3-53c6a44fa575{fill:#929293;}.be474ce2-965c-4237-a308-11af4177b1bf{fill:#515254;}.a2961e0b-b042-4508-9673-06eb284091b9{fill:#494a4c;}.f9bf02cd-3806-4750-b315-6e52d6eb66c1{fill:#8c8d8f;}.e913dac5-8d4b-449a-891d-09d98eb1d66c{fill:#87888a;}.a48ae8b0-98f7-4b04-ab7c-501839c0767f{fill:#3e3e40;}.b53ee226-73a2-492a-87b8-45d4ee7290e1{fill:#97989a;}.a4e0c1b4-ba03-4218-8706-712a464bd326{fill:#939496;}.bd5a9711-1f60-4bb6-a95a-e54d38ec3366{fill:#818183;}.a8654c80-8b7f-47ae-ad98-b67fff040009{fill:#a7a8aa;}.ac04e5c1-4b33-4b2e-9da5-0f3f892c46eb{fill:#f5f6f8;}.b9bfd633-acbd-4556-b840-9baeae0a73c5{fill:#a9aaac;}.bfc7b653-5dff-4f77-9d67-3cfd381dc20b{fill:#e1e1e3;}.a31be491-3d11-497c-b968-0b6daf1c24bd{fill:#5d5d5f;}.b652e6e9-df30-4e2e-8989-160ed5c0b807{fill:#eff0f2;}.b193f7e6-c99d-427a-b41b-0863f8afe17d{fill:#323335;}.ab5edc4a-c4ca-4abb-bdd4-3a65bc632f64{fill:#696a6c;}.a2795963-0b6f-4876-8bb2-88b869ea934d{fill:#d3d4d6;}.b9ce666c-231e-4cd4-be3d-35458911e8a5{fill:#515151;}.b4bc053a-6dda-45ea-a28d-1b6ced1e4d27{fill:#868789;}.e712b46a-ac1b-4e0e-bf04-123fa74239df{fill:#b2b2b2;}</style></defs><title>Fondo_Header_CorazonFractal</title><polygon class="e66c546f-31c2-4723-ba6b-3d58556ad4f7" points="0.01 0.02 -0.11 317.24 388.57 347.48 153.01 -0.16 0.01 0.02"/><polygon class="bcd485ce-8311-4176-8123-faa007f9eee9" points="153.01 -0.16 388.57 347.48 416.05 -0.04 153.01 -0.16"/><polyline class="b17d5b4c-2df1-487b-8c60-7e1ca6490c87" points="416.05 -0.04 388.57 347.48 681.7 -0.1 416.05 -0.04"/><polyline class="a448f41f-5818-4598-adb6-de0a593b93c1" points="388.57 347.48 681.7 -0.1 897.25 -0.01 1070.05 373.4 388.57 347.48"/><polygon class="fdae160c-4368-41ce-9573-0c8d36c796cf" points="897.25 -0.01 1070.05 373.4 1294.69 247.04 1006.69 -0.1 897.25 -0.01"/><polygon class="eb4c9ced-5151-4325-bcff-dab14698aaa4" points="1006.69 -0.1 1294.69 247.04 1361.65 207.08 1405.57 211.64 1380.82 -0.01 1006.69 -0.1"/><polygon class="fe152226-e3fd-4de0-911c-05b0f93c59ed" points="1380.82 -0.01 1405.57 211.64 1444.45 215.72 1416.91 -0.1 1380.82 -0.01"/><polygon class="b344b6e4-689f-4e9d-b25c-18324eab4957" points="1416.91 -0.1 1421.39 34.88 1693.57 82.52 1824.01 0.02 1416.91 -0.1"/><polygon class="f89747d0-cddf-4dde-9755-04162c2b52c3" points="1693.57 82.52 2168.14 -0.01 1824.01 0.02 1693.57 82.52"/><polygon class="b02da1cf-ff73-482d-8036-a7572dca9fed" points="1693.57 82.52 1685.65 210.32 2230.99 0.02 2167.78 -0.01 1693.57 82.52"/><polygon class="b07b5fba-2609-47fd-9999-94297cbb279d" points="2230.99 0.02 2255.67 0.01 2069.05 247.04 1856.29 379.88 1682.77 269.96 1685.65 210.32 2230.99 0.02"/><polygon class="ed905446-b6d4-48cd-b04a-632f8a0621c1" points="2069.05 247.04 2255.67 0.01 2276.24 -0.01 2398.57 240.32 2349.49 211.76 2085.25 236.24 2069.05 247.04"/><polygon class="a4313bd8-95e3-4fcb-97df-24a3bb4c6560" points="2276.24 -0.01 2398.57 240.32 2658.85 391.88 2719.33 761.48 3139.69 730.88 2285.61 0.01 2276.24 -0.01"/><polygon class="e1b24eca-4d65-4436-97cf-041432fa5730" points="2285.61 0.01 2360.71 -0.01 3031.33 105.56 3139.69 730.88 2285.61 0.01"/><polygon class="ad8a9fbc-3fd1-4493-a461-7a695564b402" points="2360.71 -0.01 3031.33 105.56 2853.25 0.2 2360.71 -0.01"/><polygon class="af1f9edd-e979-4264-89a9-bb42b2b96568" points="2853.25 0.2 3031.33 105.56 3139.69 730.88 3135.01 748.16 3290.35 746.54 3301.69 739.16 3685.57 674.12 3707.32 684.65 3708.13 124.28 3639.49 0.2 2853.25 0.2"/><polygon class="b097006f-4e3c-4c20-b48a-e3a2e6376247" points="3639.49 0.2 3708.13 124.28 3707.41 0.62 3639.49 0.2"/><polygon class="a0f1b9f0-4c71-4c46-94b5-23dd07570313" points="3685.57 674.12 3700.93 695.24 3707.32 699.64 3707.32 684.65 3685.57 674.12"/><polygon class="fe6199ce-11e9-49c8-9c91-5345fbea7194" points="3700.93 695.24 3494.29 904.76 3707.32 911.13 3707.32 699.64 3700.93 695.24"/><polygon class="a448f41f-5818-4598-adb6-de0a593b93c1" points="3494.29 904.76 3707.32 1056.92 3707.32 911.13 3494.29 904.76"/><polygon class="f5be4dcb-3177-4c0a-bf75-d690643414d4" points="3494.29 904.76 3707.32 1272.98 3707.32 1056.92 3494.29 904.76"/><polygon class="a448f41f-5818-4598-adb6-de0a593b93c1" points="3494.29 904.76 2918.17 1567.25 3707.31 1552.69 3707.32 1272.98 3494.29 904.76"/><polygon class="bb99bab1-15e4-4717-a169-652e033f493e" points="3041.41 1565 3052.39 2160.44 3223.75 2160.26 3707.32 1674.45 3707.32 1552.67 3041.41 1565"/><polygon class="bf7d7db1-e6e9-4f03-a00c-4458b7b42f52" points="3223.75 2160.26 3573.49 2162.6 3707.33 2122.72 3707.35 1738.58 3647.04 1735.04 3223.75 2160.26"/><polygon class="bcd485ce-8311-4176-8123-faa007f9eee9" points="3647.04 1735.04 3707.32 1674.43 3707.35 1738.58 3647.04 1735.04"/><polygon class="f730d2e5-3e05-40d8-b4d6-39cda8e7696c" points="3707.33 2122.72 3573.49 2162.6 3707.37 2160.03 3707.33 2122.72"/><polygon class="f4e3bd32-71e9-4289-aa5d-5e13892c7657" points="3052.39 2160.44 3044.56 1739 2469.73 1720.52 2904.43 2160.44 3052.39 2160.44"/><polygon class="e0a9a098-8300-4d76-933d-24f8d71f5b66" points="2904.43 2160.44 2634.21 2160.08 2247.25 2010.68 2260.21 1710.44 2469.73 1720.52 2904.43 2160.44"/><polygon class="ae077354-487c-443f-8b56-1685fe18ec5d" points="2260.21 1710.44 2182.45 1706.12 2063.65 1937.24 2247.25 2010.68 2260.21 1710.44"/><polygon class="a4313bd8-95e3-4fcb-97df-24a3bb4c6560" points="2247.25 2010.68 2361.37 2161.16 2634.21 2160.08 2247.25 2010.68"/><polygon class="a4313bd8-95e3-4fcb-97df-24a3bb4c6560" points="2063.65 1937.24 2271.37 2160.8 2361.37 2161.16 2247.25 2010.68 2063.65 1937.24"/><polygon class="b9ece050-7db1-41ca-b49b-78515631802b" points="2063.65 1937.24 2060.29 1938.44 2267.23 2160.8 2271.37 2160.8 2063.65 1937.24"/><polygon class="f8e6de77-2e3f-4115-b127-794cd973b93b" points="2060.29 1938.44 2041.57 1925 2254.27 2160.62 2267.23 2160.8 2060.29 1938.44"/><polygon class="a7e76548-1eeb-4c03-9eb6-dbe7f3b1b98a" points="2254.27 2160.62 2239.23 2143.86 2221.38 2160.17 2254.27 2160.62"/><polygon class="bf7b27e0-edb2-491e-8d49-0e9e4a4adca1" points="2239.23 2143.86 2229.74 2133.36 2201.94 2160.13 2221.38 2160.17 2239.23 2143.86"/><polygon class="b4be93dd-497a-4bc5-85c8-86223cbb5a4b" points="2229.74 2133.36 2220.74 2123.39 2181.69 2160.17 2201.94 2160.13 2229.74 2133.36"/><polygon class="f28ca136-ac79-4fff-918e-3f2b24cb8d58" points="2220.74 2123.39 2185.54 2084.33 2116.21 2160.68 2181.69 2160.17 2220.74 2123.39"/><polygon class="ac22e0de-a98e-410a-804c-9191dffaddbe" points="2185.54 2084.33 2112.79 2003.84 1678.27 2141.18 1678.36 2159.99 2116.21 2160.68 2185.54 2084.33"/><polygon class="a3c5daae-0828-4383-9fd7-fc3071c0c0d2" points="1678.27 2141.18 1052.53 1942.16 1259.05 2160.44 1678.36 2159.99 1678.27 2141.18"/><polygon class="fe2a4722-4a0a-4904-9af0-2b7a1eee0850" points="1052.53 1942.16 933.25 1913 1198.21 2160.8 1259.05 2160.44 1052.53 1942.16"/><polygon class="af1f9edd-e979-4264-89a9-bb42b2b96568" points="933.25 1913 1179.49 2160.8 1198.21 2160.8 933.25 1913"/><polygon class="fd587d04-ca48-49fd-ad82-b3a5e3fbdbe1" points="933.25 1913 930.85 1927.88 1167.97 2160.8 1180.57 2161.16 933.25 1913"/><polygon class="b24eebf3-8696-4445-9848-6ddb2cfb239a" points="1167.97 2160.8 930.85 1927.88 622.93 1592.36 -0.11 1583.96 0 2160 1167.97 2160.8"/><polygon class="e4dda236-3dc0-48b9-b526-1f8bf2cea059" points="622.93 1592.36 540.49 1500.92 464.89 1568.96 311.89 1435.16 457.6 1590.09 622.93 1592.36"/><polyline class="a975d788-06dc-48b5-9b75-a30f9c4cdd18" points="457.6 1590.09 309.73 1433.24 0.13 1158.92 -0.11 1583.96 457.6 1590.09"/><polygon class="bf95217d-ff88-4b50-914f-d202c3d2cb30" points="0.13 1158.92 464.89 1568.96 0.13 1145.24 0.13 1158.92"/><polygon class="acc3edc9-c159-42e6-9050-c3909296c9af" points="458.77 1531.16 421.33 1211.84 -0.11 1087.88 -0.17 1090.82 458.77 1531.16"/><polygon class="b4be93dd-497a-4bc5-85c8-86223cbb5a4b" points="421.33 1211.84 401.89 976.04 0.13 849.8 -0.11 1087.88 421.33 1211.84"/><polygon class="e1ac545a-5873-4672-8186-5b528b0643f0" points="401.89 976.04 -0.11 584.12 0.13 849.8 401.89 976.04"/><polyline class="e203136c-fd51-454d-85dc-c3a118acb6bb" points="-0.11 317.24 -0.11 584.12 401.89 976.04 389.17 346.82 -2.39 317.24"/><polyline class="f473da7b-0664-44ee-bfa2-1589c8a45ffa" points="1421.39 34.88 1693.57 82.52 1685.65 210.32 1430.83 108.98 1421.39 34.88"/><polyline class="ffbf6756-6dcf-4b91-859b-7975c73de45a" points="1430.83 108.98 1444.45 215.72 1624.81 233.72 1682.77 269.96 1685.65 210.32 1430.83 108.98"/><polyline class="f86ee462-f6cc-497f-bf82-ddd6dac0d11b" points="3685.57 674.12 3700.93 695.24 3322.93 753.56 3301.69 739.16 3685.57 674.12"/><polygon class="b8f9736e-5803-4099-95a6-85c08e6513ca" points="3322.93 753.56 3494.29 904.76 3700.93 695.24 3322.93 753.56"/><polyline class="b30a02f5-d74a-46f7-b61e-7a4040cd4eb0" points="3301.69 739.16 2988.13 944.72 3006.49 959.84 3322.93 753.56 3301.69 739.16"/><polygon class="e1ab2ce5-0d62-490e-b6c5-9100f2fbb019" points="3322.93 753.56 3006.49 959.84 3494.29 904.76 3322.93 753.56"/><polyline class="a3aaab54-d38f-4225-b718-096751432ba2" points="3135.01 748.16 3290.35 746.54 3097.57 872.84 3135.01 748.16"/><polyline class="e3dbf0ff-5248-4d65-9653-6fd59f21e61a" points="3139.69 730.88 3097.57 872.84 2988.13 944.72 2715.25 785.6 2720.29 769.04 2719.33 761.48 3139.69 730.88"/><polygon class="ffbf6756-6dcf-4b91-859b-7975c73de45a" points="2715.25 785.6 2670.61 937.88 3006.49 959.84 2988.13 944.72 2715.25 785.6"/><polygon class="ffd99274-21ee-445f-892d-f8b0919a5b63" points="3006.49 959.84 3017.65 1089.08 3494.29 904.76 3006.49 959.84"/><polygon class="a564a3af-664a-426a-83bb-426969612d21" points="3006.49 959.84 2670.61 937.88 2661.25 964.88 3017.65 1089.08 3006.49 959.84"/><polygon class="b2eaa733-39cd-473e-a0e9-7250f1f1cdcf" points="3017.65 1089.08 3041.41 1565 3494.29 904.76 3017.65 1089.08"/><polygon class="fd42c21e-b755-4ed0-944e-508369c428a8" points="3017.65 1089.08 2661.25 964.88 2640.13 1035.56 3041.41 1565 3017.65 1089.08"/><polygon class="f730d2e5-3e05-40d8-b4d6-39cda8e7696c" points="2640.13 1035.56 2604.61 1156.52 2310.61 1473.56 2277.49 1526.12 3041.41 1565 2640.13 1035.56"/><polygon class="b2eaa733-39cd-473e-a0e9-7250f1f1cdcf" points="2277.49 1526.12 2469.73 1720.52 3044.56 1739 3041.41 1565 2277.49 1526.12"/><polygon class="ac0f8cd6-9681-4a02-95ca-d2a2ab67d3aa" points="2277.49 1526.12 2260.21 1710.44 2469.73 1720.52 2277.49 1526.12"/><polygon class="f855acdd-de19-4c7f-af1c-9bdc772b98fd" points="2310.61 1473.56 2258.77 1523.72 2277.49 1526.12 2310.61 1473.56"/><polygon class="f0b1d284-224b-476c-b6e7-9f8033078570" points="2258.77 1523.72 2075.17 1698.92 2182.45 1706.12 2260.21 1710.44 2277.49 1526.12 2258.77 1523.72"/><polyline class="e0a9a098-8300-4d76-933d-24f8d71f5b66" points="2182.45 1706.12 2075.17 1698.92 2007.49 1764.2 2060.29 1938.44 2063.65 1937.24 2182.45 1706.12"/><polygon class="fe6199ce-11e9-49c8-9c91-5345fbea7194" points="2007.49 1764.2 1995.49 1775.72 2041.57 1925 2060.29 1938.44 2007.49 1764.2"/><polyline class="b40a429b-5a5d-4a17-81dc-ad470fc0f3c5" points="1995.49 1775.72 1931.89 1837.16 2020.81 1858.76 1995.49 1775.72"/><polygon class="fb6dae67-0d9a-4189-afd3-6e666d2a39a0" points="1931.89 1837.16 1853.41 1913.48 1708.69 1773.8 1671.25 1767.32 1678.27 2141.18 2112.79 2003.84 2041.57 1925 2020.81 1858.76 1931.89 1837.16"/><polygon class="abdcb210-00ce-434f-bd1f-7c8e599af789" points="1671.25 1767.32 1052.53 1942.16 1678.27 2141.18 1671.25 1767.32"/><polyline class="bf72665e-6673-4307-a3f4-3e7f1d992a28" points="930.85 1927.88 933.25 1913 540.49 1500.92 930.85 1927.88"/><polyline class="fd587d04-ca48-49fd-ad82-b3a5e3fbdbe1" points="933.25 1913 1052.53 1942.16 819.25 1655 679.7 1647.01 933.25 1913"/><polygon class="fdae160c-4368-41ce-9573-0c8d36c796cf" points="819.25 1655 1052.53 1942.16 1671.25 1767.32 1357.51 1667.96 819.25 1655"/><polygon class="b36b6608-c764-4276-aa8f-f5be277e3812" points="1357.51 1667.96 1671.25 1767.32 1577.53 1672.04 1357.51 1667.96"/><polygon class="f4e3bd32-71e9-4289-aa5d-5e13892c7657" points="1671.25 1767.32 1670.77 1735.64 1604.77 1672.28 1577.53 1672.04 1671.25 1767.32"/><polygon class="a1940562-fd21-45e7-940d-cf29bf15ba31" points="1671.25 1767.32 1670.77 1735.64 1687.81 1752.2 1671.25 1767.32"/><polygon class="ab62e34c-5930-4a55-bd4e-272b8fb8965c" points="1671.25 1767.32 1687.81 1752.2 1696.93 1760.6 1671.25 1767.32"/><polygon class="ac0f8cd6-9681-4a02-95ca-d2a2ab67d3aa" points="1671.25 1767.32 1696.93 1760.6 1708.69 1773.8 1671.25 1767.32"/><polygon class="be879fe8-6042-488d-ae44-66f1c4aa9bb7" points="1577.53 1672.04 1327.09 1416.68 1133.77 1598.12 1357.51 1667.96 1577.53 1672.04"/><polygon class="e259695a-27d3-481f-821a-c2771c3f698a" points="1577.53 1672.04 1604.77 1672.28 1335.01 1407.32 1327.09 1416.68 1577.53 1672.04"/><polygon class="fb6dae67-0d9a-4189-afd3-6e666d2a39a0" points="1357.51 1667.96 1133.77 1598.12 1104.25 1626.56 1043.41 1568.6 644.89 1442.96 819.25 1655 1357.51 1667.96"/><polygon class="a9f30b03-2aee-4e66-b99b-4a613551d998" points="679.7 1647.01 819.25 1655 644.89 1442.96 616.93 1433.96 540.49 1500.92 679.7 1647.01"/><polygon class="ec594722-f6cb-4c7f-a288-8695fb55ac1b" points="616.93 1433.96 645.85 1408.16 644.89 1442.96 616.93 1433.96"/><polygon class="bbea3211-c20a-4284-a386-ea5c7af25e45" points="645.85 1408.16 773.17 1295 897.97 1428.56 1043.41 1568.6 644.89 1442.96 645.85 1408.16"/><polyline class="b4be93dd-497a-4bc5-85c8-86223cbb5a4b" points="464.89 1568.96 0.13 1145.24 0.13 1090.52 458.77 1531.16 464.89 1568.96 458.77 1531.16"/><polygon class="a9e26fd5-e4f8-4831-bcf8-44af00276498" points="458.77 1531.16 464.89 1568.96 773.17 1295 761.89 1283 458.77 1531.16"/><polyline class="f20519c8-e4ca-4684-b99b-85f774e18761" points="458.77 1531.16 756.85 1266.44 761.89 1283 458.77 1531.16"/><polyline class="bea8f8de-22b0-4ff0-ac2e-ebfe62e4ef57" points="458.77 1531.16 745.09 1226.6 756.85 1266.44 458.77 1531.16"/><polyline class="b79a9068-1fda-465f-b9dc-852f46013891" points="458.77 1531.16 421.33 1211.84 718.93 1137.8 745.09 1226.6 458.77 1531.16"/><polyline class="f473da7b-0664-44ee-bfa2-1589c8a45ffa" points="421.33 1211.84 401.89 976.04 715.33 1063.64 709.09 1103.24 718.93 1137.8 421.33 1211.84"/><polyline class="b28ba414-e768-4943-b4db-c0fbd4b2c241" points="401.89 976.04 851.89 863.72 739.21 927.08 715.33 1063.64 401.89 976.04"/><polygon class="b28ba414-e768-4943-b4db-c0fbd4b2c241" points="909.85 849.32 1002.73 826.28 1016.77 869.12 1011.37 864.08 909.85 849.32"/><polyline class="ed27b52b-1af5-4e7d-a74e-93fedcd6b16c" points="401.89 976.04 1048.09 391.76 984.37 764.36 1002.73 826.28 909.85 849.32 883.81 845.96 851.89 863.72 401.89 976.04"/><polyline class="a7c1604f-d47e-4e3c-a90b-a338af3f0568" points="401.89 976.04 389.17 346.82 1070.05 373.4 1049.62 385.91 1048.09 391.76 401.89 976.04"/><polyline class="f61c3f00-328b-4437-86b6-2d0af7cc6da6" points="1104.25 1626.56 1102.45 1606.04 1302.61 1417.4 1315.57 1427.43 1104.25 1626.56"/><polygon class="a975d788-06dc-48b5-9b75-a30f9c4cdd18" points="1302.61 1417.4 1324.21 1394.48 1335.01 1407.32 1327.09 1416.68 1315.57 1427.43 1302.61 1417.4"/><polygon class="b79a9068-1fda-465f-b9dc-852f46013891" points="1102.45 1606.04 1261.69 1422.32 1302.61 1417.4 1102.45 1606.04"/><polygon class="bdbf7c2a-c2ae-4e77-991a-8d49d7f9ce70" points="1102.45 1606.04 1090.21 1466.72 1261.69 1422.32 1102.45 1606.04"/><polygon class="fcd33c2a-432c-429e-bc66-e8dd1090be43" points="1090.21 1466.72 1086.25 1369.88 1261.69 1422.32 1090.21 1466.72"/><polygon class="bbea3211-c20a-4284-a386-ea5c7af25e45" points="1086.25 1369.88 1257.97 1321.64 1302.61 1369.88 1261.69 1422.32 1086.25 1369.88"/><polygon class="a936a87d-1391-48c6-934a-62ca3010d4e1" points="1261.69 1422.32 1302.61 1369.88 1324.21 1394.48 1302.61 1417.4 1261.69 1422.32"/><polygon class="b8d016c5-72a4-4f34-9816-0894076c7c53" points="1086.25 1369.88 1199.29 1259.36 1257.97 1321.64 1086.25 1369.88"/><polygon class="aefa3aa1-fc3d-4c3d-9665-840495629024" points="1086.25 1369.88 1085.17 1129.76 1094.53 1130.12 1102.09 1155.68 1199.29 1259.36 1086.25 1369.88"/><polygon class="b673a3be-96bb-4ece-a359-ed5828a058fa" points="1085.17 1129.76 1091.74 1121.57 1094.53 1130.12 1085.17 1129.76"/><polygon class="f257710c-617c-427c-92da-a2047dea1b43" points="1085.17 1129.76 946.93 923.12 1043.77 961.28 1091.74 1121.57 1085.17 1129.76"/><polygon class="a2d6f7b8-21b1-4cf6-8ac1-2e8710c02d09" points="946.93 923.12 1035.49 932.48 1043.77 961.28 946.93 923.12"/><polygon class="b344b6e4-689f-4e9d-b25c-18324eab4957" points="946.93 923.12 1011.37 864.08 1016.77 869.12 1035.49 932.48 946.93 923.12"/><polygon class="fcd33c2a-432c-429e-bc66-e8dd1090be43" points="1011.37 864.08 1002.13 872.12 880.21 856.04 883.81 845.96 1011.37 864.08"/><polygon class="abeb1900-4aad-4b52-9ea4-dba6117f9b19" points="1002.13 872.12 946.93 923.12 880.21 856.04 1002.13 872.12"/><polygon class="b24eebf3-8696-4445-9848-6ddb2cfb239a" points="883.81 845.96 739.21 927.08 744.61 934.04 880.21 856.04 883.81 845.96"/><polygon class="a4807838-b8ec-431e-92dc-50c8aa461b24" points="880.21 856.04 744.61 934.04 946.93 923.12 880.21 856.04"/><polygon class="e259695a-27d3-481f-821a-c2771c3f698a" points="739.21 927.08 709.09 1103.24 714.73 1104.56 744.61 934.04 739.21 927.08"/><polygon class="aceff1d1-75df-4fc3-a6a9-697b7625b520" points="744.61 934.04 714.73 1104.56 946.93 923.12 744.61 934.04"/><polygon class="b8716bdb-cff2-403e-a0dc-486516e4c39f" points="946.93 923.12 714.73 1104.56 841.45 1122.92 946.93 923.12"/><polygon class="bf72665e-6673-4307-a3f4-3e7f1d992a28" points="946.93 923.12 841.45 1122.92 1085.17 1129.76 946.93 923.12"/><polygon class="ffba0c6c-be11-4679-a0bc-548e14383e55" points="841.45 1122.92 1086.25 1369.88 1085.17 1129.76 841.45 1122.92"/><polygon class="a677f670-e348-47ed-938e-2fd4c445bff5" points="709.09 1103.24 761.89 1283 766.21 1277.96 714.73 1104.56 709.09 1103.24"/><polygon class="a4c11b5a-db8d-472c-ab96-40cdb7b41207" points="714.73 1104.56 841.45 1122.92 827.65 1292.36 766.21 1277.96 714.73 1104.56"/><polygon class="a8f42202-7dd2-4143-8965-e7bf4c6f3592" points="841.45 1122.92 827.65 1292.36 1086.25 1369.88 841.45 1122.92"/><polygon class="a4c11b5a-db8d-472c-ab96-40cdb7b41207" points="766.21 1277.96 900.13 1417.16 897.97 1428.56 761.89 1283 766.21 1277.96"/><polygon class="bd11a1b5-d77a-4d43-b3c0-9b119a5ceb4d" points="900.13 1417.16 1102.45 1606.04 1104.25 1626.56 897.97 1428.56 900.13 1417.16"/><polygon class="a4c11b5a-db8d-472c-ab96-40cdb7b41207" points="1102.45 1606.04 931.33 1421 900.13 1417.16 1102.45 1606.04"/><polygon class="ffbf6756-6dcf-4b91-859b-7975c73de45a" points="931.33 1421 827.65 1292.36 766.21 1277.96 900.13 1417.16 931.33 1421"/><polygon class="acc3edc9-c159-42e6-9050-c3909296c9af" points="827.65 1292.36 1086.25 1369.88 1090.21 1466.72 931.33 1421 827.65 1292.36"/><polygon class="a4313bd8-95e3-4fcb-97df-24a3bb4c6560" points="931.33 1421 1102.45 1606.04 1090.21 1466.72 931.33 1421"/><polyline class="aceff1d1-75df-4fc3-a6a9-697b7625b520" points="1853.41 1913.48 1708.69 1773.8 1722.85 1775.72 1853.41 1913.48"/><polyline class="e8dbda7f-2f5c-419c-9655-35a857042222" points="1853.41 1913.48 1853.89 1873.16 1752.61 1777.16 1722.85 1775.72 1853.41 1913.48"/><polyline class="ba9f7dae-9571-4bb2-afd3-53c6a44fa575" points="1853.41 1913.48 1999.36 1772.01 1957.27 1775.15 1853.89 1873.16 1853.41 1913.48"/><polygon class="fe6199ce-11e9-49c8-9c91-5345fbea7194" points="1853.89 1873.16 1770.61 1778.48 1752.61 1777.16 1853.89 1873.16"/><polygon class="e259695a-27d3-481f-821a-c2771c3f698a" points="1853.89 1873.16 1853.77 1781.72 1770.61 1778.48 1853.89 1873.16"/><polygon class="be474ce2-965c-4237-a308-11af4177b1bf" points="1853.89 1873.16 1853.77 1781.72 1939.09 1777.76 1853.89 1873.16"/><polygon class="a2961e0b-b042-4508-9673-06eb284091b9" points="1853.89 1873.16 1939.09 1777.76 1957.27 1775.15 1853.89 1873.16"/><polyline class="f9bf02cd-3806-4750-b315-6e52d6eb66c1" points="1708.69 1773.8 1399.27 1470.62 1410.73 1452.08 1722.85 1775.72 1708.69 1773.8"/><polygon class="b4be93dd-497a-4bc5-85c8-86223cbb5a4b" points="1722.85 1775.72 1410.73 1452.08 1752.61 1777.16 1722.85 1775.72"/><polygon class="e913dac5-8d4b-449a-891d-09d98eb1d66c" points="1752.61 1777.16 1410.73 1452.08 1485.25 1461.56 1770.61 1778.48 1752.61 1777.16"/><polygon class="b344b6e4-689f-4e9d-b25c-18324eab4957" points="1770.61 1778.48 1485.25 1461.56 1853.05 1563.92 1853.77 1781.72 1770.61 1778.48"/><polygon class="a677f670-e348-47ed-938e-2fd4c445bff5" points="1853.77 1781.72 1853.05 1563.92 2220.97 1462.04 1939.09 1777.76 1853.77 1781.72"/><polygon class="a48ae8b0-98f7-4b04-ab7c-501839c0767f" points="1939.09 1777.76 2220.97 1462.04 2448.13 1170.92 2588.29 1142.6 2295.85 1453.04 1957.27 1775.15 1939.09 1777.76"/><polygon class="b344b6e4-689f-4e9d-b25c-18324eab4957" points="1957.27 1775.15 2295.85 1453.04 2310.61 1473.56 1957.27 1775.15"/><polygon class="abeb1900-4aad-4b52-9ea4-dba6117f9b19" points="1957.27 1775.15 2310.61 1473.56 1999.36 1772.01 1957.27 1775.15"/><polygon class="fd587d04-ca48-49fd-ad82-b3a5e3fbdbe1" points="2295.85 1453.04 2588.29 1142.6 2604.61 1156.52 2310.61 1473.56 2295.85 1453.04"/><polygon class="b53ee226-73a2-492a-87b8-45d4ee7290e1" points="2448.13 1170.92 1852.69 1342.52 2220.97 1462.04 2448.13 1170.92"/><polygon class="b9ece050-7db1-41ca-b49b-78515631802b" points="1852.69 1342.52 1853.05 1563.92 2220.97 1462.04 1852.69 1342.52"/><polygon class="acc3edc9-c159-42e6-9050-c3909296c9af" points="1852.69 1342.52 1485.25 1461.56 1853.05 1563.92 1852.69 1342.52"/><polygon class="bbea3211-c20a-4284-a386-ea5c7af25e45" points="1852.69 1342.52 1253.65 1169.36 1485.25 1461.56 1852.69 1342.52"/><polygon class="a4e0c1b4-ba03-4218-8706-712a464bd326" points="1485.25 1461.56 1253.65 1169.36 1113.25 1140.2 1410.73 1452.08 1485.25 1461.56"/><polyline class="bd5a9711-1f60-4bb6-a95a-e54d38ec3366" points="1399.27 1470.62 1102.09 1155.68 1113.25 1140.2 1410.73 1452.08 1399.27 1470.62"/><polyline class="bf95217d-ff88-4b50-914f-d202c3d2cb30" points="1399.27 1470.62 1335.01 1407.32 1102.09 1155.68 1399.27 1470.62"/><polyline class="acc3edc9-c159-42e6-9050-c3909296c9af" points="1102.09 1155.68 984.37 764.36 1000.21 754.28 1113.25 1140.2 1102.09 1155.68"/><polygon class="b4be93dd-497a-4bc5-85c8-86223cbb5a4b" points="1113.25 1140.2 1000.21 754.28 1291.09 778.76 1253.65 1169.36 1113.25 1140.2"/><polygon class="a8654c80-8b7f-47ae-ad98-b67fff040009" points="1291.09 778.76 1852.69 1342.52 1253.65 1169.36 1291.09 778.76"/><polygon class="ac04e5c1-4b33-4b2e-9da5-0f3f892c46eb" points="1852.69 1342.52 2416.45 781.16 2448.13 1170.92 1852.69 1342.52"/><polygon class="b9bfd633-acbd-4556-b840-9baeae0a73c5" points="2416.45 781.16 2588.29 1142.6 2448.13 1170.92 2416.45 781.16"/><polygon class="f86ee462-f6cc-497f-bf82-ddd6dac0d11b" points="2588.29 1142.6 2708.41 761.12 2416.45 781.16 2588.29 1142.6"/><polygon class="bfc7b653-5dff-4f77-9d67-3cfd381dc20b" points="2588.29 1142.6 2708.41 761.12 2719.33 761.48 2720.29 769.04 2604.61 1156.52 2588.29 1142.6"/><polygon class="b2eaa733-39cd-473e-a0e9-7250f1f1cdcf" points="2708.41 761.12 2644.69 387.44 2658.85 391.88 2719.33 761.48 2708.41 761.12"/><polyline class="b24eebf3-8696-4445-9848-6ddb2cfb239a" points="2658.85 391.88 2349.49 211.76 2644.69 387.44 2658.85 391.88"/><polyline class="a31be491-3d11-497c-b968-0b6daf1c24bd" points="2085.25 236.24 2349.49 211.76 2188.93 332.36 2085.25 236.24"/><polyline class="a936a87d-1391-48c6-934a-62ca3010d4e1" points="2085.25 236.24 2188.93 332.36 1856.29 379.88 2085.25 236.24"/><polygon class="bf95217d-ff88-4b50-914f-d202c3d2cb30" points="2188.93 332.36 2349.49 211.76 2644.69 387.44 2188.93 332.36"/><polygon class="b652e6e9-df30-4e2e-8989-160ed5c0b807" points="2188.93 332.36 2644.69 387.44 2708.41 761.12 2188.93 332.36"/><polygon class="b673a3be-96bb-4ece-a359-ed5828a058fa" points="2188.93 332.36 2416.45 781.16 2708.41 761.12 2188.93 332.36"/><polyline class="b193f7e6-c99d-427a-b41b-0863f8afe17d" points="1856.29 379.88 1855.33 380.24 1855.33 461.24 2188.93 332.36 1856.29 379.88"/><polygon class="b53ee226-73a2-492a-87b8-45d4ee7290e1" points="1855.33 461.24 1854.31 785.6 2188.93 332.36 1855.33 461.24"/><polygon class="a448f41f-5818-4598-adb6-de0a593b93c1" points="2188.93 332.36 1854.31 785.6 1852.69 1342.52 2416.45 781.16 2188.93 332.36"/><polyline class="b36b6608-c764-4276-aa8f-f5be277e3812" points="984.37 764.36 1049.62 385.91 1061.41 382.76 1000.21 754.28 984.37 764.36"/><polygon class="a4e0c1b4-ba03-4218-8706-712a464bd326" points="1000.21 754.28 1521.49 330.2 1061.41 382.76 1000.21 754.28"/><polygon class="ab5edc4a-c4ca-4abb-bdd4-3a65bc632f64" points="1000.21 754.28 1291.09 778.76 1521.49 330.2 1000.21 754.28"/><polyline class="a2795963-0b6f-4876-8bb2-88b869ea934d" points="1049.62 385.91 1294.69 247.04 1061.41 382.76 1049.62 385.91"/><polygon class="b02da1cf-ff73-482d-8036-a7572dca9fed" points="1061.41 382.76 1294.69 247.04 1361.65 207.08 1521.49 330.2 1061.41 382.76"/><polyline class="b9ce666c-231e-4cd4-be3d-35458911e8a5" points="1361.65 207.08 1624.81 233.72 1521.49 330.2 1361.65 207.08"/><polygon class="b4bc053a-6dda-45ea-a28d-1b6ced1e4d27" points="1521.49 330.2 1855.33 380.24 1856.29 379.88 1624.81 233.72 1521.49 330.2"/><polygon class="b8716bdb-cff2-403e-a0dc-486516e4c39f" points="1521.49 330.2 1855.33 461.24 1855.33 380.24 1521.49 330.2"/><polygon class="e712b46a-ac1b-4e0e-bf04-123fa74239df" points="1521.49 330.2 1854.31 785.6 1855.33 461.24 1521.49 330.2"/><polygon class="f5be4dcb-3177-4c0a-bf75-d690643414d4" points="1521.49 330.2 1291.09 778.76 1852.69 1342.52 1854.31 785.6 1521.49 330.2"/></svg>