<svg xmlns="http://www.w3.org/2000/svg" xmlns:xlink="http://www.w3.org/1999/xlink" viewBox="0 0 330.48 327.24"><defs><style>.bc10df0c-7c61-44bf-89e0-323ff4953145,.bee2058b-9db8-4385-b16d-2e7d36550e53,.eb165cba-8984-4dab-9bff-e4fbdfe6d635,.ed64705a-d720-4d04-b106-9627a2ae9fa7,.fd0f02ad-2d77-4b8e-96be-58a25267c5d1,.fd34e1b3-e4ba-469a-80be-b83fbc100e29{fill:none;}.bc10df0c-7c61-44bf-89e0-323ff4953145,.bee2058b-9db8-4385-b16d-2e7d36550e53,.eb165cba-8984-4dab-9bff-e4fbdfe6d635,.ed64705a-d720-4d04-b106-9627a2ae9fa7,.f850901b-b319-41fc-a784-19d1f518db33,.fd0f02ad-2d77-4b8e-96be-58a25267c5d1,.fd34e1b3-e4ba-469a-80be-b83fbc100e29{stroke-miterlimit:10;}.eb165cba-8984-4dab-9bff-e4fbdfe6d635,.fd0f02ad-2d77-4b8e-96be-58a25267c5d1{stroke-width:2px;}.eb165cba-8984-4dab-9bff-e4fbdfe6d635{stroke:url(#b17084a4-da99-4af8-8e80-c17b321b8edb);}.fd0f02ad-2d77-4b8e-96be-58a25267c5d1{stroke:url(#bc040257-7a03-4227-8ba7-812f3b0c74d7);}.ed64705a-d720-4d04-b106-9627a2ae9fa7{stroke-width:5px;stroke:url(#e1d75c5e-0f56-467f-93fc-148b7350be18);}.bc10df0c-7c61-44bf-89e0-323ff4953145,.fd34e1b3-e4ba-469a-80be-b83fbc100e29{stroke-width:3px;}.fd34e1b3-e4ba-469a-80be-b83fbc100e29{stroke:url(#bd0e6209-43bc-459c-8cd7-0196529225bc);}.bc10df0c-7c61-44bf-89e0-323ff4953145{stroke:url(#f14cee98-ec7c-4a9c-9d3c-c121a12aa0d1);}.b76bb672-6c23-4637-a0cf-cda5a8edc2ec{fill:#fff;}.bee2058b-9db8-4385-b16d-2e7d36550e53,.f850901b-b319-41fc-a784-19d1f518db33{stroke:#717070;}.f850901b-b319-41fc-a784-19d1f518db33{fill:#727070;}</style><linearGradient id="b17084a4-da99-4af8-8e80-c17b321b8edb" x1="73.27" y1="45.64" x2="284" y2="45.64" gradientUnits="userSpaceOnUse"><stop offset="0" stop-color="#7aa19c"/><stop offset="1" stop-color="#daa771"/></linearGradient><linearGradient id="bc040257-7a03-4227-8ba7-812f3b0c74d7" x1="38.69" y1="284.15" x2="253.69" y2="284.15" xlink:href="#b17084a4-da99-4af8-8e80-c17b321b8edb"/><linearGradient id="e1d75c5e-0f56-467f-93fc-148b7350be18" x1="28.34" y1="165.3" x2="294.58" y2="165.3" xlink:href="#b17084a4-da99-4af8-8e80-c17b321b8edb"/><linearGradient id="bd0e6209-43bc-459c-8cd7-0196529225bc" x1="161.46" y1="224.8" x2="280.78" y2="224.8" xlink:href="#b17084a4-da99-4af8-8e80-c17b321b8edb"/><linearGradient id="f14cee98-ec7c-4a9c-9d3c-c121a12aa0d1" x1="42.14" y1="107.71" x2="165.62" y2="107.71" xlink:href="#b17084a4-da99-4af8-8e80-c17b321b8edb"/></defs><title>dTeilorg_Web_Sello_BCGarantee</title><g id="eb0ed282-6c57-4299-8d51-0954048a81e0" data-name="Capa 3"><path class="eb165cba-8984-4dab-9bff-e4fbdfe6d635" d="M73.85,43.27a150.26,150.26,0,0,1,209.34,33.5"/><path class="fd0f02ad-2d77-4b8e-96be-58a25267c5d1" d="M253.09,284.37A150.25,150.25,0,0,1,39.5,252.53"/><circle class="ed64705a-d720-4d04-b106-9627a2ae9fa7" cx="161.46" cy="165.3" r="130.62"/><path class="fd34e1b3-e4ba-469a-80be-b83fbc100e29" d="M279.28,165.14A117.82,117.82,0,0,1,161.46,283"/><path class="bc10df0c-7c61-44bf-89e0-323ff4953145" d="M43.72,169.55c0-1.46-.08-2.93-.08-4.41A117.82,117.82,0,0,1,161.46,47.32c1.37,0,2.74,0,4.11.07"/><rect class="b76bb672-6c23-4637-a0cf-cda5a8edc2ec" x="33.05" y="174.69" width="11.06" height="55.11" transform="translate(-60.41 21.71) rotate(-17.94)"/><rect class="b76bb672-6c23-4637-a0cf-cda5a8edc2ec" x="276.13" y="92.77" width="11.06" height="55.11" transform="matrix(0.93, -0.36, 0.36, 0.93, -24.44, 109.74)"/></g><g id="ef4c1609-0e3c-4a96-baf8-3e827e71158f" data-name="Contenido"><polygon class="bee2058b-9db8-4385-b16d-2e7d36550e53" points="130.75 65.11 138.8 73.59 150.34 71.76 144.77 82.03 150.08 92.45 138.59 90.33 130.32 98.59 128.79 87 118.37 81.7 128.92 76.66 130.75 65.11"/><polygon class="bee2058b-9db8-4385-b16d-2e7d36550e53" points="167.15 62.77 172.81 68.76 180.94 67.49 176.99 74.72 180.71 82.06 172.62 80.54 166.78 86.34 165.73 78.18 158.41 74.42 165.84 70.9 167.15 62.77"/><polygon class="bee2058b-9db8-4385-b16d-2e7d36550e53" points="101.33 85.26 106.98 91.24 115.11 89.98 111.17 97.2 114.88 104.54 106.8 103.02 100.96 108.82 99.91 100.66 92.58 96.91 100.02 93.38 101.33 85.26"/><polygon class="bee2058b-9db8-4385-b16d-2e7d36550e53" points="199.91 259.72 191.49 251.62 180.03 253.97 185.14 243.45 179.37 233.28 190.95 234.89 198.83 226.26 200.88 237.76 211.53 242.6 201.22 248.11 199.91 259.72"/><polygon class="bee2058b-9db8-4385-b16d-2e7d36550e53" points="162.6 262.7 156.69 256.97 148.62 258.6 152.23 251.21 148.19 244.04 156.34 245.19 161.91 239.14 163.33 247.24 170.81 250.67 163.54 254.52 162.6 262.7"/><polygon class="bee2058b-9db8-4385-b16d-2e7d36550e53" points="228.39 238.28 222.48 232.55 214.41 234.18 218.03 226.79 213.99 219.62 222.13 220.77 227.7 214.72 229.12 222.82 236.6 226.25 229.34 230.1 228.39 238.28"/><path class="bee2058b-9db8-4385-b16d-2e7d36550e53" d="M93.85,133.83a5.7,5.7,0,0,1,2.24,3,5.87,5.87,0,0,1,.22,3.07A6.06,6.06,0,0,1,95,142.56a5,5,0,0,1-1.19,1.1,5.44,5.44,0,0,1-1.52.77l-6.63,2.25-5.6-16.56.87-.29q4,11.74,5.32,15.67L92,143.56a5.08,5.08,0,0,0-3.26-9.63L85,135.21c-.16-.45-.26-.75-.31-.9L88.46,133a2.26,2.26,0,0,0,1.3-1.11,2.28,2.28,0,0,0-1-3,2.17,2.17,0,0,0-1.71-.11l-3.79,1.28-.3-.9,3.78-1.28a3,3,0,0,1,2.43.18,3.11,3.11,0,0,1,1.6,1.83,3.19,3.19,0,0,1,.15,1.49,3.71,3.71,0,0,1-.54,1.37A6.09,6.09,0,0,1,93.85,133.83Z"/><path class="bee2058b-9db8-4385-b16d-2e7d36550e53" d="M112.41,136.65l.3.88-12.33,4.18q-4.22-12.44-5.61-16.56l.88-.3q4,11.76,5.31,15.68Z"/><path class="bee2058b-9db8-4385-b16d-2e7d36550e53" d="M119.57,118a8.73,8.73,0,0,1,3.92,1.84,8.41,8.41,0,0,1,1.62,1.74,8.88,8.88,0,0,1,1.1,2.2,8.45,8.45,0,0,1,.3,4.45,8.55,8.55,0,0,1-1.84,3.9,8.79,8.79,0,0,1-8.39,3,8.69,8.69,0,0,1-6.62-5.79,8.55,8.55,0,0,1-.46-2.42,8.16,8.16,0,0,1,.23-2.37,8.73,8.73,0,0,1,2-3.83,8.44,8.44,0,0,1,3.74-2.48A8.28,8.28,0,0,1,119.57,118Zm2.82,15a8.29,8.29,0,0,0,1.56-1.45,7.71,7.71,0,0,0,1.63-3.49,7.81,7.81,0,0,0-2.47-7.3,7.84,7.84,0,0,0-3.41-1.78,7.51,7.51,0,0,0-2.12-.18,7.27,7.27,0,0,0-2.14.39,7.52,7.52,0,0,0-3.34,2.21,7.74,7.74,0,0,0-1.78,3.41,7.81,7.81,0,0,0,5.85,9.37,7.76,7.76,0,0,0,2.11.22,8.35,8.35,0,0,0,2.17-.43A7.66,7.66,0,0,0,122.39,133Z"/><path class="bee2058b-9db8-4385-b16d-2e7d36550e53" d="M144.69,124a9.31,9.31,0,0,1-2,2.65,8.77,8.77,0,0,1-12.34-.71,8.76,8.76,0,0,1,.73-12.35,8.19,8.19,0,0,1,3-1.77q.21.6.3.9a7.67,7.67,0,0,0-2.69,1.56,8.13,8.13,0,0,0-1.81,2.39,8,8,0,0,0-.8,2.87,7.55,7.55,0,0,0,.4,3.08,7.72,7.72,0,0,0,1.55,2.7,8.37,8.37,0,0,0,2.38,1.79,7.72,7.72,0,0,0,2.9.79,7.71,7.71,0,0,0,7.54-4.33Z"/><path class="bee2058b-9db8-4385-b16d-2e7d36550e53" d="M143.12,108.77q4.22,12.42,5.61,16.56l-.87.29-5.61-16.55ZM158,122.19l-1.11.37-11.71-7.74c.22-.42.37-.69.45-.82l3.88-7.39,1.27-.43q-3.28,6.25-4.39,8.33Q155.1,120.26,158,122.19Z"/><path class="bee2058b-9db8-4385-b16d-2e7d36550e53" d="M171.33,115a9,9,0,0,1-2,2.65,8.88,8.88,0,0,1-6.45,2.18,8.5,8.5,0,0,1-3.22-.86,8.93,8.93,0,0,1-2.67-2,8.77,8.77,0,0,1-2.19-6.47,8.63,8.63,0,0,1,.89-3.21,8.53,8.53,0,0,1,2-2.67,8.31,8.31,0,0,1,3-1.76l.3.9a7.71,7.71,0,0,0-2.69,1.55,8.3,8.3,0,0,0-1.82,2.39,8.44,8.44,0,0,0-.8,2.88,8,8,0,0,0,.4,3.08,7.79,7.79,0,0,0,1.56,2.69A8.06,8.06,0,0,0,160,118.1a7.68,7.68,0,0,0,2.9.8,7.82,7.82,0,0,0,3.08-.4,7.9,7.9,0,0,0,2.67-1.55,7.81,7.81,0,0,0,1.79-2.38Z"/><path class="bee2058b-9db8-4385-b16d-2e7d36550e53" d="M179.91,96.31q4.2,12.42,5.61,16.56l-.88.29-3.56-10.5-9.26,3.13q2.67,7.88,3.56,10.51l-.88.3q-4.2-12.43-5.61-16.56l.88-.3q1.32,3.89,1.75,5.15l9.26-3.13L179,96.61Z"/><path class="bee2058b-9db8-4385-b16d-2e7d36550e53" d="M200.9,107.66l-1,.32L189.24,94.61q-.3,12.86-.4,17.13l-.92.31q.29-14,.39-18.59l.95-.32Z"/><path class="bee2058b-9db8-4385-b16d-2e7d36550e53" d="M203.27,106.85q-4.2-12.42-5.61-16.56l.88-.29,5.61,16.55Z"/><path class="bee2058b-9db8-4385-b16d-2e7d36550e53" d="M211.91,85.47,217.52,102l-.88.3L202.35,90.59q3.78,11.14,5,14.87l-.87.3Q202.3,93.32,200.9,89.2l.88-.3,14.29,11.74-5-14.88Z"/><path class="f850901b-b319-41fc-a784-19d1f518db33" d="M41.38,216.37A12.86,12.86,0,0,1,37.93,222a19.91,19.91,0,0,1-8.23,4.87A15.3,15.3,0,0,1,17,226Q11,222.76,8.5,215.29l-2.45-7.24q-2.49-7.34.16-13.37a14.85,14.85,0,0,1,9.32-8.3q6.42-2.17,11.36-.06a11.32,11.32,0,0,1,6.6,7.38l0,.19-3,1a9.38,9.38,0,0,0-5.11-5.8q-3.72-1.71-8.91.05a11.32,11.32,0,0,0-7.27,6.76,15.6,15.6,0,0,0,.09,11l2.48,7.3a15.82,15.82,0,0,0,6.83,9,11.68,11.68,0,0,0,10.18,1,16.72,16.72,0,0,0,6.36-3.55,8.79,8.79,0,0,0,2.68-4.14l-3.43-10.12-10.63,3.6-.94-2.76,13.87-4.7Z"/><path class="f850901b-b319-41fc-a784-19d1f518db33" d="M67.73,169.34l8.89,26.23q2.2,6.51-.54,11.53a15.39,15.39,0,0,1-9,7.13A14.93,14.93,0,0,1,55.71,214q-5.18-2.34-7.36-8.83l-8.89-26.24,3.26-1.1,8.88,26.24a11.51,11.51,0,0,0,5.77,7.07,11.09,11.09,0,0,0,8.76.37A11.54,11.54,0,0,0,73,205.83a11.33,11.33,0,0,0,.35-9.16L64.5,170.43Z"/><path class="f850901b-b319-41fc-a784-19d1f518db33" d="M107,187.8l-17.34,5.87L89.39,206,86,207.18l1.14-44.42,3.06-1L118,196.34l-3.36,1.14Zm-17.29,2.62,15.25-5.17L90.36,166.84l-.17.06Z"/><path class="f850901b-b319-41fc-a784-19d1f518db33" d="M121.24,175.34l6.05,17.86L124,194.3l-13.38-39.48,13.16-4.46q6.35-2.15,10.68-.51t6.15,7a9.87,9.87,0,0,1,.1,6.24,10.77,10.77,0,0,1-3.89,5.36,9.11,9.11,0,0,1,6.4,1.51,11,11,0,0,1,3.63,5.41l1.26,3.71a12,12,0,0,0,1.55,3.17,5.43,5.43,0,0,0,2.25,1.9l.22.65-3.31,1.12a5.71,5.71,0,0,1-2.34-2.26,17.29,17.29,0,0,1-1.65-3.53l-1.22-3.61a7.72,7.72,0,0,0-4.29-4.94,10,10,0,0,0-7.26.12Zm-.94-2.76,9.53-3.23q5.34-1.82,7.08-4.8a7.74,7.74,0,0,0,.5-6.66,7.91,7.91,0,0,0-4.49-5.18q-3.16-1.26-8.16.42l-9.91,3.36Z"/><path class="f850901b-b319-41fc-a784-19d1f518db33" d="M177.31,164,160,169.85l-.26,12.36-3.36,1.14,1.13-44.42,3.07-1,27.79,34.63L185,173.66ZM160,166.6l15.25-5.17L160.68,143l-.16.06Z"/><path class="f850901b-b319-41fc-a784-19d1f518db33" d="M223.55,160.59l-3.25,1.1-33.89-26.21-.16.09,11.45,33.78-3.26,1.1L181.06,131l3.26-1.11L218.18,156l.15-.09-11.41-33.69,3.25-1.11Z"/><path class="f850901b-b319-41fc-a784-19d1f518db33" d="M247.28,111.6l-13.46,4.56,12.44,36.73L243,154l-12.44-36.74L216.67,122l-.94-2.77,30.61-10.37Z"/><path class="f850901b-b319-41fc-a784-19d1f518db33" d="M280.56,120l-17.71,6,5.55,16.38,20.48-6.94.93,2.74-23.74,8.05-13.38-39.51,23.6-8,.94,2.76-20.35,6.9,5,14.84,17.72-6Z"/><path class="f850901b-b319-41fc-a784-19d1f518db33" d="M311.2,109.58l-17.72,6L299,132,319.51,125l.93,2.74-23.74,8-13.38-39.5,23.6-8,.94,2.77L287.51,98l5,14.84,17.72-6Z"/><path class="bee2058b-9db8-4385-b16d-2e7d36550e53" d="M99.34,229.38a7.14,7.14,0,0,1,2.94,7.25,7.17,7.17,0,0,1-1.52,3.23,6.47,6.47,0,0,1-1.44,1.32,7.1,7.1,0,0,1-1.82.93l-8,2.69-6.73-19.87,1.05-.35q4.78,14.1,6.38,18.81l6.89-2.34a5.81,5.81,0,0,0,3.5-3.07,6.09,6.09,0,0,0-7.41-8.48L88.69,231c-.19-.54-.31-.9-.37-1.08l4.54-1.54A2.65,2.65,0,0,0,94.55,225a2.7,2.7,0,0,0-3.41-1.69l-4.55,1.54-.36-1.08,4.54-1.54a3.59,3.59,0,0,1,2.92.22,3.88,3.88,0,0,1,2.09,4,4.51,4.51,0,0,1-.65,1.64A7.31,7.31,0,0,1,99.34,229.38Z"/><path class="bee2058b-9db8-4385-b16d-2e7d36550e53" d="M100.81,220.05c-.18-.54-.31-.9-.37-1.09l14.8-5,.36,1.08Zm7.06,17.37,13.74-4.65.36,1-14.8,5q-3.47-10.25-4.63-13.69l13.21-4.47.37,1.08L104,225.87Z"/><path class="bee2058b-9db8-4385-b16d-2e7d36550e53" d="M132.72,219.61a6.87,6.87,0,0,1,1.42,2.46,7.1,7.1,0,0,1,.39,2.86,7.3,7.3,0,0,1-.77,2.67,7.64,7.64,0,0,1-1.62,2.22,7.42,7.42,0,0,1-2.51,1.44,7,7,0,0,1-5.51-.39l.49-1a6.38,6.38,0,0,0,2.25.62,6.16,6.16,0,0,0,2.4-.31,6,6,0,0,0,2.09-1.21,6.16,6.16,0,0,0,2.07-4.13,6.38,6.38,0,0,0-.33-2.42,6.11,6.11,0,0,0-1.2-2.09,6,6,0,0,0-4.14-2,5.79,5.79,0,0,0-2.4.29,3.52,3.52,0,0,1-1.21.19,4.68,4.68,0,0,1-1.19-.15l-.26-.13a.91.91,0,0,1-.26-.13,3.38,3.38,0,0,1-1.16-.87,3.42,3.42,0,0,1-.78-1.31,3.32,3.32,0,0,1-.17-1.49,3.81,3.81,0,0,1,1.28-2.6,3.5,3.5,0,0,1,1.29-.77,3.39,3.39,0,0,1,1.51-.17,3.33,3.33,0,0,1,1.4.39c-.2.44-.36.77-.47,1a2.58,2.58,0,0,0-1-.27,2.77,2.77,0,0,0-1.06.14,2.85,2.85,0,0,0-.93.53,2.51,2.51,0,0,0-.62.83,2.94,2.94,0,0,0-.28,1,2.75,2.75,0,0,0,.15,1.06,2.49,2.49,0,0,0,.53.94,2.3,2.3,0,0,0,.83.64,2.49,2.49,0,0,0,1,.25,2.59,2.59,0,0,0,1.06-.14,5.49,5.49,0,0,1,1.15-.26,7.46,7.46,0,0,1,1.14-.08,7.07,7.07,0,0,1,1.67.17,7.18,7.18,0,0,1,1.55.56A7.58,7.58,0,0,1,132.72,219.61Z"/><path class="bee2058b-9db8-4385-b16d-2e7d36550e53" d="M128.68,210.6l-.36-1.08,14.79-5c.18.54.31.89.37,1.08Zm8.57,2.78,1.08-.36q3.49,10.28,4.64,13.68l-1.08.37Q138.43,216.83,137.25,213.38Z"/><path class="bee2058b-9db8-4385-b16d-2e7d36550e53" d="M169.79,196.92a10.58,10.58,0,0,1,4.71,2.21,10.18,10.18,0,0,1,1.94,2.09,10.55,10.55,0,0,1,1.33,2.64,10.93,10.93,0,0,1,.55,2.81,11.66,11.66,0,0,1-.24,2.77,10.47,10.47,0,0,1-2.21,4.51,10.25,10.25,0,0,1-4.16,3c.29.87.48,1.44.58,1.72l-1.06.36c-.25-.76-.45-1.33-.58-1.72a11.12,11.12,0,0,1-2.8.39,10.76,10.76,0,0,1-2.72-.38,10.2,10.2,0,0,1-4.4-2.4,10,10,0,0,1-2.83-4.35,10.18,10.18,0,0,1-.55-2.9,10.58,10.58,0,0,1,2.64-7.44,10.41,10.41,0,0,1,9.8-3.33ZM175,213.19a9.06,9.06,0,0,0,1.94-4,8.66,8.66,0,0,0,.19-2.44,8.89,8.89,0,0,0-.47-2.5,9.05,9.05,0,0,0-2.65-4,9.21,9.21,0,0,0-4.09-2.13,8.69,8.69,0,0,0-2.55-.22,8.86,8.86,0,0,0-2.56.46,9.43,9.43,0,0,0-6.14,6.75,8.63,8.63,0,0,0-.22,2.54,8.74,8.74,0,0,0,.47,2.59,9,9,0,0,0,2.52,3.88,9.46,9.46,0,0,0,3.9,2.13,8.85,8.85,0,0,0,2.43.32,9.29,9.29,0,0,0,2.49-.31c-.72-2.11-1.19-3.5-1.42-4.19l1-.35c.71,2.08,1.18,3.48,1.42,4.18A9.27,9.27,0,0,0,175,213.19Z"/><path class="bee2058b-9db8-4385-b16d-2e7d36550e53" d="M190.91,188.32q3.1,9.13,4.65,13.71a6.56,6.56,0,0,1-4.1,8.25l-1.36.46a6.49,6.49,0,0,1-8.23-4.07L177.22,193l1.06-.35,4.64,13.71a5.39,5.39,0,0,0,6.83,3.37l1.36-.46a5.27,5.27,0,0,0,3.12-2.72,5.17,5.17,0,0,0,.27-4.11q-3.48-10.27-4.64-13.72Z"/><path class="bee2058b-9db8-4385-b16d-2e7d36550e53" d="M216,202l-1.14.39-12.84-16q-.37,15.42-.48,20.55l-1.11.38q.34-16.74.47-22.31l1.14-.38Z"/><path class="bee2058b-9db8-4385-b16d-2e7d36550e53" d="M233.33,194.92c.19.54.3.89.36,1.05l-14.8,5q-5-14.91-6.73-19.87l1.06-.36,6.37,18.82Z"/><path class="bee2058b-9db8-4385-b16d-2e7d36550e53" d="M236.52,195l-6.73-19.87,1.05-.36,6.73,19.87Z"/><path class="bee2058b-9db8-4385-b16d-2e7d36550e53" d="M234,174.92l-.36-1.09,14.79-5c.19.54.31.9.37,1.08Zm8.57,2.77,1.08-.36q3.49,10.28,4.64,13.69l-1.08.36Q243.78,181.14,242.6,177.69Z"/><path class="bee2058b-9db8-4385-b16d-2e7d36550e53" d="M262.54,164.05q-1.56,7.8-2.1,10.41c0,.07,0,.13,0,.17q2.79,8.25,3.73,11l-1.05.35q-2.8-8.28-3.73-11a.64.64,0,0,0-.13-.11l-7.94-7,1.22-.41,7,6.16q1.35-6.86,1.81-9.14Z"/></g></svg>