<svg xmlns="http://www.w3.org/2000/svg" xmlns:xlink="http://www.w3.org/1999/xlink" viewBox="0 0 330.48 327.24"><defs><style>.a03a738a-ec0a-4091-94d1-e365792998d9,.a0a4e561-98c3-4df0-8dae-a80b7987130b,.aca14929-85b7-4c62-bf04-ee4d896311de,.af87cbe0-213e-41e8-84f7-87893a59bd7b,.b03fa2ec-dba3-4a1e-be98-a4c34c27c939,.b0d453e8-4ff3-45bf-a208-9bfcbda96f59,.bbf906c9-6592-4857-954b-97fd558bcf5a,.e7425e42-b041-4309-b532-1ec8ac8a4c51,.fd855036-bf82-4ee5-92a2-bae9299aaf52{fill:none;}.a03a738a-ec0a-4091-94d1-e365792998d9,.a0a4e561-98c3-4df0-8dae-a80b7987130b,.aca14929-85b7-4c62-bf04-ee4d896311de,.af87cbe0-213e-41e8-84f7-87893a59bd7b,.b03fa2ec-dba3-4a1e-be98-a4c34c27c939,.b0d453e8-4ff3-45bf-a208-9bfcbda96f59,.b5ed3cad-d303-4e56-8ae8-310a0e19a62a,.bbf906c9-6592-4857-954b-97fd558bcf5a,.e7425e42-b041-4309-b532-1ec8ac8a4c51,.fd855036-bf82-4ee5-92a2-bae9299aaf52{stroke-miterlimit:10;}.a03a738a-ec0a-4091-94d1-e365792998d9,.fd855036-bf82-4ee5-92a2-bae9299aaf52{stroke-width:2px;}.a03a738a-ec0a-4091-94d1-e365792998d9{stroke:url(#bff0a208-49ab-474a-963e-698871780507);}.fd855036-bf82-4ee5-92a2-bae9299aaf52{stroke:url(#a5a65377-b671-49fa-83d0-4f64a51f0107);}.b0d453e8-4ff3-45bf-a208-9bfcbda96f59,.bbf906c9-6592-4857-954b-97fd558bcf5a{stroke-width:5px;}.b0d453e8-4ff3-45bf-a208-9bfcbda96f59{stroke:url(#a309a953-9184-4f8a-a736-9fcf1b2db3f3);}.bbf906c9-6592-4857-954b-97fd558bcf5a{stroke:url(#b3452528-6907-4433-8b00-db1701623ca0);}.aca14929-85b7-4c62-bf04-ee4d896311de,.b03fa2ec-dba3-4a1e-be98-a4c34c27c939{stroke-width:3px;}.b03fa2ec-dba3-4a1e-be98-a4c34c27c939{stroke:url(#b2ee3005-6aa8-40f6-8a29-64543ffeb5ab);}.aca14929-85b7-4c62-bf04-ee4d896311de{stroke:url(#f3a84c29-3292-4eb3-9e38-8d640cb75e9f);}.a0a4e561-98c3-4df0-8dae-a80b7987130b,.af87cbe0-213e-41e8-84f7-87893a59bd7b,.b5ed3cad-d303-4e56-8ae8-310a0e19a62a,.e7425e42-b041-4309-b532-1ec8ac8a4c51{stroke:#717070;}.a0a4e561-98c3-4df0-8dae-a80b7987130b{font-size:24.96px;}.a0a4e561-98c3-4df0-8dae-a80b7987130b,.e7425e42-b041-4309-b532-1ec8ac8a4c51{font-family:Reduza_Infinity, Reduza Infinity;}.b26d6f81-fd9f-41a9-8952-8e3f1b9a300a{letter-spacing:-0.11em;}.e4c28b81-30d6-4d39-94aa-e68b3aeabc14{letter-spacing:0em;}.efaad21b-0e13-4ad7-a13d-0593b222c259{letter-spacing:-0.1em;}.b5ed3cad-d303-4e56-8ae8-310a0e19a62a{font-size:58.67px;fill:#727070;font-family:Roboto-Light, Roboto;font-weight:300;}.f03c5231-ecba-44b0-998a-240f37328a09{letter-spacing:-0.01em;}.b839541c-7eab-4558-84a9-a29dacf719ac{letter-spacing:-0.01em;}.e7425e42-b041-4309-b532-1ec8ac8a4c51{font-size:29.96px;}.ae34963d-e80a-4a2a-b841-8d09902eb446{letter-spacing:-0.15em;}</style><linearGradient id="bff0a208-49ab-474a-963e-698871780507" x1="73.27" y1="45.64" x2="284" y2="45.64" gradientUnits="userSpaceOnUse"><stop offset="0" stop-color="#7aa19c"/><stop offset="1" stop-color="#daa771"/></linearGradient><linearGradient id="a5a65377-b671-49fa-83d0-4f64a51f0107" x1="38.69" y1="284.15" x2="253.69" y2="284.15" xlink:href="#bff0a208-49ab-474a-963e-698871780507"/><linearGradient id="a309a953-9184-4f8a-a736-9fcf1b2db3f3" x1="43.73" y1="222.84" x2="294.58" y2="222.84" xlink:href="#bff0a208-49ab-474a-963e-698871780507"/><linearGradient id="b3452528-6907-4433-8b00-db1701623ca0" x1="28.34" y1="103.67" x2="272.93" y2="103.67" xlink:href="#bff0a208-49ab-474a-963e-698871780507"/><linearGradient id="b2ee3005-6aa8-40f6-8a29-64543ffeb5ab" x1="161.46" y1="224.8" x2="280.78" y2="224.8" xlink:href="#bff0a208-49ab-474a-963e-698871780507"/><linearGradient id="f3a84c29-3292-4eb3-9e38-8d640cb75e9f" x1="42.14" y1="107.71" x2="165.62" y2="107.71" xlink:href="#bff0a208-49ab-474a-963e-698871780507"/></defs><title>Prod1_BCGarantee</title><g id="b70cb268-68e5-484b-9da4-56d41cf1d9f9" data-name="Capa 3"><path class="a03a738a-ec0a-4091-94d1-e365792998d9" d="M73.85,43.27a150.26,150.26,0,0,1,209.34,33.5"/><path class="fd855036-bf82-4ee5-92a2-bae9299aaf52" d="M253.09,284.37A150.25,150.25,0,0,1,39.5,252.53"/><path class="b0d453e8-4ff3-45bf-a208-9bfcbda96f59" d="M290.89,147.6a132.54,132.54,0,0,1,1.19,17.7,130.64,130.64,0,0,1-246.14,61"/><path class="bbf906c9-6592-4857-954b-97fd558bcf5a" d="M31.19,175c-.23-3.19-.35-6.42-.35-9.67a130.63,130.63,0,0,1,240-71.42"/><path class="b03fa2ec-dba3-4a1e-be98-a4c34c27c939" d="M279.28,165.14A117.82,117.82,0,0,1,161.46,283"/><path class="aca14929-85b7-4c62-bf04-ee4d896311de" d="M43.72,169.55c0-1.46-.08-2.93-.08-4.41A117.82,117.82,0,0,1,161.46,47.32c1.37,0,2.74,0,4.11.07"/></g><g id="b411aa89-0909-44e4-bed8-98c3466ac6bd" data-name="Contenido"><polygon class="af87cbe0-213e-41e8-84f7-87893a59bd7b" points="130.75 65.11 138.8 73.59 150.34 71.76 144.77 82.03 150.08 92.45 138.59 90.33 130.32 98.59 128.79 87 118.37 81.7 128.92 76.66 130.75 65.11"/><polygon class="af87cbe0-213e-41e8-84f7-87893a59bd7b" points="167.15 62.77 172.81 68.76 180.94 67.49 176.99 74.72 180.71 82.06 172.62 80.54 166.78 86.34 165.73 78.18 158.41 74.42 165.84 70.9 167.15 62.77"/><polygon class="af87cbe0-213e-41e8-84f7-87893a59bd7b" points="101.33 85.26 106.98 91.24 115.11 89.98 111.17 97.2 114.88 104.54 106.8 103.02 100.96 108.82 99.91 100.66 92.58 96.91 100.02 93.38 101.33 85.26"/><polygon class="af87cbe0-213e-41e8-84f7-87893a59bd7b" points="199.91 259.72 191.49 251.62 180.03 253.97 185.14 243.45 179.37 233.28 190.95 234.89 198.83 226.26 200.88 237.76 211.53 242.6 201.22 248.11 199.91 259.72"/><polygon class="af87cbe0-213e-41e8-84f7-87893a59bd7b" points="162.6 262.7 156.69 256.97 148.62 258.6 152.23 251.21 148.19 244.04 156.34 245.19 161.91 239.14 163.33 247.24 170.81 250.67 163.54 254.52 162.6 262.7"/><polygon class="af87cbe0-213e-41e8-84f7-87893a59bd7b" points="228.39 238.28 222.48 232.55 214.41 234.18 218.03 226.79 213.99 219.62 222.13 220.77 227.7 214.72 229.12 222.82 236.6 226.25 229.34 230.1 228.39 238.28"/><text class="a0a4e561-98c3-4df0-8dae-a80b7987130b" transform="translate(84.52 147.02) rotate(-18.71)">B<tspan class="b26d6f81-fd9f-41a9-8952-8e3f1b9a300a" x="15.51" y="0">L</tspan><tspan class="e4c28b81-30d6-4d39-94aa-e68b3aeabc14" x="28.26" y="0">OC</tspan><tspan class="efaad21b-0e13-4ad7-a13d-0593b222c259" x="65.63" y="0">K</tspan><tspan x="76.36" y="0">CHAIN</tspan></text><text class="b5ed3cad-d303-4e56-8ae8-310a0e19a62a" transform="translate(10.06 232.85) rotate(-18.71)">G<tspan class="f03c5231-ecba-44b0-998a-240f37328a09" x="40.39" y="0">U</tspan><tspan x="79.12" y="0">ARA</tspan><tspan class="b839541c-7eab-4558-84a9-a29dacf719ac" x="189.35" y="0">N</tspan><tspan x="229.92" y="0">TEE</tspan></text><text class="e7425e42-b041-4309-b532-1ec8ac8a4c51" transform="translate(88.14 245.22) rotate(-18.71)">BE<tspan class="ae34963d-e80a-4a2a-b841-8d09902eb446" x="37.21" y="0">S</tspan><tspan x="48.04" y="0">T QUALITY</tspan></text></g></svg>