<svg id="aea1f7b8-2a12-46f1-b643-53d967eeefc9" data-name="Capa 1" xmlns="http://www.w3.org/2000/svg" viewBox="0 0 218.88 218.88"><defs><style>.a0237b94-f25b-43c8-aa63-3f241c35900e{fill:#83378d;}.a0237b94-f25b-43c8-aa63-3f241c35900e,.a0898d4e-a871-4faf-b8d8-832b7168e4b2,.a8745417-0c5d-4391-bf75-a2e648ba78f4,.b0eb84dc-303e-4ada-b154-0241190119da,.e9b1d9be-6073-4a4b-aefd-5c0349e1a1a6,.ec966de4-ea3c-42e2-8995-e64f22d6d041,.f20d841a-d711-45d6-abf8-7cb66623c87e,.fc580ef9-b124-49fd-8648-e503f5a119d4{opacity:0.4;}.e9b1d9be-6073-4a4b-aefd-5c0349e1a1a6{fill:#302d7e;}.fc580ef9-b124-49fd-8648-e503f5a119d4{fill:#fab334;}.a0898d4e-a871-4faf-b8d8-832b7168e4b2{fill:#683d14;}.a8745417-0c5d-4391-bf75-a2e648ba78f4{fill:#009741;}.f20d841a-d711-45d6-abf8-7cb66623c87e{fill:#1b9dd9;}.b0eb84dc-303e-4ada-b154-0241190119da{fill:#e20d18;}.ec966de4-ea3c-42e2-8995-e64f22d6d041{fill:#fbea1f;}</style></defs><title>Logo_dTeilorg</title><polygon id="b1a214b5-726d-4629-adb8-9865f54baee9" data-name="9" class="a0237b94-f25b-43c8-aa63-3f241c35900e" points="152.71 5.71 214.33 67.32 214.33 154.46 152.71 216.08 152.71 5.71"/><polygon id="bf3f18a5-097c-468e-8324-8559de5d16aa" data-name="8" class="e9b1d9be-6073-4a4b-aefd-5c0349e1a1a6" points="3.95 67.32 214.33 67.32 152.71 5.71 65.57 5.71 3.95 67.32"/><polygon id="ad99babc-72f1-4163-96e1-4327838f1ed1" data-name="7" class="fc580ef9-b124-49fd-8648-e503f5a119d4" points="65.57 216.08 3.95 154.46 3.95 67.32 65.57 5.71 65.57 216.08"/><polygon id="eac3d952-2d4a-4045-a50d-1d8c43ddd806" data-name="6" class="a0898d4e-a871-4faf-b8d8-832b7168e4b2" points="214.33 154.46 152.71 216.08 65.57 216.08 3.95 154.46 214.33 154.46"/><polygon id="fcc4c71f-d752-4ef5-a657-86d3e82a73fd" data-name="4" class="a8745417-0c5d-4391-bf75-a2e648ba78f4" points="214.33 67.32 214.33 154.46 152.71 216.08 65.57 216.08 214.33 67.32"/><polygon id="f9aef1e2-b7ac-4047-aef2-3d1e7975c46d" data-name="3" class="f20d841a-d711-45d6-abf8-7cb66623c87e" points="152.71 216.08 65.57 216.08 3.95 154.46 3.95 67.32 152.71 216.08"/><polygon id="be529847-e280-4338-9ea8-0cf47a65e6cc" data-name="2" class="b0eb84dc-303e-4ada-b154-0241190119da" points="65.57 5.71 152.71 5.71 214.33 67.32 214.33 154.46 65.57 5.71"/><polygon id="a498eec8-2e60-48a6-bf0b-438bc8bf6b40" data-name="1" class="ec966de4-ea3c-42e2-8995-e64f22d6d041" points="3.95 154.46 152.71 5.71 65.57 5.71 3.95 67.32 3.95 154.46"/></svg>