<svg id="a8e95137-2a18-446a-a922-3032ad9f9b06" data-name="Capa 1" xmlns="http://www.w3.org/2000/svg" viewBox="0 0 732.64 220.32"><defs><style>.a466a969-55b2-4585-915b-9641544b8d31{fill:#83378d;}.a466a969-55b2-4585-915b-9641544b8d31,.a5fd791b-5406-4a99-a8e1-6f0d57d6f232,.b920ac3d-8ef2-447b-a15e-04f8dae17036,.b96cf184-09c4-4fbb-9f35-8e7152f0c059,.bb240f29-3201-4a26-b8c2-f1563fbc67ed,.bbde70fe-2529-4d57-a31d-81ebaffe30d4,.be35f07d-d8b6-48e3-a132-50cfe8ab5d04,.efb3cf6f-3dcf-46d5-9998-a4c416634cfd{opacity:0.4;}.efb3cf6f-3dcf-46d5-9998-a4c416634cfd{fill:#302d7e;}.b920ac3d-8ef2-447b-a15e-04f8dae17036{fill:#fab334;}.bbde70fe-2529-4d57-a31d-81ebaffe30d4{fill:#683d14;}.be35f07d-d8b6-48e3-a132-50cfe8ab5d04{fill:#009741;}.bb240f29-3201-4a26-b8c2-f1563fbc67ed{fill:#1b9dd9;}.a5fd791b-5406-4a99-a8e1-6f0d57d6f232{fill:#e20d18;}.b96cf184-09c4-4fbb-9f35-8e7152f0c059{fill:#fbea1f;}.b23073bb-1d1b-4182-94a5-8c18e9de8982{fill:#1d1d1b;stroke:#1d1d1b;stroke-miterlimit:10;stroke-width:1.5px;}</style></defs><title>Logo_dTeilorg_CompletoSinEslogan</title><polygon id="e8822934-df21-4eca-8506-39244e717d4c" data-name="9" class="a466a969-55b2-4585-915b-9641544b8d31" points="152.19 6.54 213.81 68.16 213.81 155.3 152.19 216.92 152.19 6.54"/><polygon id="af14217c-6996-4809-97d8-70159efac772" data-name="8" class="efb3cf6f-3dcf-46d5-9998-a4c416634cfd" points="3.43 68.16 213.81 68.16 152.19 6.54 65.05 6.54 3.43 68.16"/><polygon id="be7e8f94-484e-43ed-a7ce-335ca16192e7" data-name="7" class="b920ac3d-8ef2-447b-a15e-04f8dae17036" points="65.05 216.92 3.43 155.3 3.43 68.16 65.05 6.54 65.05 216.92"/><polygon id="a587cd13-0f07-4ee5-9059-0a3c0ce2e131" data-name="6" class="bbde70fe-2529-4d57-a31d-81ebaffe30d4" points="213.81 155.3 152.19 216.92 65.05 216.92 3.43 155.3 213.81 155.3"/><polygon id="a3280c81-a891-4a1b-b3e8-48efc6b1b7bc" data-name="4" class="be35f07d-d8b6-48e3-a132-50cfe8ab5d04" points="213.81 68.16 213.81 155.3 152.19 216.92 65.05 216.92 213.81 68.16"/><polygon id="e206bb46-561b-4dcf-8cc7-98482c75baac" data-name="3" class="bb240f29-3201-4a26-b8c2-f1563fbc67ed" points="152.19 216.92 65.05 216.92 3.43 155.3 3.43 68.16 152.19 216.92"/><polygon id="fd854422-a8d3-4ca6-addd-e9576d441be8" data-name="2" class="a5fd791b-5406-4a99-a8e1-6f0d57d6f232" points="65.05 6.54 152.19 6.54 213.81 68.16 213.81 155.3 65.05 6.54"/><polygon id="f16e04a1-a132-46c1-872e-64f4a6a4d56a" data-name="1" class="b96cf184-09c4-4fbb-9f35-8e7152f0c059" points="3.43 155.3 152.19 6.54 65.05 6.54 3.43 68.16 3.43 155.3"/><path class="b23073bb-1d1b-4182-94a5-8c18e9de8982" d="M310,50V152.08h-25.8a32.69,32.69,0,0,1-16.82-4.42A33.21,33.21,0,0,1,255.26,136a35.29,35.29,0,0,1-5.13-18,33.16,33.16,0,0,1,4.42-16.82,34.78,34.78,0,0,1,11.68-12.12,32,32,0,0,1,8.41-3.7,34.9,34.9,0,0,1,9.55-1.29h20.39V50Zm-5.41,39.48H284.19A27.58,27.58,0,0,0,264,97.92a27.11,27.11,0,0,0-8.41,20.1,28.71,28.71,0,0,0,28.65,28.65h20.39Z"/><path class="b23073bb-1d1b-4182-94a5-8c18e9de8982" d="M324.67,55.44V49.88h76.12v5.56Zm35.21,26.23h5.56v70.41h-5.56Z"/><path class="b23073bb-1d1b-4182-94a5-8c18e9de8982" d="M451.39,108.61q-34.35,16-51.46,23.94c.67,1,1.33,2,2,3s1.52,2,2.28,2.85a28.81,28.81,0,0,0,9.26,6,26.92,26.92,0,0,0,11.12,2.29,29,29,0,0,0,20.1-8.27q2.7,2.43,4,3.7a33.46,33.46,0,0,1-10.83,7.27,34.14,34.14,0,0,1-26.66,0,31.85,31.85,0,0,1-10.69-7.27,26.09,26.09,0,0,1-3.13-3.42,29.41,29.41,0,0,1-2.43-3.84c-.47-.76-.9-1.52-1.28-2.29a23.21,23.21,0,0,1-1-2.7,35.47,35.47,0,0,1-1.56-5.71,30.38,30.38,0,0,1-.57-6.12,33.17,33.17,0,0,1,2.7-13.26,36.86,36.86,0,0,1,7.27-10.83,33,33,0,0,1,10.69-7.13,34.14,34.14,0,0,1,26.66,0,34.73,34.73,0,0,1,10.83,7.13q1.56,1.71,3,3.56c.86,1.24,1.71,2.52,2.57,3.85.38.76.76,1.57,1.14,2.42a19,19,0,0,1,1,2.43Q452.66,108,451.39,108.61Zm-2.14-5a35.91,35.91,0,0,0-2.14-3,32.93,32.93,0,0,0-2.42-2.71,26.49,26.49,0,0,0-9-6.13,27.73,27.73,0,0,0-11.12-2.28,27.08,27.08,0,0,0-11.12,2.28,27.63,27.63,0,0,0-9.26,6.13,30.87,30.87,0,0,0-6,9A27.73,27.73,0,0,0,395.94,118a28,28,0,0,0,.43,5,36,36,0,0,0,1.14,4.71Q432,111.6,449.25,103.62Z"/><path class="b23073bb-1d1b-4182-94a5-8c18e9de8982" d="M471.06,152.08v-68h5.41v68Z"/><path class="b23073bb-1d1b-4182-94a5-8c18e9de8982" d="M491,152.22V50h5.42V152.22Z"/><path class="b23073bb-1d1b-4182-94a5-8c18e9de8982" d="M512.11,150.94a4.13,4.13,0,0,1,0-5.7,4.35,4.35,0,0,1,3-1.14,4.17,4.17,0,0,1,2.85,1.14,3.81,3.81,0,0,1,0,5.7,3.91,3.91,0,0,1-2.85,1.28A4.07,4.07,0,0,1,512.11,150.94Z"/><path class="b23073bb-1d1b-4182-94a5-8c18e9de8982" d="M584.66,88.51a34.87,34.87,0,0,1,12.11,11.69,31.84,31.84,0,0,1,3.71,8.41,34.8,34.8,0,0,1,1.28,9.41,32.69,32.69,0,0,1-4.42,16.82A33.58,33.58,0,0,1,585.8,147a38.36,38.36,0,0,1-8.55,3.85,34.86,34.86,0,0,1-9.41,1.28A32.66,32.66,0,0,1,551,147.66,33.32,33.32,0,0,1,538.9,136a35.55,35.55,0,0,1-5.13-18,33.16,33.16,0,0,1,4.42-16.82,34.81,34.81,0,0,1,11.69-12.12,31.82,31.82,0,0,1,8.41-3.7,34.9,34.9,0,0,1,9.55-1.29A33.26,33.26,0,0,1,584.66,88.51Zm3.42,49.75A27.86,27.86,0,0,0,596.35,118a28.58,28.58,0,1,0-48.75,20.24,28.56,28.56,0,0,0,40.48,0Z"/><path class="b23073bb-1d1b-4182-94a5-8c18e9de8982" d="M619.58,101.2a34.72,34.72,0,0,1,11.69-12.12,31.82,31.82,0,0,1,8.41-3.7,34.9,34.9,0,0,1,9.55-1.29v5.42A27.56,27.56,0,0,0,629,97.92a27.11,27.11,0,0,0-8.41,20.1v34.06h-5.42V118A33.16,33.16,0,0,1,619.58,101.2Z"/><path class="b23073bb-1d1b-4182-94a5-8c18e9de8982" d="M724.49,152.08a34,34,0,0,1-2.57,13.26,36.26,36.26,0,0,1-7.27,11,36.67,36.67,0,0,1-10.83,7.27,33,33,0,0,1-13.26,2.71H663.2v-5.56h27.36a27.73,27.73,0,0,0,11.12-2.28,26.49,26.49,0,0,0,9-6.13,28.29,28.29,0,0,0,6.27-9,29.58,29.58,0,0,0,2.14-11.26V136.4a35.67,35.67,0,0,1-12,11.55,34.23,34.23,0,0,1-33.36-.14,35,35,0,0,1-12.11-11.69,34.29,34.29,0,0,1-3.71-8.55A31.86,31.86,0,0,1,656.5,118a33.25,33.25,0,0,1,4.41-16.82A34.9,34.9,0,0,1,672.6,89.08a32,32,0,0,1,8.41-3.7,35,35,0,0,1,9.55-1.29,33.26,33.26,0,0,1,16.82,4.42A34.9,34.9,0,0,1,719.5,100.2a31.82,31.82,0,0,1,3.7,8.41,34.42,34.42,0,0,1,1.29,9.41ZM710.8,138.26A27.86,27.86,0,0,0,719.07,118a28.58,28.58,0,1,0-48.75,20.24,28.56,28.56,0,0,0,40.48,0Z"/></svg>