<svg id="e4ee3cb4-345b-44bf-a52e-09a881691620" data-name="Capa 1" xmlns="http://www.w3.org/2000/svg" viewBox="0 0 732.64 220.32"><defs><style>.a2549f2b-c794-4f6b-a33c-647a2c73a865{fill:#83378d;}.a2549f2b-c794-4f6b-a33c-647a2c73a865,.a773092d-33df-4aba-8338-240b4c6bada1,.ad3a61cc-2bc9-4c63-9182-75d96a673a89,.ad894667-7200-4d2b-90c5-e50890cf8dd9,.b7fd34d0-a28b-4a5e-9763-76fff5daaabf,.bdfd26f7-a142-4ae3-9d23-dea6bdf8b629,.be482395-762f-4e8b-a3d4-a0f22b4d7d69,.bf02a0f5-fc41-46ed-9533-3efa40c8123b{opacity:0.4;}.b7fd34d0-a28b-4a5e-9763-76fff5daaabf{fill:#302d7e;}.bdfd26f7-a142-4ae3-9d23-dea6bdf8b629{fill:#fab334;}.ad894667-7200-4d2b-90c5-e50890cf8dd9{fill:#683d14;}.ad3a61cc-2bc9-4c63-9182-75d96a673a89{fill:#009741;}.be482395-762f-4e8b-a3d4-a0f22b4d7d69{fill:#1b9dd9;}.bf02a0f5-fc41-46ed-9533-3efa40c8123b{fill:#e20d18;}.a773092d-33df-4aba-8338-240b4c6bada1{fill:#fbea1f;}.a7366e23-40d8-4b3e-9236-fd08c3f6c02f,.e4cf49c6-bd60-42d2-a855-c0fe972a4849{fill:#1d1d1b;}.a7366e23-40d8-4b3e-9236-fd08c3f6c02f{stroke:#1d1d1b;stroke-miterlimit:10;stroke-width:1.5px;}</style></defs><title>Logo_dTeilorg</title><polygon id="e800ad4b-367e-4e68-a952-5c9aceccf648" data-name="9" class="a2549f2b-c794-4f6b-a33c-647a2c73a865" points="152.19 6.54 213.81 68.16 213.81 155.3 152.19 216.92 152.19 6.54"/><polygon id="b28f4d4c-e5a1-4677-bb0b-65dec5eaef19" data-name="8" class="b7fd34d0-a28b-4a5e-9763-76fff5daaabf" points="3.43 68.16 213.81 68.16 152.19 6.54 65.05 6.54 3.43 68.16"/><polygon id="a7c66399-6e56-421f-8157-de416e8c0a90" data-name="7" class="bdfd26f7-a142-4ae3-9d23-dea6bdf8b629" points="65.05 216.92 3.43 155.3 3.43 68.16 65.05 6.54 65.05 216.92"/><polygon id="b5bc6889-0e7d-42e8-a245-d3d0087f4df6" data-name="6" class="ad894667-7200-4d2b-90c5-e50890cf8dd9" points="213.81 155.3 152.19 216.92 65.05 216.92 3.43 155.3 213.81 155.3"/><polygon id="b661b67b-a2a1-4025-b599-15bd3d320802" data-name="4" class="ad3a61cc-2bc9-4c63-9182-75d96a673a89" points="213.81 68.16 213.81 155.3 152.19 216.92 65.05 216.92 213.81 68.16"/><polygon id="f793f90b-8822-4888-9c26-368dee6f99bc" data-name="3" class="be482395-762f-4e8b-a3d4-a0f22b4d7d69" points="152.19 216.92 65.05 216.92 3.43 155.3 3.43 68.16 152.19 216.92"/><polygon id="ecee0fb6-884e-4f6e-9669-9c0fe10e35f7" data-name="2" class="bf02a0f5-fc41-46ed-9533-3efa40c8123b" points="65.05 6.54 152.19 6.54 213.81 68.16 213.81 155.3 65.05 6.54"/><polygon id="f371e71a-3cc6-4b57-87a4-ce3f730132ad" data-name="1" class="a773092d-33df-4aba-8338-240b4c6bada1" points="3.43 155.3 152.19 6.54 65.05 6.54 3.43 68.16 3.43 155.3"/><path class="e4cf49c6-bd60-42d2-a855-c0fe972a4849" d="M260.36,199.45a4.35,4.35,0,0,1-.91,0,8,8,0,0,1-1.08-.13c-.35-.06-.68-.12-1-.19a6,6,0,0,1-.63-.15,15.66,15.66,0,0,1-1.86-.67,6.63,6.63,0,0,1-1.73-1,4.73,4.73,0,0,1-1.2-1.38,2.47,2.47,0,0,1-.25-1.13,4.91,4.91,0,0,1,.19-1.33,1.75,1.75,0,0,1,.15-.34,2.19,2.19,0,0,0,.16-.29.49.49,0,0,1,.51-.31.5.5,0,0,0,.25-.07,3.66,3.66,0,0,1,.53.13c.11,0,.14.19.1.44s-.09.39-.13.54a2.19,2.19,0,0,1-.25.53.85.85,0,0,0-.06.6.76.76,0,0,0,.25.54,1.83,1.83,0,0,1,.69.5,2.71,2.71,0,0,0,1,.6c.4.15.79.3,1.16.47a2.88,2.88,0,0,1,.41.13l.35.12c.17.09.35.17.54.25a1,1,0,0,0,.72,0,1.39,1.39,0,0,0,.47.29.33.33,0,0,0,.25,0,.44.44,0,0,1,.22-.07,1.19,1.19,0,0,1,.45.19.81.81,0,0,0,.5-.06,6.15,6.15,0,0,1,1.23,0,5,5,0,0,0,.72.06.52.52,0,0,0,.48,0c.14-.06.3-.13.47-.22a1.65,1.65,0,0,1,.63,0q.26.31.75,0a1.66,1.66,0,0,1,.63-.19,1.45,1.45,0,0,0,.32,0,1.35,1.35,0,0,1,.31,0,1.75,1.75,0,0,0,1.14-.12l.12-.07s.07,0,.07-.06a.71.71,0,0,0,.53,0l.48-.16a2.2,2.2,0,0,0,.5-.06,1.92,1.92,0,0,1,.44-.06,5.22,5.22,0,0,0,.88-.07,1.92,1.92,0,0,0,.88-.37c.17-.13.32-.13.44,0a.36.36,0,0,0,.45-.07A.81.81,0,0,1,272,196l.38,0a2.16,2.16,0,0,0,.47-.16,3.37,3.37,0,0,1,.48-.15l.94-.32a1.26,1.26,0,0,0,.38-.06,1.31,1.31,0,0,0,.31-.13,3.55,3.55,0,0,1,.76-.06,1.51,1.51,0,0,1,.35-.25,2.93,2.93,0,0,1,.53-.25.27.27,0,0,1,.22,0,.22.22,0,0,0,.22,0,5.12,5.12,0,0,0,.57-.25,1.2,1.2,0,0,1,.5-.13,2.88,2.88,0,0,1,.48-.18,1.09,1.09,0,0,0,.41-.26l.94-.56,1.2-.6a5.17,5.17,0,0,0,1.13-.79c.42-.38.78-.7,1.07-1a3.4,3.4,0,0,0,.7-.85,2.28,2.28,0,0,0,.28-1,5.48,5.48,0,0,0-.09-1.23,1.92,1.92,0,0,0-.38-.85,7.85,7.85,0,0,1-.57-.73,10.5,10.5,0,0,0-2.14-2.33,19.72,19.72,0,0,0-2.71-1.82q-2.15-1.14-4.35-2.08a9.15,9.15,0,0,0-1.41-.51,8,8,0,0,1-1.42-.5c-.72-.25-1.44-.53-2.18-.82s-1.46-.55-2.17-.76a7.94,7.94,0,0,1-1.79-.85c-.57-.35-1.15-.7-1.74-1l-1.23-.94a4,4,0,0,1-1-1.2,4.63,4.63,0,0,1-.62-2.9,1.06,1.06,0,0,0,0-.5.85.85,0,0,1,0-.5c.08-.26.16-.51.25-.76a5.14,5.14,0,0,1,.37-.82,10.73,10.73,0,0,1,2.59-3,38.25,38.25,0,0,1,3.53-2.71,7.85,7.85,0,0,1,.66-.47,4.76,4.76,0,0,1,.78-.41,12.72,12.72,0,0,0,1.61-.82,16,16,0,0,1,1.54-.82c.72-.29,1.4-.56,2.05-.79s1.31-.45,2-.66a12.51,12.51,0,0,1,1.76-.5l1.83-.38a1.34,1.34,0,0,1,.5-.06.4.4,0,0,1,.29,0,.39.39,0,0,0,.28,0q.69-.06,1.35-.06a6.14,6.14,0,0,1,1.29.13,2.86,2.86,0,0,1,.73.09c.23.06.47.14.72.22a1,1,0,0,1,.7.51l1.13,1.7a2.91,2.91,0,0,1,.19.69,2,2,0,0,1-.06.82,1.45,1.45,0,0,0-.13.57v.56a5.28,5.28,0,0,0-.19.76,2.71,2.71,0,0,1-.31.82.75.75,0,0,1-.51.5.57.57,0,0,1-.63-.12,1.72,1.72,0,0,1-.44-1.77c.08-.25.16-.51.22-.79l.22-.85c.13-.21.17-.35.13-.44a.52.52,0,0,0-.19-.5,2.17,2.17,0,0,0-.76-.38,6.82,6.82,0,0,0-1.51-.35,6.5,6.5,0,0,0-1.7,0,14.78,14.78,0,0,0-2.2.18,18.15,18.15,0,0,0-4.85,1.58l-2.78,1.32a37.77,37.77,0,0,0-3.37,2,29.85,29.85,0,0,0-3.12,2.49,8.41,8.41,0,0,0-1.13,1.1,12.63,12.63,0,0,0-.95,1.29,3.08,3.08,0,0,0-.34,1.23,2.45,2.45,0,0,0,.28,1.23,2.66,2.66,0,0,0,.66.76c.28.21.54.4.79.56l1.26.7q.57.31,1.26.63l.38.12a4.49,4.49,0,0,1,.44.19,8,8,0,0,0,1.42.5,9.15,9.15,0,0,1,1.41.51.41.41,0,0,0,.26.06,11.85,11.85,0,0,0,1.16.51l1.23.44a6.44,6.44,0,0,1,1.29.37l1.17.51c.63.29,1.25.56,1.86.79a12.64,12.64,0,0,1,1.79.85c.59.33,1.19.7,1.8,1.1a13.68,13.68,0,0,1,1.67,1.29,14.53,14.53,0,0,1,1.48,1.45,11.77,11.77,0,0,1,1.23,1.7,5.15,5.15,0,0,1,.63,1.45c.12.5.27,1,.44,1.57-.05.3-.08.58-.1.86s0,.55,0,.85a2.25,2.25,0,0,1-.09.31,2.91,2.91,0,0,0-.16.32.48.48,0,0,0-.13.37,2.42,2.42,0,0,1-.41.89,7.39,7.39,0,0,1-.66.75,15.31,15.31,0,0,1-1.35,1.32,8.92,8.92,0,0,1-1.67,1.14l-2.14,1.13a26.73,26.73,0,0,1-3.34,1.29c-1.14.36-2.31.71-3.53,1-.46.13-.85.22-1.17.29l-.91.19-1,.19c-.35.06-.78.15-1.29.28s-1.17.22-1.76.28l-1.77.22a4.84,4.84,0,0,1-1.07,0l-1.07-.09a.49.49,0,0,0-.31.06,5.77,5.77,0,0,1-.63.07c-.09,0-.14,0-.16,0a.51.51,0,0,0-.19-.06Z"/><path class="e4cf49c6-bd60-42d2-a855-c0fe972a4849" d="M304,190a4.1,4.1,0,0,1-1.42-.51,6.15,6.15,0,0,1-1.17-1.13,3.16,3.16,0,0,1-.63-1.17,13.37,13.37,0,0,1-.31-1.41,11,11,0,0,1-.19-1.26,7.38,7.38,0,0,1,0-1.33l.25-1.95-.06-.13v-.06h-.19c-.34.42-.73.88-1.2,1.39s-.86,1-1.19,1.38a1,1,0,0,1-.22.25,1.74,1.74,0,0,0-.22.19l-.82.76a8,8,0,0,1-1.58,1.39,3.68,3.68,0,0,0-.63.47,2,2,0,0,1-.75.41,3.13,3.13,0,0,1-1.77-.13,8.11,8.11,0,0,1-.79-.44,2.81,2.81,0,0,1-.59-.57,1.3,1.3,0,0,1-.38-.88v-.69a6.09,6.09,0,0,1,.06-.82c.13-.59.33-1.33.6-2.24a17,17,0,0,0,.54-2.23.65.65,0,0,1,.34-.35.31.31,0,0,1,.35,0l1.19.95a.48.48,0,0,1,.22.37,2.92,2.92,0,0,1,0,.51l-.07.5c-.08.21-.18.49-.28.82a10.42,10.42,0,0,0-.28,1.07c-.09.38-.18.74-.29,1.07a7.14,7.14,0,0,0-.22.89.29.29,0,0,0,0,.22.69.69,0,0,1,0,.22c0,.12.09.19.25.19a.72.72,0,0,0,.32-.07l1-.69.75-.63a5.08,5.08,0,0,0,.7-.69l.69-.66.69-.67a8.88,8.88,0,0,1,.63-.78l.63-.67a5.84,5.84,0,0,0,1-1.25c.38-.59.67-1,.88-1.33l1.14-1.2a.9.9,0,0,1,1-.25,6.45,6.45,0,0,1,.59.29,2.27,2.27,0,0,1,.54.41,1.32,1.32,0,0,1,.31.69,4,4,0,0,1-.12,1.39,9.83,9.83,0,0,0-.51,1.54c-.16.65-.29,1.14-.37,1.48a7.73,7.73,0,0,0-.29,1.45,7,7,0,0,0,0,1.7,2.29,2.29,0,0,0,.1.5,2.37,2.37,0,0,0,.16.51,3.67,3.67,0,0,0,.69,1.54,1.46,1.46,0,0,0,1.45.54,7.17,7.17,0,0,0,1.32-.38q.63-.26,1.26-.57c.34-.21.75-.48,1.23-.82l1.16-.82c.8-.67,1.49-1.27,2.05-1.79s1.13-1.08,1.67-1.67a2.14,2.14,0,0,1,.6-.6,4.11,4.11,0,0,0,.66-.54c.21-.29.47-.29.79,0s.39.59.22.89a10.33,10.33,0,0,0-.88,1.1,4.11,4.11,0,0,1-1,1L312.4,186a25.16,25.16,0,0,1-2.62,2.18,14.68,14.68,0,0,1-2,1.16A7,7,0,0,1,306,190,4,4,0,0,1,304,190Z"/><path class="e4cf49c6-bd60-42d2-a855-c0fe972a4849" d="M318.25,188.8a2,2,0,0,1-.69-.13l-.88-.25a6.94,6.94,0,0,1-1.39-.91,3.36,3.36,0,0,1-.75-1.48,3.68,3.68,0,0,1-.25-2.33l.56-2q.31-.57.63-1.2a9.67,9.67,0,0,0,.51-1.19s0,0,0-.07-.05-.08,0-.12a.36.36,0,0,1,.25-.19.41.41,0,0,1,.31,0l.44.22a2.88,2.88,0,0,1,.38.22s.07.07.07.09,0,.06.12.1a1.22,1.22,0,0,1,.41.69,1.42,1.42,0,0,1-.28.82l-1.07,2.46c-.13.38-.25.75-.35,1.13a2.21,2.21,0,0,0,0,1.14,1.18,1.18,0,0,0,1.1,1.22,6.57,6.57,0,0,0,1.92,0,12.89,12.89,0,0,0,2-.48,19.53,19.53,0,0,0,2.11-.82c.69-.31,1.34-.65,1.95-1a14.07,14.07,0,0,0,1.54-1l.44-.38a.19.19,0,0,1,.13-.06.49.49,0,0,0,.19-.1l.63-.47a4.17,4.17,0,0,1,.57-.47,4.56,4.56,0,0,0,.56-.48,3.06,3.06,0,0,0,.6-.41l.69-.53a1.87,1.87,0,0,1,.63-.32.45.45,0,0,1,.48.19.64.64,0,0,1-.07.6.65.65,0,0,0,0,.66l-.12.38c-.09.21-.19.34-.32.38a4.13,4.13,0,0,1-.5.12l-.82.7a6.67,6.67,0,0,0-.76.75c-.42.34-.75.59-1,.76s-.48.33-.67.47a4.78,4.78,0,0,1-.59.41c-.22.13-.47.3-.76.51,0,0-.11.08-.32.12a.84.84,0,0,0-.37.13,2.41,2.41,0,0,1-1,.69c-.38.13-.88.34-1.51.63s-1.36.38-2.18.63A5.54,5.54,0,0,1,318.25,188.8Zm.57-14.3a1.43,1.43,0,0,0-.31-.13.62.62,0,0,1-.19-.12l-.19-.19a1.54,1.54,0,0,1-.19-1.14l.25-1a2.89,2.89,0,0,1,.5-1c0-.21.05-.28.13-.19a1.42,1.42,0,0,1,.63-.19,2.8,2.8,0,0,1,1.07.69c.21.13.31.27.29.41s-.06.33-.1.54a.4.4,0,0,1-.06.22,2.14,2.14,0,0,0-.13.22,4.9,4.9,0,0,0-.75,1.2c.12.08.1.14-.07.19A1,1,0,0,1,318.82,174.5Z"/><path class="e4cf49c6-bd60-42d2-a855-c0fe972a4849" d="M330.73,178.72a4.37,4.37,0,0,1,.16-.69q.09-.32.15-.63s0-.08.13-.35.19-.62.31-1,.26-.85.38-1.29a9.15,9.15,0,0,1,.38-1.1,6.8,6.8,0,0,0,.38-1,5.24,5.24,0,0,1,.38-1c.08-.12.18-.31.31-.56s.25-.53.38-.82.23-.57.31-.82a1.82,1.82,0,0,0,.13-.57l-.06.07H334c-.08-.09-.14-.07-.19.06l-1.13.38-1.76.63a1.61,1.61,0,0,1-.41.12h-.13l-.09,0-.32.16a4.09,4.09,0,0,1-.72.22l-.92.22a.94.94,0,0,1-.56-.25c-.17-.08-.2-.22-.1-.41s.14-.3.1-.35l-.07-.06c0-.29,0-.46.22-.5a2.67,2.67,0,0,1,.54-.07l1.26-.44.13-.16c0-.06.12,0,.25,0a3.29,3.29,0,0,1,.82-.32,1,1,0,0,1,.37-.12,2.4,2.4,0,0,1,.79-.35c.27-.06.54-.12.79-.16l.25-.12a.47.47,0,0,1,.25-.07,3.92,3.92,0,0,0,.57-.15l.57-.23c.29-.12.44-.23.44-.31a.22.22,0,0,1,.06-.13v-.06l.38-.94,2.77-7.06a3,3,0,0,0,.13-.35,4.46,4.46,0,0,1,.19-.53l.19-.32c.08-.21.33-.31.75-.31a1.5,1.5,0,0,1,.95.25l.15.31c.07.13.14.26.22.38a1.5,1.5,0,0,1,.13.38.55.55,0,0,1-.06.44,34.66,34.66,0,0,0-1.83,3.66c-.5,1.17-1.05,2.41-1.64,3.71-.08.09-.07.12,0,.1s.18,0,.22,0c.89-.21,1.57-.36,2.05-.44s1.13-.23,1.92-.44a1.47,1.47,0,0,0,.7-.16.62.62,0,0,1,.63,0,.52.52,0,0,1,.31,0,.34.34,0,0,0,.32-.1,1.53,1.53,0,0,1,1.13.07.44.44,0,0,1,.38-.07.83.83,0,0,1,.72,0,1.83,1.83,0,0,0,.79.16c.08,0,.12,0,.1.06s0,.13,0,.13.19,0,.22.09,0,.1-.1.1-.29.18-.25.28,0,.16,0,.16a6,6,0,0,1-.94.16,3.24,3.24,0,0,0-1,.22,5.74,5.74,0,0,0-.6,0,2.06,2.06,0,0,0-.6.16l-.25.12a4.1,4.1,0,0,0-1.48.16c-.53.15-1,.26-1.54.35a5.37,5.37,0,0,0-.6.22l-.54.22L338,168l-.94.31c-.21,0-.33,0-.35.13a.5.5,0,0,1-.16.25,2.39,2.39,0,0,0-.22.5c-.1.3-.21.61-.31,1a9.27,9.27,0,0,1-.35.94c-.12.3-.21.49-.25.57-.5,1.47-1,2.86-1.51,4.16a40.75,40.75,0,0,0-1.33,4c-.37,1.37-.69,2.8-.94,4.31a31.14,31.14,0,0,0-.38,5c0,1,0,1.74.06,2.18a4.81,4.81,0,0,0,.16.91.77.77,0,0,0,.19.32.79.79,0,0,1,.22.31,1.41,1.41,0,0,1,.66.29.85.85,0,0,1,.35.47.47.47,0,0,1-.16.47,1.21,1.21,0,0,1-.85.22.34.34,0,0,1-.25-.13,4.69,4.69,0,0,1-1.1-.47,1.77,1.77,0,0,1-.48-.79,5.54,5.54,0,0,1-.59-2.39c-.07-1-.1-1.89-.1-2.65l.13-2.33a4.37,4.37,0,0,1,.06-.88c0-.17.1-.46.19-.88a19.46,19.46,0,0,1,.35-2.24,20.83,20.83,0,0,1,.53-2.23Z"/><path class="e4cf49c6-bd60-42d2-a855-c0fe972a4849" d="M354.35,187.22a2.67,2.67,0,0,1-1-.18,8.82,8.82,0,0,1-1-.6,2.88,2.88,0,0,1-.82-.85,7.05,7.05,0,0,1-1.2-2.46.17.17,0,0,0-.19-.19L349.06,184l-1.86,1.51a21.39,21.39,0,0,1-1.86,1.39q-.63.38-1.23.69a4.37,4.37,0,0,1-1.29.44,4.49,4.49,0,0,1-1.57.26,1.52,1.52,0,0,1-1.64-1.14l-.5-.94a2,2,0,0,1-.07-1.64,3.33,3.33,0,0,1,.41-1,5.84,5.84,0,0,0,.48-.88l.69-.88a25.9,25.9,0,0,1,1.86-1.92,14.56,14.56,0,0,1,2-1.61l1.08-.63a3.76,3.76,0,0,1,1.89-.5,1,1,0,0,1,.81.31,3.5,3.5,0,0,1,1.07,1.83,1,1,0,0,1-.12.38c-.13.08-.21.08-.25,0l-.44-.38c-.21-.21-.4-.25-.57-.13-.34.09-.67.16-1,.22a3.07,3.07,0,0,0-1,.41,8.16,8.16,0,0,0-2.08,1.52,1.38,1.38,0,0,0-.44.37,9.16,9.16,0,0,0-2.33,2.78,3.18,3.18,0,0,0-.69,1.44c-.09.17,0,.26.13.26a1.19,1.19,0,0,0,.37.06h.32a6.67,6.67,0,0,1,.91-.19,2,2,0,0,0,.85-.31,10.59,10.59,0,0,0,3.28-2.15l1.51-1.26.35-.22a1.18,1.18,0,0,0,.28-.22l1-1.07a11.77,11.77,0,0,0,1-1.19.52.52,0,0,1,.76-.19l.57.28a.93.93,0,0,1,.44.41c0,.17.07.3.09.41a1,1,0,0,1,0,.41c0,.25-.07.52-.09.82a8.64,8.64,0,0,0,0,.88,4.24,4.24,0,0,0,.45,1.95.47.47,0,0,0,.28.16.5.5,0,0,1,.28.16,3.13,3.13,0,0,0,1.83.53,5.36,5.36,0,0,0,1.89-.41,8.59,8.59,0,0,1,.88-.28,3.06,3.06,0,0,0,.88-.41,13.49,13.49,0,0,1,1.39-.95,4.57,4.57,0,0,0,1.26-1.13c.13-.13.35-.39.69-.79a4.54,4.54,0,0,0,.63-.85l.19-.12c0-.05.1-.07.28-.07s.29,0,.29.07l.25.37a1.29,1.29,0,0,1-.28,1.17c-.32.48-.56.83-.73,1a9.39,9.39,0,0,1-3.31,3,8.45,8.45,0,0,1-3.74,1.13c-.09,0-.28,0-.57.07S354.44,187.31,354.35,187.22Z"/><path class="e4cf49c6-bd60-42d2-a855-c0fe972a4849" d="M363.93,181.49a.94.94,0,0,0-.13.41.38.38,0,0,1-.12.28l-.19.45c.21-.13.57-.34,1.1-.63s.87-.51,1-.63v-.07a4.77,4.77,0,0,1,1.1-.56,9.42,9.42,0,0,1,1-.32,10.88,10.88,0,0,1,2.27-.5,3.48,3.48,0,0,1,1.07.06,3.3,3.3,0,0,1,1.26.5,2,2,0,0,1,.91.54c.28.27.56.56.85.85a2.09,2.09,0,0,1,.16.63,2.09,2.09,0,0,0,.16.63,5.61,5.61,0,0,1-.06.88c-.05.25-.11.55-.19.88a4.73,4.73,0,0,1-.63,1,12.52,12.52,0,0,1-.88,1l-1,1-.57.56a1.63,1.63,0,0,1-.57.38,7.43,7.43,0,0,1-.94.51,6.57,6.57,0,0,0-.88.44c-.47.21-.93.4-1.39.57a8.16,8.16,0,0,1-1.58.37,2.5,2.5,0,0,1-1.63.07,4.72,4.72,0,0,1-1.64-.51.3.3,0,0,1-.32-.19s-.06-.08-.06-.25v-.25h.19a3,3,0,0,0,1,.06,11.6,11.6,0,0,0,1.16-.19l.32-.06a1.6,1.6,0,0,0,.6-.22,2.07,2.07,0,0,1,.6-.28,9.57,9.57,0,0,0,1.29-.51,7,7,0,0,0,1.23-.75l.56-.38a4,4,0,0,0,1-.85c.32-.36.64-.71,1-1,.17-.25.33-.5.47-.73A6.37,6.37,0,0,0,372,184a3.17,3.17,0,0,0,.19-.6,1.51,1.51,0,0,0,0-.6l.06-.57a1,1,0,0,0-.63-.75.75.75,0,0,0-.47-.1,1.09,1.09,0,0,1-.47,0,4.19,4.19,0,0,0-1.58.41c-.46.23-1,.47-1.57.73a4.75,4.75,0,0,0-1.58,1l-.69.51c-.46.46-.93,1-1.42,1.54a8,8,0,0,0-1.22,2l-.51,1.38a.18.18,0,0,1-.06.13c-.21.46-.49.55-.82.25a3.76,3.76,0,0,1-.73-.41l-.66-.47a.29.29,0,0,1-.06-.38l.31-1.13a15.36,15.36,0,0,0,.82-2.33l.63-2.4.07-.44h.06l.06-.25a2.14,2.14,0,0,0,.07-.47.73.73,0,0,1,.12-.41.89.89,0,0,0,.28-.54c0-.19.06-.37.1-.53s.17-.62.25-1,.17-.66.25-.91a1.17,1.17,0,0,1,.32-.57,2.08,2.08,0,0,1,.28-.44,1.11,1.11,0,0,0,.16-.7c.08-.25.16-.49.22-.72a1.85,1.85,0,0,1,.28-.6l.19-.5a7.72,7.72,0,0,1,.19-1,3,3,0,0,1,.51-1V172a2.8,2.8,0,0,0,.44-1.07,3.33,3.33,0,0,1,.56-1.26l.38-1.14c.13-.37.25-.73.38-1.07.08-.08.13-.14.13-.19s-.05-.29.12-.63.29-.6.38-.82a4.56,4.56,0,0,1,.19-.63c.13-.37.26-.77.41-1.19s.29-.81.44-1.17l.28-.66a1.73,1.73,0,0,0,.13-.69v-.7a2.35,2.35,0,0,0,.06-1.19c.09-.59.46-.8,1.14-.63l.22.09a1.24,1.24,0,0,0,.34,0,.78.78,0,0,1,.51.51,3.07,3.07,0,0,1,.19.34.88.88,0,0,0,.18.29,1.07,1.07,0,0,1,0,.25.89.89,0,0,0,0,.19c-.08.46-.18.88-.28,1.26a4.25,4.25,0,0,1-.47,1.07l-.45,1.51-.25.57a.93.93,0,0,0,0,.38.23.23,0,0,1,0,.09.65.65,0,0,1-.09.19l-.35.66-.06.38c-.59,1.34-1.13,2.69-1.64,4s-1,2.71-1.45,4.1c-.46,1-.89,2-1.29,3.05a28.88,28.88,0,0,0-1,3.18l-.19.38Z"/><path class="e4cf49c6-bd60-42d2-a855-c0fe972a4849" d="M377.41,191.57a.55.55,0,0,1,.06-.57,1.65,1.65,0,0,0,.13-.66v-.72a2.05,2.05,0,0,1,.09-.91,4.64,4.64,0,0,0,.22-1,2.71,2.71,0,0,1,.13-.82c.08-.25.17-.55.25-.88l.19-1.45a6,6,0,0,0,.35-1.23,6.52,6.52,0,0,1,.34-1.29v-.13c.09-.21.27-.73.54-1.57s.57-1.73.88-2.68.61-1.8.88-2.55a11.41,11.41,0,0,1,.47-1.2q.26-.69.42-1.29a7.58,7.58,0,0,1,.47-1.29,2.53,2.53,0,0,1,.25-.69,6.75,6.75,0,0,0,.31-.76,6.12,6.12,0,0,0,.57-1.32,7.4,7.4,0,0,1,.51-1.26c.08,0,.12-.09.12-.13.25-.71.49-1.41.73-2.08a15.69,15.69,0,0,1,.85-2q.38-.89.72-1.74a13.55,13.55,0,0,0,.6-1.86l.12-.56a1,1,0,0,1,.07-.35.7.7,0,0,0,0-.41c0-.21.21-.38.63-.5a1.86,1.86,0,0,1,.94.12l.82.38a.82.82,0,0,1,.19.28.38.38,0,0,1-.06.35c-.25.84-.54,1.65-.85,2.43s-.64,1.6-1,2.49l-1.45,3.46a.56.56,0,0,0-.06.22.33.33,0,0,1-.13.22c-.16.42-.31.81-.44,1.17a7,7,0,0,1-.5,1.1,9,9,0,0,0-.69,1.8,8.36,8.36,0,0,1-.76,1.79,5.74,5.74,0,0,1-.32.85,5.71,5.71,0,0,0-.31.91c-.09.22-.22.58-.41,1.11s-.39,1.12-.6,1.79l-.63,2c-.21.67-.38,1.24-.5,1.7-.09.29-.18.61-.29.94a6.71,6.71,0,0,0-.22.95c-.08.38-.15.74-.22,1.07a4,4,0,0,1-.34,1c-.17.71-.32,1.35-.44,1.92a5.31,5.31,0,0,0-.13,1.61,4.84,4.84,0,0,1-.13,1.13,4,4,0,0,0-.06,1.2.41.41,0,0,1,0,.31l-.13.32a2.87,2.87,0,0,0,0,1.1,7.69,7.69,0,0,0,.29,1.17l.12.12a.22.22,0,0,0,.07.19.07.07,0,0,0,.12,0,.45.45,0,0,1,.54,0,.53.53,0,0,1,.19.47.91.91,0,0,1-.32.54,1.46,1.46,0,0,1-1,.25,1.81,1.81,0,0,1-1.32-.57,1.48,1.48,0,0,1-.57-.72c-.08-.27-.16-.58-.25-.91a3.19,3.19,0,0,0,0-1.23A7.88,7.88,0,0,1,377.41,191.57Z"/><path class="e4cf49c6-bd60-42d2-a855-c0fe972a4849" d="M390.39,189.37c-.47-.09-.94-.16-1.42-.22a2.3,2.3,0,0,1-1.23-.54,12.65,12.65,0,0,1-1.29-1.51,2.45,2.45,0,0,1-.47-1.83c0-.08,0-.26,0-.53a.86.86,0,0,1,.16-.54l.12-.38c.21-.5.36-.84.44-1s.28-.48.57-.94a13.26,13.26,0,0,1,2.77-3,9.39,9.39,0,0,1,1.14-.85,12.82,12.82,0,0,1,1.38-.79,1.15,1.15,0,0,0,.51-.19,1.27,1.27,0,0,1,1,.06,3.15,3.15,0,0,1,.85.57l.25.63a2.82,2.82,0,0,1-.76,2.46,19.81,19.81,0,0,1-1.48,1.57,21.44,21.44,0,0,1-1.67,1.45,1.66,1.66,0,0,1-.34.25,1.88,1.88,0,0,0-.35.25.74.74,0,0,1-.47.22l-.6.1a.59.59,0,0,1-.88-.19l-.26-.19h-.12a.05.05,0,0,0-.06.06,1.81,1.81,0,0,0-.35,1c0,.38,0,.72,0,1a1.44,1.44,0,0,0,.44.69,1.34,1.34,0,0,0,.6.44,1.8,1.8,0,0,0,.66.13,3.14,3.14,0,0,0,.69.06,9.36,9.36,0,0,1,1.1-.06,3.26,3.26,0,0,0,1.23-.25,25.78,25.78,0,0,0,4.22-1.39c1.26-.54,2.54-1.11,3.85-1.7.67-.33,1.29-.66,1.86-1s1.14-.61,1.73-.91a8,8,0,0,0,.69-.41l.76-.53c.21-.21.32-.31.34-.29a1.58,1.58,0,0,0,.54-.16q.12-.12.09,0a.52.52,0,0,0,0,.29c.05.16.1.36.16.6a.46.46,0,0,1-.16.53c-.29.3-.42.45-.37.47s-.09.16-.38.41a15.24,15.24,0,0,1-1.89,1.2c-.63.34-1.28.71-1.95,1.13-.47.21-.9.42-1.3.63s-.78.4-1.16.57l-2.55,1a16.38,16.38,0,0,1-2.68.85l-1.83.5a7.28,7.28,0,0,1-1.07.23C391.27,189.36,390.89,189.37,390.39,189.37Zm-.82-6.74a11.55,11.55,0,0,0,2-1.52,19.09,19.09,0,0,0,1.83-2,.27.27,0,0,0-.12,0l-.13,0a8.58,8.58,0,0,0-2.05,1.2,4.85,4.85,0,0,0-1.35,1.76S389.65,182.33,389.57,182.63Z"/><path class="e4cf49c6-bd60-42d2-a855-c0fe972a4849" d="M430.52,193.52c0-.08-.09-.15-.13-.22a.51.51,0,0,1-.06-.28,1.59,1.59,0,0,0,0-.91.87.87,0,0,1,0-.79,2.22,2.22,0,0,1,0-.63,2.22,2.22,0,0,0,0-.63.34.34,0,0,0,0-.28.23.23,0,0,1,.06-.29.12.12,0,0,1,0-.09.13.13,0,0,0,0-.1,1.24,1.24,0,0,1,0-.72,3.37,3.37,0,0,0,.09-.73,4.28,4.28,0,0,0,.19-.72c0-.23.09-.47.13-.72a3.86,3.86,0,0,1,.13-.82c.08-.38.16-.8.25-1.26s.18-.94.28-1.42.18-.91.22-1.29c0-.09,0,0-.22.34a1.85,1.85,0,0,0-.28.6,2.65,2.65,0,0,0-.54.66,1.94,1.94,0,0,1-.6.67,11.67,11.67,0,0,1-1.48,1.57c-.52.46-1.06,1-1.6,1.51a8.6,8.6,0,0,1-1.14,1.07c-.38.3-.75.61-1.13,1l-.32.25a5,5,0,0,1-2.39,1.07,4.52,4.52,0,0,1-1.7.07,5,5,0,0,1-.92-.29,1.26,1.26,0,0,1-.59-.66,1.74,1.74,0,0,1-.7-1.2.71.71,0,0,1-.06-.31l.13-1.45a.54.54,0,0,1,.12-.38,1.22,1.22,0,0,0,.25-.88.24.24,0,0,1,.07-.13.62.62,0,0,0,.12-.19,3.25,3.25,0,0,0,.32-.75,7.54,7.54,0,0,1,.25-.76c.21-.29.39-.57.54-.82a4.92,4.92,0,0,1,.53-.75,7.92,7.92,0,0,1,.57-.76,4.88,4.88,0,0,0,.5-.69l.29-.32a2.57,2.57,0,0,0,.28-.44l.12-.06c.3-.29.58-.59.86-.88a3,3,0,0,1,.91-.7l.44-.19.38-.12a.33.33,0,0,1,.31-.13h.82a1.72,1.72,0,0,1,.7.19c.25.13.48.23.69.32a2.23,2.23,0,0,1,.79.85,4.86,4.86,0,0,1,.41,1.1l.31.76c.08.08.06.18-.06.28a1.07,1.07,0,0,1-.38.22,1.2,1.2,0,0,1-.5.13,1,1,0,0,1-.7-.19,2.38,2.38,0,0,0-.19-.41.57.57,0,0,1-.06-.29c-.08-.21-.17-.43-.25-.66a1.42,1.42,0,0,0-.44-.6q-.06-.18,0-.18s0,0-.07-.13a.52.52,0,0,0-.59,0,1.71,1.71,0,0,0-.48.28l-.75.76c-.47.58-.93,1.18-1.39,1.79s-.9,1.23-1.32,1.86c-.21.46-.42,1-.63,1.54a15,15,0,0,0-.51,1.67,2.22,2.22,0,0,1-.06.51,2.47,2.47,0,0,0-.06.56.7.7,0,0,0,0,.6c.08.19.17.37.25.54s.17.17.25.12a.76.76,0,0,1,.32-.06h.19a2.27,2.27,0,0,0,.85-.34,4.92,4.92,0,0,1,.78-.48,28.09,28.09,0,0,0,3.72-3.21,6.75,6.75,0,0,0,.6-.69,6.52,6.52,0,0,1,.66-.76,2.5,2.5,0,0,0,.63-.57c.21-.25.42-.52.63-.82a1.46,1.46,0,0,1,.32-.34c.12-.11.25-.22.37-.35a4,4,0,0,1,.48-.66,2.57,2.57,0,0,0,.47-.79,2.46,2.46,0,0,1,.25-.22.49.49,0,0,0,.19-.28c.13-.21.23-.4.32-.57a2.72,2.72,0,0,1,.31-.5,6.43,6.43,0,0,0,.57-1.45c.16-.76.35-1.51.56-2.27s.45-1.53.7-2.33l.38-1.26c.08-.25.17-.54.28-.85s.22-.64.35-1a1,1,0,0,1,.12-.37,11.82,11.82,0,0,1,.6-2.21,14.69,14.69,0,0,1,.91-1.95c.21-.46.4-.89.57-1.3a9.72,9.72,0,0,0,.44-1.29.58.58,0,0,0,.19-.44,5.09,5.09,0,0,0,.76-1.51c.33-.59.68-1.17,1-1.73s.72-1.15,1.1-1.73a2.43,2.43,0,0,1,.75-.7s0-.06.13-.06l.91.09a7.44,7.44,0,0,1,.92.16,1.13,1.13,0,0,0,.31.1.46.46,0,0,1,.25.09,2.09,2.09,0,0,1,.89,2.08c-.09.59-.19,1.21-.32,1.86a8.36,8.36,0,0,1-.57,1.86.89.89,0,0,0-.06.37c-.17.47-.34.91-.53,1.33s-.39.84-.6,1.26-.42.82-.63,1.19l-.63,1.14c-.25.5-.5,1-.73,1.39s-.49.86-.78,1.32c-.43.75-.86,1.52-1.3,2.3a19.63,19.63,0,0,1-1.54,2.3c-.29.46-.62.93-1,1.41s-.72,1-1.1,1.55a4.65,4.65,0,0,1-.41.69,1.16,1.16,0,0,0-.22.69l-.63,2.84a27.58,27.58,0,0,0-.72,3.87q-.29,2.31-.48,5a.28.28,0,0,0,0,.25.51.51,0,0,1,.07.26c0,.46.08.83.12,1.1s.09.53.13.79.07.4.09.56a1.18,1.18,0,0,0,.29.57c.21.34.33.56.38.66s.25.26.63.47.36.11.34.07.07,0,.29.06.19.22.09.41a1.21,1.21,0,0,1-.35.41c-.21,0-.28,0-.22,0l-.09,0a2.08,2.08,0,0,1-1.26,0,2.22,2.22,0,0,1-1-.57,4.68,4.68,0,0,0-.53-.56A1.67,1.67,0,0,1,431,195q.18-.18,0-.18a1.62,1.62,0,0,1-.32-.95.22.22,0,0,0-.06-.13A.25.25,0,0,1,430.52,193.52Zm4.34-18.89c.34-.55.67-1,1-1.52s.64-.94,1-1.45a4.48,4.48,0,0,1,.28-.47,2.71,2.71,0,0,1,.35-.41c.08-.21.14-.39.19-.53a2.88,2.88,0,0,1,.18-.48c.21-.37.38-.67.51-.88a3.45,3.45,0,0,1,.5-.63A.34.34,0,0,0,439,168v-.19c.42-.8.82-1.61,1.2-2.42l1.19-2.62c.13-.54.26-1.09.38-1.64a16.86,16.86,0,0,1,.51-1.7,1.73,1.73,0,0,0-.07-1.07.05.05,0,0,0-.06-.06h-.19a1.67,1.67,0,0,0-.44.69c-.25.38-.49.79-.73,1.23s-.45.85-.66,1.23c-.59,1.13-1.13,2.2-1.63,3.21a26.64,26.64,0,0,0-1.39,3.34,3.52,3.52,0,0,0-.44.76,2.91,2.91,0,0,0-.19.69c-.29.75-.59,1.53-.88,2.33a18.68,18.68,0,0,0-.7,2.27c-.16.12-.21.33-.12.63h.06Z"/><path class="e4cf49c6-bd60-42d2-a855-c0fe972a4849" d="M444.57,188.8a2.09,2.09,0,0,1-.7-.13l-.88-.25a6.53,6.53,0,0,1-1.38-.91,3.26,3.26,0,0,1-.76-1.48,3.68,3.68,0,0,1-.25-2.33l.56-2q.31-.57.63-1.2a9.67,9.67,0,0,0,.51-1.19s0,0,0-.07a.08.08,0,0,1,0-.12.36.36,0,0,1,.25-.19.41.41,0,0,1,.31,0l.45.22a3.6,3.6,0,0,1,.37.22c.05,0,.07.07.07.09s0,.06.12.1a1.22,1.22,0,0,1,.41.69,1.42,1.42,0,0,1-.28.82l-1.07,2.46c-.13.38-.24.75-.35,1.13a2.44,2.44,0,0,0,0,1.14,1.18,1.18,0,0,0,1.1,1.22,6.58,6.58,0,0,0,1.92,0,12.89,12.89,0,0,0,2-.48,19.53,19.53,0,0,0,2.11-.82c.69-.31,1.34-.65,1.95-1a14.07,14.07,0,0,0,1.54-1c.26-.21.4-.34.44-.38a.22.22,0,0,1,.13-.06.43.43,0,0,0,.19-.1l.63-.47a4.9,4.9,0,0,1,.57-.47,4.56,4.56,0,0,0,.56-.48,3.06,3.06,0,0,0,.6-.41l.69-.53a2,2,0,0,1,.64-.32.44.44,0,0,1,.47.19.66.66,0,0,1-.06.6.61.61,0,0,0,0,.66l-.13.38c-.09.21-.19.34-.32.38a4.13,4.13,0,0,1-.5.12c-.29.26-.57.49-.82.7a7.61,7.61,0,0,0-.76.75c-.42.34-.75.59-1,.76s-.48.33-.66.47a4.89,4.89,0,0,1-.6.41c-.21.13-.47.3-.76.51,0,0-.1.08-.31.12a.9.9,0,0,0-.38.13,2.41,2.41,0,0,1-1,.69c-.38.13-.88.34-1.51.63s-1.36.38-2.18.63A5.48,5.48,0,0,1,444.57,188.8Zm.56-14.3a1.43,1.43,0,0,0-.31-.13.62.62,0,0,1-.19-.12l-.19-.19a1.54,1.54,0,0,1-.19-1.14l.25-1a2.75,2.75,0,0,1,.51-1c0-.21,0-.28.12-.19a1.42,1.42,0,0,1,.63-.19,2.8,2.8,0,0,1,1.07.69c.21.13.31.27.29.41s-.06.33-.1.54a.4.4,0,0,1-.06.22l-.13.22a4.9,4.9,0,0,0-.75,1.2c.12.08.1.14-.06.19A1,1,0,0,1,445.13,174.5Z"/><path class="e4cf49c6-bd60-42d2-a855-c0fe972a4849" d="M444.06,213.05a4.4,4.4,0,0,1,0-1.54,12.06,12.06,0,0,1,.41-1.42,15,15,0,0,1,.76-2c.29-.66.61-1.32.94-2s.84-1.31,1.26-1.92.86-1.23,1.33-1.86c.21-.29.42-.57.63-.82s.44-.5.69-.75a1.18,1.18,0,0,1,.31-.32,1.18,1.18,0,0,0,.32-.31l.5-.7a.26.26,0,0,0,.16-.15.25.25,0,0,1,.16-.16,5.07,5.07,0,0,0,.88-.85,11.74,11.74,0,0,1,.82-.92,10.76,10.76,0,0,0,.85-.81c.27-.3.54-.59.79-.89l.56-.44a5.94,5.94,0,0,1,.7-.6,3.9,3.9,0,0,0,.69-.66.77.77,0,0,1,.31-.25,6.8,6.8,0,0,0,.76-.63,2.27,2.27,0,0,1,.95-.82,3.62,3.62,0,0,0,1.13-.94l.25-.13,3.34-2.46a6.41,6.41,0,0,0,1-.56c.29-.21.6-.42.94-.63a.73.73,0,0,0,.25-.51,3.31,3.31,0,0,1,.13-.82c0-.21.11-.5.22-.88s.21-.76.31-1.16.2-.78.29-1.14a4.06,4.06,0,0,0,.12-.85,1.33,1.33,0,0,0,0-.63s0-.13,0-.28,0-.2,0-.16a5,5,0,0,0-1.26.95,3.36,3.36,0,0,1-.5.5l-.57.44-1.07.95a1,1,0,0,0-.32.31,2.59,2.59,0,0,1-.31.38l-1.32,1.26a8.59,8.59,0,0,0-1,.79,8.2,8.2,0,0,1-1,.72c-.34.21-.67.41-1,.6s-.67.37-1,.53a1.28,1.28,0,0,1-.69.19,2.58,2.58,0,0,0-.76.13,1.54,1.54,0,0,0-.5-.16.72.72,0,0,1-.44-.22l-.63-.75a1.79,1.79,0,0,1-.38-1.77,8.27,8.27,0,0,1,.63-1.7l1.14-1.64a3.55,3.55,0,0,1,.47-.5,1.84,1.84,0,0,0,.41-.51.37.37,0,0,1,.25-.25l1.39-1.38a10.85,10.85,0,0,1,1.51-1.26l2-1.26,1.64-.63a2,2,0,0,1,1.7.31,1.66,1.66,0,0,1,.48.41c.1.15.22.31.34.47a.62.62,0,0,1,.16.22,1.28,1.28,0,0,0,.09.22.53.53,0,0,1,.16.29.5.5,0,0,0,.16.28,1.64,1.64,0,0,0,.25.22,1.75,1.75,0,0,0,.25.16c.21.13.44.25.7.38a2.28,2.28,0,0,1,.63.44,1.92,1.92,0,0,1,.5,1.07,6,6,0,0,1-.06,1c-.05.17-.11.41-.19.72s-.17.66-.25,1-.16.74-.22,1.07a4,4,0,0,0-.1.76V186l.25-.12q.63-.32,1.2-.63c.38-.21.76-.4,1.13-.57a4.19,4.19,0,0,1,.82-.41,7,7,0,0,0,.82-.34,11.48,11.48,0,0,1,1.23-.51c.27-.08.7-.23,1.29-.44l.25-.06a1.41,1.41,0,0,0,.32-.07,4.21,4.21,0,0,0,.94-.34,2.07,2.07,0,0,1,.95-.22.49.49,0,0,1,.35.25.65.65,0,0,0,.34.31l-.06.51c0,.12,0,.19-.06.19a1.49,1.49,0,0,1-.51.25,9.34,9.34,0,0,0-1.76.6c-.76.31-1.32.56-1.7.72a3.24,3.24,0,0,1-.44.16.31.31,0,0,0-.19.1.51.51,0,0,1-.16.09l-.41.16-.57.31c-.75.38-1.51.77-2.26,1.17s-1.5.83-2.21,1.29a1.22,1.22,0,0,0-.38.69c-.08.34-.16.63-.22.88s-.11.55-.16.89l-.12.63c0,.21-.09.44-.13.69l-.63,2.52-.25,1.13a3,3,0,0,1-.16.57,3.92,3.92,0,0,0-.15.57,8.5,8.5,0,0,1-.57,1.7c-.13.25-.24.49-.35.72a2.15,2.15,0,0,0-.16.85,1,1,0,0,1-.12.38,15.23,15.23,0,0,0-.85,2,14,14,0,0,1-.85,2l-.13.19a8.25,8.25,0,0,1-.44,1.16,5.88,5.88,0,0,1-.63,1,9.93,9.93,0,0,1-.72,1.42l-.85,1.36c-.22.33-.41.66-.6,1a5.08,5.08,0,0,1-.73.92.11.11,0,0,0-.12.12,9.24,9.24,0,0,1-1.61,1.89c-.61.55-1.25,1.09-1.92,1.64a5.63,5.63,0,0,1-1.07.85,12.3,12.3,0,0,1-1.26.66l-1.26.57a5.55,5.55,0,0,1-.73.35,2.41,2.41,0,0,1-.85.15h-.06a2.38,2.38,0,0,1-1,.16,5.18,5.18,0,0,1-3.78-2l-.25-.51a7.84,7.84,0,0,1-.38-1.23A3.18,3.18,0,0,1,444.06,213.05Zm4.1,3.09a9.78,9.78,0,0,0,1-.09,5.55,5.55,0,0,0,1-.22l.31-.19c.34-.21.68-.41,1-.6a9.1,9.1,0,0,0,1-.6,2.33,2.33,0,0,0,.69-.38.35.35,0,0,1,.16-.09.78.78,0,0,0,.22-.16l1.38-1.26a3.74,3.74,0,0,0,.63-.63l.57-.69c.21-.3.41-.57.6-.82a6.75,6.75,0,0,1,.6-.69,11.35,11.35,0,0,0,1.07-1.64,4,4,0,0,1,.69-1.07c.13-.3.25-.61.38-.95a5.92,5.92,0,0,1,.5-1c.09-.08.13-.14.13-.19a.46.46,0,0,1,.06-.18,1.74,1.74,0,0,0,.1-.32,1,1,0,0,1,.15-.38,9.33,9.33,0,0,0,.57-1.23q.26-.66.57-1.35c.08-.25.17-.52.25-.79a3.39,3.39,0,0,1,.31-.72,2.07,2.07,0,0,0,.26-.66,2.53,2.53,0,0,1,.25-.73l.25-.94.25-1.07a5.51,5.51,0,0,0,.38-1.17,9.18,9.18,0,0,1,.32-1.17,2.14,2.14,0,0,0,.12-.63l.25-1.44.32-1.33v-.25l-.13-.12a.17.17,0,0,1-.12.06c-.05,0-.07,0-.07.06l-1.45,1c-.54.38-1.1.78-1.66,1.2a19.38,19.38,0,0,0-1.67,1.38l-1.2,1L457,196.2q-.63.54-1.26,1.17l-1.2,1.26-1.26,1.13L452.12,201a15,15,0,0,1-1.07,1.32c-.37.42-.73.87-1.07,1.33s-.6.92-.91,1.38a16.24,16.24,0,0,0-.85,1.39,8.17,8.17,0,0,0-1,1.67c-.25.57-.52,1.16-.82,1.79l-.12.38a5.65,5.65,0,0,0-.19.89c0,.29-.09.56-.13.81a4.34,4.34,0,0,0-.06,1.7,1.21,1.21,0,0,1,.06.45c-.13.21-.08.41.13.63a3.12,3.12,0,0,0,.44.59l.56.6.29.13a.93.93,0,0,0,.34.06Zm15.62-36.79a1.65,1.65,0,0,0-.63,0,4.74,4.74,0,0,0-.57.19l-.69.31c-.13,0-.19,0-.19.07l-1.45.94a5.15,5.15,0,0,0-1.26,1.2l-1.38,1.2a8.46,8.46,0,0,0-.63.91c-.17.27-.36.56-.57.85l-.38.69a.75.75,0,0,0-.06.7.11.11,0,0,0,.12.12,1.36,1.36,0,0,0,.82-.19,7.08,7.08,0,0,0,1.77-.94,3.52,3.52,0,0,0,.56-.41c.17-.15.36-.31.57-.47a2.18,2.18,0,0,0,.44-.32,3,3,0,0,0,.57-.47,7.07,7.07,0,0,1,.5-.54,7.54,7.54,0,0,0,.73-.53l.72-.6.47-.57a2.36,2.36,0,0,1,.54-.44,1.07,1.07,0,0,0,.44-.41,2.76,2.76,0,0,1,.38-.47c.13,0,.13-.06,0-.19a1.39,1.39,0,0,0-.5-.5l-.26-.13Z"/><path class="e4cf49c6-bd60-42d2-a855-c0fe972a4849" d="M480.54,188.8a2.13,2.13,0,0,1-.7-.13l-.88-.25a6.53,6.53,0,0,1-1.38-.91,3.26,3.26,0,0,1-.76-1.48,3.68,3.68,0,0,1-.25-2.33l.57-2q.32-.57.63-1.2a9.53,9.53,0,0,0,.5-1.19s0,0,0-.07a.07.07,0,0,1,0-.12.39.39,0,0,1,.25-.19.44.44,0,0,1,.32,0l.44.22.38.22s.06.07.06.09,0,.06.12.1a1.17,1.17,0,0,1,.41.69,1.35,1.35,0,0,1-.28.82l-1.07,2.46c-.13.38-.24.75-.35,1.13a2.44,2.44,0,0,0,0,1.14,1.18,1.18,0,0,0,1.1,1.22,6.64,6.64,0,0,0,1.93,0,13.08,13.08,0,0,0,1.95-.48,18.76,18.76,0,0,0,2.11-.82c.69-.31,1.34-.65,1.95-1a14.29,14.29,0,0,0,1.55-1l.44-.38a.17.17,0,0,1,.12-.06.43.43,0,0,0,.19-.1l.63-.47a6,6,0,0,1,.57-.47,5.8,5.8,0,0,0,.57-.48,3.37,3.37,0,0,0,.59-.41l.7-.53a1.87,1.87,0,0,1,.63-.32.43.43,0,0,1,.47.19.66.66,0,0,1-.06.6.61.61,0,0,0,0,.66l-.13.38a.59.59,0,0,1-.31.38l-.51.12c-.29.26-.57.49-.82.7a6.63,6.63,0,0,0-.75.75c-.42.34-.76.59-1,.76l-.66.47a4.89,4.89,0,0,1-.6.41c-.21.13-.46.3-.76.51,0,0-.1.08-.31.12a.9.9,0,0,0-.38.13,2.35,2.35,0,0,1-1,.69c-.38.13-.88.34-1.51.63s-1.35.38-2.17.63A5.54,5.54,0,0,1,480.54,188.8Zm.56-14.3a1.25,1.25,0,0,0-.31-.13.62.62,0,0,1-.19-.12l-.19-.19a1.54,1.54,0,0,1-.19-1.14l.25-1a2.92,2.92,0,0,1,.51-1c0-.21,0-.28.12-.19a1.49,1.49,0,0,1,.64-.19,3,3,0,0,1,1.07.69c.21.13.3.27.28.41a5.37,5.37,0,0,1-.1.54.4.4,0,0,1-.06.22,2.18,2.18,0,0,0-.12.22,4.64,4.64,0,0,0-.76,1.2c.13.08.1.14-.06.19A1,1,0,0,1,481.1,174.5Z"/><path class="e4cf49c6-bd60-42d2-a855-c0fe972a4849" d="M493,178.72a5.86,5.86,0,0,1,.16-.69c.06-.21.11-.42.16-.63,0,0,0-.08.12-.35s.19-.62.32-1,.25-.85.37-1.29a11.33,11.33,0,0,1,.38-1.1,5.76,5.76,0,0,0,.38-1,6.1,6.1,0,0,1,.38-1,4.77,4.77,0,0,0,.31-.56c.13-.26.26-.53.38-.82s.23-.57.32-.82a2.06,2.06,0,0,0,.12-.57l-.06.07h-.06c-.09-.09-.15-.07-.19.06l-1.14.38-1.76.63a1.61,1.61,0,0,1-.41.12h-.13l-.09,0-.32.16a4.09,4.09,0,0,1-.72.22l-.91.22a.94.94,0,0,1-.57-.25c-.17-.08-.2-.22-.1-.41s.14-.3.1-.35l-.06-.06c-.05-.29,0-.46.22-.5a2.58,2.58,0,0,1,.53-.07l1.26-.44a.75.75,0,0,0,.13-.16c0-.06.12,0,.25,0a3.44,3.44,0,0,1,.82-.32,1,1,0,0,1,.38-.12,2.26,2.26,0,0,1,.78-.35c.28-.06.54-.12.79-.16l.25-.12a.51.51,0,0,1,.26-.07,3.47,3.47,0,0,0,.56-.15l.57-.23c.29-.12.44-.23.44-.31a.22.22,0,0,1,.06-.13v-.06l.38-.94,2.77-7.06a1.36,1.36,0,0,0,.13-.35c0-.14.11-.32.19-.53l.19-.32c.08-.21.33-.31.75-.31a1.5,1.5,0,0,1,.95.25c0,.08.09.19.16.31a2.08,2.08,0,0,0,.22.38,2.16,2.16,0,0,1,.12.38.55.55,0,0,1-.06.44,39,39,0,0,0-1.83,3.66c-.5,1.17-1.05,2.41-1.63,3.71-.09.09-.08.12,0,.1a.25.25,0,0,1,.22,0c.88-.21,1.56-.36,2.05-.44s1.12-.23,1.92-.44a1.46,1.46,0,0,0,.69-.16.62.62,0,0,1,.63,0,.54.54,0,0,1,.32,0,.32.32,0,0,0,.31-.1,1.53,1.53,0,0,1,1.13.07.45.45,0,0,1,.38-.07.85.85,0,0,1,.73,0,1.78,1.78,0,0,0,.78.16c.09,0,.12,0,.1.06s0,.13,0,.13.2,0,.22.09,0,.1-.09.1-.3.18-.26.28,0,.16,0,.16a5.78,5.78,0,0,1-.94.16,3.24,3.24,0,0,0-.95.22,5.41,5.41,0,0,0-.59,0,2.06,2.06,0,0,0-.6.16l-.25.12A4.13,4.13,0,0,0,504,167a15.38,15.38,0,0,1-1.54.35,5.37,5.37,0,0,0-.6.22l-.53.22-1.07.19-.95.31c-.21,0-.32,0-.35.13a.56.56,0,0,1-.15.25,1.61,1.61,0,0,0-.22.5c-.11.3-.21.61-.32,1a7.36,7.36,0,0,1-.35.94c-.12.3-.21.49-.25.57-.5,1.47-1,2.86-1.51,4.16s-.94,2.63-1.32,4a41.35,41.35,0,0,0-.95,4.31,31.14,31.14,0,0,0-.38,5c0,1,0,1.74.07,2.18a3.58,3.58,0,0,0,.16.91.68.68,0,0,0,.18.32.7.7,0,0,1,.22.31,1.4,1.4,0,0,1,.67.29.88.88,0,0,1,.34.47.47.47,0,0,1-.16.47,1.19,1.19,0,0,1-.85.22.36.36,0,0,1-.25-.13,4.91,4.91,0,0,1-1.1-.47,1.78,1.78,0,0,1-.47-.79,5.39,5.39,0,0,1-.6-2.39c-.06-1-.1-1.89-.1-2.65l.13-2.33a4.37,4.37,0,0,1,.06-.88c.05-.17.11-.46.19-.88a19.46,19.46,0,0,1,.35-2.24c.19-.94.37-1.69.53-2.23Z"/><path class="e4cf49c6-bd60-42d2-a855-c0fe972a4849" d="M516.64,187.22a2.64,2.64,0,0,1-1-.18,8.12,8.12,0,0,1-1-.6,2.88,2.88,0,0,1-.82-.85,7.23,7.23,0,0,1-1.2-2.46.17.17,0,0,0-.19-.19L511.34,184c-.63.51-1.25,1-1.85,1.51a21.39,21.39,0,0,1-1.86,1.39q-.63.38-1.23.69a4.37,4.37,0,0,1-1.29.44,4.59,4.59,0,0,1-1.58.26,1.52,1.52,0,0,1-1.64-1.14l-.5-.94a2,2,0,0,1-.06-1.64,3.08,3.08,0,0,1,.41-1,6.8,6.8,0,0,0,.47-.88l.69-.88q.89-1,1.86-1.92a14.08,14.08,0,0,1,2.05-1.61l1.07-.63a3.82,3.82,0,0,1,1.89-.5,1,1,0,0,1,.82.31,3.64,3.64,0,0,1,1.07,1.83.93.93,0,0,1-.13.38c-.12.08-.21.08-.25,0l-.44-.38c-.21-.21-.4-.25-.57-.13-.33.09-.67.16-1,.22a3,3,0,0,0-1,.41,8,8,0,0,0-2.08,1.52,1.2,1.2,0,0,0-.44.37,9.19,9.19,0,0,0-2.34,2.78,3.18,3.18,0,0,0-.69,1.44c-.08.17,0,.26.13.26a1.21,1.21,0,0,0,.38.06h.31a6.67,6.67,0,0,1,.91-.19,2.12,2.12,0,0,0,.86-.31,10.66,10.66,0,0,0,3.27-2.15l1.51-1.26.35-.22a1.18,1.18,0,0,0,.28-.22l1-1.07a13.28,13.28,0,0,0,1-1.19.51.51,0,0,1,.75-.19l.57.28a.89.89,0,0,1,.44.41c0,.17.07.3.1.41a1.06,1.06,0,0,1,0,.41c0,.25-.07.52-.09.82s0,.59,0,.88a4.23,4.23,0,0,0,.44,1.95.5.5,0,0,0,.28.16.53.53,0,0,1,.29.16,3.08,3.08,0,0,0,1.82.53,5.36,5.36,0,0,0,1.89-.41c.34-.12.63-.22.88-.28a3.1,3.1,0,0,0,.89-.41,12.5,12.5,0,0,1,1.38-.95,4.57,4.57,0,0,0,1.26-1.13c.13-.13.36-.39.69-.79a4.54,4.54,0,0,0,.63-.85l.19-.12c0-.05.1-.07.29-.07s.28,0,.28.07l.25.37a1.29,1.29,0,0,1-.28,1.17c-.31.48-.56.83-.73,1a9.45,9.45,0,0,1-3.3,3,8.53,8.53,0,0,1-3.75,1.13c-.09,0-.27,0-.57.07S516.72,187.31,516.64,187.22Z"/><path class="e4cf49c6-bd60-42d2-a855-c0fe972a4849" d="M522.49,191.57a.53.53,0,0,1,.07-.57,1.84,1.84,0,0,0,.12-.66v-.72a1.93,1.93,0,0,1,.1-.91,5.36,5.36,0,0,0,.22-1,2.71,2.71,0,0,1,.12-.82c.09-.25.17-.55.26-.88l.19-1.45a6,6,0,0,0,.34-1.23,6.59,6.59,0,0,1,.35-1.29v-.13c.08-.21.26-.73.53-1.57s.57-1.73.89-2.68.6-1.8.88-2.55a9.24,9.24,0,0,1,.47-1.2c.17-.46.3-.89.41-1.29a7.58,7.58,0,0,1,.47-1.29,2.91,2.91,0,0,1,.25-.69,6.87,6.87,0,0,0,.32-.76,7.31,7.31,0,0,0,.57-1.32,7.34,7.34,0,0,1,.5-1.26c.08,0,.13-.09.13-.13.25-.71.49-1.41.72-2.08a15.69,15.69,0,0,1,.85-2l.73-1.74a12.33,12.33,0,0,0,.59-1.86l.13-.56a1,1,0,0,1,.06-.35.7.7,0,0,0,0-.41c0-.21.21-.38.63-.5a1.9,1.9,0,0,1,1,.12l.82.38a1.26,1.26,0,0,1,.19.28.36.36,0,0,1-.07.35,25.74,25.74,0,0,1-.85,2.43c-.31.77-.64,1.6-1,2.49L532,167.19a.46.46,0,0,0-.07.22.35.35,0,0,1-.12.22c-.17.42-.32.81-.44,1.17a8.17,8.17,0,0,1-.51,1.1,10.41,10.41,0,0,0-.69,1.8,7.89,7.89,0,0,1-.76,1.79,4.78,4.78,0,0,1-.31.85,5.72,5.72,0,0,0-.32.91c-.08.22-.22.58-.41,1.11s-.38,1.12-.59,1.79l-.63,2c-.22.67-.38,1.24-.51,1.7-.08.29-.18.61-.28.94a5.57,5.57,0,0,0-.22.95c-.09.38-.16.74-.22,1.07a4,4,0,0,1-.35,1c-.17.71-.31,1.35-.44,1.92a5.31,5.31,0,0,0-.13,1.61,5.43,5.43,0,0,1-.12,1.13,3.67,3.67,0,0,0-.07,1.2.34.34,0,0,1,0,.31,2.76,2.76,0,0,0-.12.32,2.52,2.52,0,0,0,0,1.1,6.65,6.65,0,0,0,.28,1.17l.13.12a.25.25,0,0,0,.06.19.09.09,0,0,0,.13,0,.43.43,0,0,1,.53,0,.51.51,0,0,1,.19.47.89.89,0,0,1-.31.54,1.48,1.48,0,0,1-1,.25,1.78,1.78,0,0,1-1.32-.57,1.37,1.37,0,0,1-.57-.72c-.08-.27-.17-.58-.25-.91a3.64,3.64,0,0,0,0-1.23A7.92,7.92,0,0,1,522.49,191.57Z"/><path class="e4cf49c6-bd60-42d2-a855-c0fe972a4849" d="M561.93,187.22a2.67,2.67,0,0,1-1-.18,8.82,8.82,0,0,1-1-.6,2.88,2.88,0,0,1-.82-.85,7.05,7.05,0,0,1-1.2-2.46.17.17,0,0,0-.19-.19L556.64,184l-1.86,1.51a21.39,21.39,0,0,1-1.86,1.39q-.63.38-1.23.69a4.37,4.37,0,0,1-1.29.44,4.49,4.49,0,0,1-1.57.26,1.52,1.52,0,0,1-1.64-1.14l-.5-.94a2,2,0,0,1-.07-1.64,3.33,3.33,0,0,1,.41-1,5.84,5.84,0,0,0,.48-.88l.69-.88a25.9,25.9,0,0,1,1.86-1.92,14.56,14.56,0,0,1,2-1.61l1.08-.63a3.76,3.76,0,0,1,1.89-.5,1,1,0,0,1,.81.31,3.5,3.5,0,0,1,1.07,1.83,1,1,0,0,1-.12.38c-.13.08-.21.08-.25,0l-.44-.38c-.21-.21-.4-.25-.57-.13-.34.09-.67.16-1,.22a3.07,3.07,0,0,0-1,.41,8.16,8.16,0,0,0-2.08,1.52,1.38,1.38,0,0,0-.44.37,9.16,9.16,0,0,0-2.33,2.78A3.18,3.18,0,0,0,548,186c-.09.17,0,.26.13.26a1.19,1.19,0,0,0,.37.06h.32a6.67,6.67,0,0,1,.91-.19,2,2,0,0,0,.85-.31,10.59,10.59,0,0,0,3.28-2.15l1.51-1.26.35-.22a1.18,1.18,0,0,0,.28-.22l1-1.07a11.77,11.77,0,0,0,1-1.19.52.52,0,0,1,.76-.19l.57.28a.93.93,0,0,1,.44.41c0,.17.07.3.09.41a1,1,0,0,1,0,.41c0,.25-.07.52-.09.82a8.64,8.64,0,0,0,0,.88,4.24,4.24,0,0,0,.45,1.95.47.47,0,0,0,.28.16.5.5,0,0,1,.28.16,3.13,3.13,0,0,0,1.83.53,5.36,5.36,0,0,0,1.89-.41,8.59,8.59,0,0,1,.88-.28,3.06,3.06,0,0,0,.88-.41,13.49,13.49,0,0,1,1.39-.95,4.57,4.57,0,0,0,1.26-1.13c.13-.13.35-.39.69-.79a4.54,4.54,0,0,0,.63-.85l.19-.12c0-.05.1-.07.28-.07s.29,0,.29.07l.25.37a1.29,1.29,0,0,1-.28,1.17c-.32.48-.56.83-.73,1a9.39,9.39,0,0,1-3.31,3,8.45,8.45,0,0,1-3.74,1.13c-.09,0-.28,0-.57.07S562,187.31,561.93,187.22Z"/><path class="e4cf49c6-bd60-42d2-a855-c0fe972a4849" d="M578.06,178.53a.44.44,0,0,1,0,.19.47.47,0,0,0,0,.19.22.22,0,0,1-.13.19c-.08,0-.15,0-.19,0a.17.17,0,0,1-.12-.06,1.27,1.27,0,0,0-.7-.29,3.86,3.86,0,0,0-.82,0q-.94.25-1.92.57a9.65,9.65,0,0,0-1.86.82A6.16,6.16,0,0,0,571,181c-.25.21-.21.38.13.5a.88.88,0,0,0,.38.13c.25.08.5.16.75.22s.53.13.82.22a10.09,10.09,0,0,1,1.11.31c.35.13.72.26,1.1.38a2.51,2.51,0,0,0,.69.22,1.7,1.7,0,0,1,.69.35,1.14,1.14,0,0,0,.76.19c.67-.17,1.39-.32,2.14-.44a4.38,4.38,0,0,1,.73-.19l.78-.13a4.62,4.62,0,0,0,.76-.12l1.2-.29,1.19-.28a4,4,0,0,1,.76-.13,1.26,1.26,0,0,0,.38-.06,1.21,1.21,0,0,1,.38-.06c.21-.13.33-.15.37-.07l1-.15c.42-.07.67,0,.76.22.25.21.33.39.25.53a.8.8,0,0,1-.44.35,3.37,3.37,0,0,1-.73.19,4.7,4.7,0,0,1-.66.06,2.74,2.74,0,0,0-.85.13l-.78.25-3.6.82c-.37.08-.88.22-1.51.41a3.26,3.26,0,0,0-1.13.47c-.13.08-.12.22,0,.41a1.67,1.67,0,0,1,.28.47.89.89,0,0,1,.1.47,2.37,2.37,0,0,0,0,.41,4.91,4.91,0,0,1-.22,1.11,4.22,4.22,0,0,1-.79,1.1,7.72,7.72,0,0,1-1.23,1.2c-.44.33-.89.67-1.35,1a15.5,15.5,0,0,1-3.16,1.64.33.33,0,0,1-.25.13,11.09,11.09,0,0,0-1.29.31,4,4,0,0,1-1.23.19.71.71,0,0,0-.31.06.5.5,0,0,1-.25.07,3.42,3.42,0,0,1-1,0,2.5,2.5,0,0,1-1-.41,1.77,1.77,0,0,1-.47-.41,2.72,2.72,0,0,1-.28-.54l-.19-.94a.45.45,0,0,1,.12-.32,3.79,3.79,0,0,1,.89-1.51q.69-.63,1.35-1.17a11.09,11.09,0,0,1,1.42-1,4.78,4.78,0,0,0,.69-.44,2,2,0,0,1,.76-.38.45.45,0,0,1,.19-.06.19.19,0,0,0,.12-.07c.59-.33,1.19-.65,1.8-.94a16.81,16.81,0,0,1,1.79-.76c.09,0,.13,0,.13-.12s-.06,0-.06,0,0,.07-.07,0l-1.16-.41a9.61,9.61,0,0,0-1.17-.35l-1.2-.31a2.48,2.48,0,0,1-.88-.32,2,2,0,0,1-1.38-1.95,1.73,1.73,0,0,1,.56-1.7c.13-.13.26-.24.38-.35a4.61,4.61,0,0,1,.38-.28,7.48,7.48,0,0,1,1.48-.85l1.54-.66a16.16,16.16,0,0,1,2.59-.7l.28,0,.28,0a.87.87,0,0,1,1,.5,1,1,0,0,0,.13.32A1,1,0,0,1,578.06,178.53ZM568.11,192a3.36,3.36,0,0,0,.63-.06l.63-.13a14,14,0,0,0,2.64-.88l.63-.38a4.58,4.58,0,0,1,.63-.31l.44-.32,1.58-1.07a9.38,9.38,0,0,0,1.76-1.7.46.46,0,0,0,.13-.35.8.8,0,0,1,.06-.34c.08-.09.1-.11,0-.07s0,0,0-.06a1.06,1.06,0,0,0-.19-.44c-.12-.21-.23-.3-.31-.25a12.45,12.45,0,0,0-1.51.69c-.47.25-1,.5-1.51.76a2.57,2.57,0,0,0-.6.34,2.29,2.29,0,0,1-.6.35l-.38.19-1.32.75a.74.74,0,0,1-.32.19,1,1,0,0,0-.31.19c-.25.21-.52.41-.79.6s-.53.39-.79.6a4.8,4.8,0,0,0-1.26,1.45l.07.12A3.19,3.19,0,0,0,568.11,192Z"/><path class="e4cf49c6-bd60-42d2-a855-c0fe972a4849" d="M595.57,178.53a.44.44,0,0,1,0,.19.47.47,0,0,0,0,.19.2.2,0,0,1-.13.19q-.12.06-.18,0a.18.18,0,0,1-.13-.06,1.24,1.24,0,0,0-.69-.29,3.82,3.82,0,0,0-.82,0q-.94.25-1.92.57a9.14,9.14,0,0,0-1.86.82,5.67,5.67,0,0,0-1.26.82c-.25.21-.21.38.12.5a.93.93,0,0,0,.38.13c.25.08.51.16.76.22l.82.22a10.57,10.57,0,0,1,1.1.31c.36.13.72.26,1.1.38a2.74,2.74,0,0,0,.69.22,1.78,1.78,0,0,1,.7.35,1.1,1.1,0,0,0,.75.19c.67-.17,1.39-.32,2.15-.44a4.28,4.28,0,0,1,.72-.19l.79-.13a4.56,4.56,0,0,0,.75-.12l1.2-.29,1.2-.28a4.06,4.06,0,0,1,.75-.13,1.21,1.21,0,0,0,.38-.06,1.26,1.26,0,0,1,.38-.06c.21-.13.34-.15.38-.07l1-.15c.42-.07.67,0,.75.22.25.21.34.39.25.53a.8.8,0,0,1-.44.35,3.43,3.43,0,0,1-.72.19,5,5,0,0,1-.66.06,2.65,2.65,0,0,0-.85.13l-.79.25-3.59.82c-.38.08-.88.22-1.51.41A3.45,3.45,0,0,0,596,185c-.12.08-.11.22,0,.41a2.06,2.06,0,0,1,.29.47,1,1,0,0,1,.09.47,2.37,2.37,0,0,0,0,.41,4.41,4.41,0,0,1-.22,1.11,4.22,4.22,0,0,1-.79,1.1,7.72,7.72,0,0,1-1.23,1.2c-.44.33-.89.67-1.35,1a14.36,14.36,0,0,1-1.55.92,16.32,16.32,0,0,1-1.6.72.36.36,0,0,1-.25.13,10.18,10.18,0,0,0-1.29.31,4,4,0,0,1-1.23.19.76.76,0,0,0-.32.06.47.47,0,0,1-.25.07,3.42,3.42,0,0,1-1,0,2.46,2.46,0,0,1-.94-.41,1.83,1.83,0,0,1-.48-.41,3.37,3.37,0,0,1-.28-.54l-.19-.94a.42.42,0,0,1,.13-.32,3.77,3.77,0,0,1,.88-1.51q.69-.63,1.35-1.17a11.84,11.84,0,0,1,1.42-1,4.78,4.78,0,0,0,.69-.44,2.09,2.09,0,0,1,.76-.38.49.49,0,0,1,.19-.06.24.24,0,0,0,.13-.07c.58-.33,1.18-.65,1.79-.94a16.94,16.94,0,0,1,1.8-.76.11.11,0,0,0,.12-.12q-.06-.08-.06,0t-.06,0l-1.17-.41a10,10,0,0,0-1.16-.35l-1.2-.31a2.35,2.35,0,0,1-.88-.32,2,2,0,0,1-1.39-1.95,1.74,1.74,0,0,1,.57-1.7,4.14,4.14,0,0,1,.38-.35,4.5,4.5,0,0,1,.37-.28,8.09,8.09,0,0,1,1.48-.85l1.55-.66a15.8,15.8,0,0,1,2.58-.7l.28,0,.29,0a.87.87,0,0,1,1,.5,1.08,1.08,0,0,0,.12.32A1,1,0,0,1,595.57,178.53Zm-10,13.42a3.36,3.36,0,0,0,.63-.06l.63-.13a14.12,14.12,0,0,0,2.65-.88l.63-.38a3.68,3.68,0,0,1,.63-.31l.44-.32,1.57-1.07a9.74,9.74,0,0,0,1.77-1.7.5.5,0,0,0,.12-.35.8.8,0,0,1,.06-.34c.09-.09.1-.11,0-.07s-.06,0,0-.06a1.23,1.23,0,0,0-.19-.44c-.13-.21-.23-.3-.32-.25a13.2,13.2,0,0,0-1.51.69c-.46.25-1,.5-1.51.76a2.57,2.57,0,0,0-.6.34,2.29,2.29,0,0,1-.6.35l-.38.19-1.32.75a.71.71,0,0,1-.31.19,1,1,0,0,0-.32.19,9.63,9.63,0,0,1-.79.6q-.4.28-.78.6a4.55,4.55,0,0,0-1.26,1.45l.06.12A3.49,3.49,0,0,0,585.62,192Z"/><path class="e4cf49c6-bd60-42d2-a855-c0fe972a4849" d="M606.72,189.37c-.46-.09-.93-.16-1.41-.22a2.24,2.24,0,0,1-1.23-.54,12.65,12.65,0,0,1-1.29-1.51,2.5,2.5,0,0,1-.48-1.83c0-.08,0-.26,0-.53a.94.94,0,0,1,.15-.54l.13-.38c.21-.5.36-.84.44-1s.27-.48.57-.94a13.26,13.26,0,0,1,2.77-3,8.54,8.54,0,0,1,1.13-.85,13,13,0,0,1,1.39-.79,1.12,1.12,0,0,0,.5-.19,1.27,1.27,0,0,1,1,.06,3,3,0,0,1,.85.57l.25.63a2.78,2.78,0,0,1-.75,2.46c-.46.54-1,1.07-1.48,1.57s-1.08,1-1.67,1.45a1.76,1.76,0,0,1-.35.25,2.14,2.14,0,0,0-.34.25.77.77,0,0,1-.48.22l-.6.1a.59.59,0,0,1-.88-.19l-.25-.19h-.12s-.07,0-.07.06a1.88,1.88,0,0,0-.34,1c0,.38,0,.72,0,1a1.47,1.47,0,0,0,.45.69,1.26,1.26,0,0,0,.59.44,1.8,1.8,0,0,0,.66.13,3.18,3.18,0,0,0,.7.06,9.23,9.23,0,0,1,1.1-.06,3.26,3.26,0,0,0,1.23-.25,26.1,26.1,0,0,0,4.22-1.39c1.26-.54,2.54-1.11,3.84-1.7.67-.33,1.29-.66,1.86-1s1.15-.61,1.73-.91c.38-.21.61-.35.7-.41l.75-.53c.21-.21.33-.31.35-.29a1.58,1.58,0,0,0,.54-.16q.12-.12.09,0a.52.52,0,0,0,0,.29c0,.16.1.36.16.6a.46.46,0,0,1-.16.53c-.29.3-.42.45-.38.47s-.08.16-.37.41a16,16,0,0,1-1.89,1.2c-.63.34-1.29.71-2,1.13q-.69.31-1.29.63c-.4.21-.79.4-1.16.57-.85.34-1.7.68-2.56,1a16.27,16.27,0,0,1-2.67.85l-1.83.5a7.28,7.28,0,0,1-1.07.23Q607.49,189.37,606.72,189.37Zm-.82-6.74a11.25,11.25,0,0,0,2-1.52,19.09,19.09,0,0,0,1.83-2,.31.31,0,0,0-.13,0,.27.27,0,0,1-.12,0,8.58,8.58,0,0,0-2,1.2,5,5,0,0,0-1.36,1.76S606,182.33,605.9,182.63Z"/><path class="e4cf49c6-bd60-42d2-a855-c0fe972a4849" d="M622.6,178.72a4.37,4.37,0,0,1,.16-.69q.09-.32.15-.63s.05-.08.13-.35l.32-1c.12-.42.25-.85.37-1.29a11.33,11.33,0,0,1,.38-1.1,5.76,5.76,0,0,0,.38-1,6.1,6.1,0,0,1,.38-1,4.77,4.77,0,0,0,.31-.56c.13-.26.25-.53.38-.82s.23-.57.32-.82a2.06,2.06,0,0,0,.12-.57l-.06.07h-.06c-.09-.09-.15-.07-.19.06l-1.14.38-1.76.63a1.61,1.61,0,0,1-.41.12h-.13l-.09,0a2.91,2.91,0,0,1-.32.16,4.09,4.09,0,0,1-.72.22l-.91.22a.94.94,0,0,1-.57-.25c-.17-.08-.2-.22-.1-.41s.14-.3.1-.35l-.06-.06c-.05-.29,0-.46.22-.5a2.58,2.58,0,0,1,.53-.07l1.26-.44a.75.75,0,0,0,.13-.16c0-.06.12,0,.25,0a3.44,3.44,0,0,1,.82-.32,1,1,0,0,1,.38-.12,2.26,2.26,0,0,1,.78-.35c.28-.06.54-.12.79-.16l.25-.12a.51.51,0,0,1,.26-.07,4.14,4.14,0,0,0,.56-.15l.57-.23c.29-.12.44-.23.44-.31a.22.22,0,0,1,.06-.13v-.06l.38-.94,2.77-7.06a1.88,1.88,0,0,0,.13-.35,4.46,4.46,0,0,1,.19-.53l.19-.32c.08-.21.33-.31.75-.31a1.5,1.5,0,0,1,1,.25c0,.08.09.19.16.31a2.08,2.08,0,0,0,.22.38,2.16,2.16,0,0,1,.12.38.55.55,0,0,1-.06.44,36.7,36.7,0,0,0-1.83,3.66c-.5,1.17-1.05,2.41-1.64,3.71-.08.09-.07.12,0,.1a.26.26,0,0,1,.22,0c.88-.21,1.56-.36,2-.44s1.13-.23,1.93-.44a1.46,1.46,0,0,0,.69-.16.62.62,0,0,1,.63,0,.52.52,0,0,1,.31,0,.34.34,0,0,0,.32-.1,1.53,1.53,0,0,1,1.13.07.45.45,0,0,1,.38-.07.83.83,0,0,1,.72,0,1.86,1.86,0,0,0,.79.16c.09,0,.12,0,.1.06s0,.13,0,.13.2,0,.22.09,0,.1-.1.1-.29.18-.25.28,0,.16,0,.16a5.78,5.78,0,0,1-.94.16,3.24,3.24,0,0,0-1,.22,5.74,5.74,0,0,0-.6,0,2,2,0,0,0-.59.16l-.26.12a4.1,4.1,0,0,0-1.48.16,15.38,15.38,0,0,1-1.54.35,5.37,5.37,0,0,0-.6.22l-.53.22-1.08.19-.94.31c-.21,0-.33,0-.35.13a.56.56,0,0,1-.15.25,1.61,1.61,0,0,0-.22.5c-.11.3-.22.61-.32,1a9.27,9.27,0,0,1-.35.94c-.12.3-.21.49-.25.57-.5,1.47-1,2.86-1.51,4.16a40.7,40.7,0,0,0-1.32,4,41.35,41.35,0,0,0-.95,4.31,31.14,31.14,0,0,0-.38,5c0,1,0,1.74.07,2.18a4.26,4.26,0,0,0,.15.91.77.77,0,0,0,.19.32.7.7,0,0,1,.22.31,1.4,1.4,0,0,1,.67.29.88.88,0,0,1,.34.47.47.47,0,0,1-.16.47,1.19,1.19,0,0,1-.85.22.36.36,0,0,1-.25-.13,4.91,4.91,0,0,1-1.1-.47,1.69,1.69,0,0,1-.47-.79,5.39,5.39,0,0,1-.6-2.39c-.07-1-.1-1.89-.1-2.65l.13-2.33a4.37,4.37,0,0,1,.06-.88c0-.17.11-.46.19-.88a19.46,19.46,0,0,1,.35-2.24c.19-.94.37-1.69.53-2.23Z"/><path class="e4cf49c6-bd60-42d2-a855-c0fe972a4849" d="M641.06,178.53a.44.44,0,0,1,0,.19.34.34,0,0,0,0,.19.21.21,0,0,1-.12.19c-.09,0-.15,0-.19,0a.22.22,0,0,1-.13-.06,1.24,1.24,0,0,0-.69-.29,3.86,3.86,0,0,0-.82,0q-.94.25-1.92.57a9.65,9.65,0,0,0-1.86.82A5.67,5.67,0,0,0,634,181c-.25.21-.21.38.13.5a.88.88,0,0,0,.38.13c.25.08.5.16.75.22s.53.13.82.22a9.34,9.34,0,0,1,1.1.31c.36.13.73.26,1.11.38a2.51,2.51,0,0,0,.69.22,1.7,1.7,0,0,1,.69.35,1.14,1.14,0,0,0,.76.19c.67-.17,1.38-.32,2.14-.44a4.28,4.28,0,0,1,.72-.19l.79-.13a4.62,4.62,0,0,0,.76-.12l1.19-.29,1.2-.28a4,4,0,0,1,.76-.13,1.31,1.31,0,0,0,.38-.06,1.19,1.19,0,0,1,.37-.06c.21-.13.34-.15.38-.07l1-.15c.42-.07.67,0,.76.22.25.21.33.39.25.53a.83.83,0,0,1-.44.35,3.53,3.53,0,0,1-.73.19,4.7,4.7,0,0,1-.66.06,2.7,2.7,0,0,0-.85.13l-.79.25-3.59.82c-.38.08-.88.22-1.51.41a3.26,3.26,0,0,0-1.13.47c-.13.08-.12.22,0,.41a2,2,0,0,1,.28.47,1,1,0,0,1,.1.47,1.62,1.62,0,0,0,0,.41,4,4,0,0,1-.22,1.11,3.9,3.9,0,0,1-.78,1.1,7.72,7.72,0,0,1-1.23,1.2l-1.36,1a15.26,15.26,0,0,1-1.54.92,16.49,16.49,0,0,1-1.61.72.34.34,0,0,1-.25.13,11.09,11.09,0,0,0-1.29.31,4,4,0,0,1-1.23.19.71.71,0,0,0-.31.06.51.51,0,0,1-.26.07,3.36,3.36,0,0,1-1,0,2.5,2.5,0,0,1-1-.41,1.63,1.63,0,0,1-.47-.41,2.28,2.28,0,0,1-.28-.54l-.19-.94a.45.45,0,0,1,.12-.32,3.89,3.89,0,0,1,.88-1.51c.47-.42.92-.81,1.36-1.17a11.09,11.09,0,0,1,1.42-1,4.78,4.78,0,0,0,.69-.44,2,2,0,0,1,.76-.38.46.46,0,0,1,.18-.06.19.19,0,0,0,.13-.07c.59-.33,1.19-.65,1.8-.94a16,16,0,0,1,1.79-.76c.08,0,.13,0,.13-.12s-.07,0-.07,0,0,.07-.06,0c-.38-.13-.77-.26-1.16-.41a9.61,9.61,0,0,0-1.17-.35l-1.2-.31a2.41,2.41,0,0,1-.88-.32,2,2,0,0,1-1.38-1.95,1.73,1.73,0,0,1,.56-1.7c.13-.13.25-.24.38-.35a4.61,4.61,0,0,1,.38-.28,7.48,7.48,0,0,1,1.48-.85l1.54-.66a16.16,16.16,0,0,1,2.59-.7l.28,0,.28,0a.87.87,0,0,1,1,.5,1,1,0,0,0,.13.32A1.06,1.06,0,0,1,641.06,178.53ZM631.1,192a3.28,3.28,0,0,0,.63-.06l.63-.13a14.12,14.12,0,0,0,2.65-.88l.63-.38a4.58,4.58,0,0,1,.63-.31l.44-.32,1.58-1.07a9.69,9.69,0,0,0,1.76-1.7.5.5,0,0,0,.13-.35.8.8,0,0,1,.06-.34c.08-.09.09-.11,0-.07s0,0,0-.06a1.06,1.06,0,0,0-.19-.44c-.12-.21-.23-.3-.31-.25a12.45,12.45,0,0,0-1.51.69c-.47.25-1,.5-1.52.76a2.32,2.32,0,0,0-.59.34,2.29,2.29,0,0,1-.6.35l-.38.19-1.32.75a.74.74,0,0,1-.32.19,1,1,0,0,0-.31.19c-.26.21-.52.41-.79.6s-.54.39-.79.6a4.8,4.8,0,0,0-1.26,1.45l.06.12A3.49,3.49,0,0,0,631.1,192Z"/><path class="a7366e23-40d8-4b3e-9236-fd08c3f6c02f" d="M310,50V152.08h-25.8a32.69,32.69,0,0,1-16.82-4.42A33.21,33.21,0,0,1,255.26,136a35.29,35.29,0,0,1-5.13-18,33.16,33.16,0,0,1,4.42-16.82,34.78,34.78,0,0,1,11.68-12.12,32,32,0,0,1,8.41-3.7,34.9,34.9,0,0,1,9.55-1.29h20.39V50Zm-5.41,39.48H284.19A27.58,27.58,0,0,0,264,97.92a27.11,27.11,0,0,0-8.41,20.1,28.71,28.71,0,0,0,28.65,28.65h20.39Z"/><path class="a7366e23-40d8-4b3e-9236-fd08c3f6c02f" d="M324.67,55.44V49.88h76.12v5.56Zm35.21,26.23h5.56v70.41h-5.56Z"/><path class="a7366e23-40d8-4b3e-9236-fd08c3f6c02f" d="M451.39,108.61q-34.35,16-51.46,23.94c.67,1,1.33,2,2,3s1.52,2,2.28,2.85a28.81,28.81,0,0,0,9.26,6,26.92,26.92,0,0,0,11.12,2.29,29,29,0,0,0,20.1-8.27q2.7,2.43,4,3.7a33.46,33.46,0,0,1-10.83,7.27,34.14,34.14,0,0,1-26.66,0,31.85,31.85,0,0,1-10.69-7.27,26.09,26.09,0,0,1-3.13-3.42,29.41,29.41,0,0,1-2.43-3.84c-.47-.76-.9-1.52-1.28-2.29a23.21,23.21,0,0,1-1-2.7,35.47,35.47,0,0,1-1.56-5.71,30.38,30.38,0,0,1-.57-6.12,33.17,33.17,0,0,1,2.7-13.26,36.86,36.86,0,0,1,7.27-10.83,33,33,0,0,1,10.69-7.13,34.14,34.14,0,0,1,26.66,0,34.73,34.73,0,0,1,10.83,7.13q1.56,1.71,3,3.56c.86,1.24,1.71,2.52,2.57,3.85.38.76.76,1.57,1.14,2.42a19,19,0,0,1,1,2.43Q452.66,108,451.39,108.61Zm-2.14-5a35.91,35.91,0,0,0-2.14-3,32.93,32.93,0,0,0-2.42-2.71,26.49,26.49,0,0,0-9-6.13,27.73,27.73,0,0,0-11.12-2.28,27.08,27.08,0,0,0-11.12,2.28,27.63,27.63,0,0,0-9.26,6.13,30.87,30.87,0,0,0-6,9A27.73,27.73,0,0,0,395.94,118a28,28,0,0,0,.43,5,36,36,0,0,0,1.14,4.71Q432,111.6,449.25,103.62Z"/><path class="a7366e23-40d8-4b3e-9236-fd08c3f6c02f" d="M471.06,152.08v-68h5.41v68Z"/><path class="a7366e23-40d8-4b3e-9236-fd08c3f6c02f" d="M491,152.22V50h5.42V152.22Z"/><path class="a7366e23-40d8-4b3e-9236-fd08c3f6c02f" d="M512.11,150.94a4.13,4.13,0,0,1,0-5.7,4.35,4.35,0,0,1,3-1.14,4.17,4.17,0,0,1,2.85,1.14,3.81,3.81,0,0,1,0,5.7,3.91,3.91,0,0,1-2.85,1.28A4.07,4.07,0,0,1,512.11,150.94Z"/><path class="a7366e23-40d8-4b3e-9236-fd08c3f6c02f" d="M584.66,88.51a34.87,34.87,0,0,1,12.11,11.69,31.84,31.84,0,0,1,3.71,8.41,34.8,34.8,0,0,1,1.28,9.41,32.69,32.69,0,0,1-4.42,16.82A33.58,33.58,0,0,1,585.8,147a38.36,38.36,0,0,1-8.55,3.85,34.86,34.86,0,0,1-9.41,1.28A32.66,32.66,0,0,1,551,147.66,33.32,33.32,0,0,1,538.9,136a35.55,35.55,0,0,1-5.13-18,33.16,33.16,0,0,1,4.42-16.82,34.81,34.81,0,0,1,11.69-12.12,31.82,31.82,0,0,1,8.41-3.7,34.9,34.9,0,0,1,9.55-1.29A33.26,33.26,0,0,1,584.66,88.51Zm3.42,49.75A27.86,27.86,0,0,0,596.35,118a28.58,28.58,0,1,0-48.75,20.24,28.56,28.56,0,0,0,40.48,0Z"/><path class="a7366e23-40d8-4b3e-9236-fd08c3f6c02f" d="M619.58,101.2a34.72,34.72,0,0,1,11.69-12.12,31.82,31.82,0,0,1,8.41-3.7,34.9,34.9,0,0,1,9.55-1.29v5.42A27.56,27.56,0,0,0,629,97.92a27.11,27.11,0,0,0-8.41,20.1v34.06h-5.42V118A33.16,33.16,0,0,1,619.58,101.2Z"/><path class="a7366e23-40d8-4b3e-9236-fd08c3f6c02f" d="M724.49,152.08a34,34,0,0,1-2.57,13.26,36.26,36.26,0,0,1-7.27,11,36.67,36.67,0,0,1-10.83,7.27,33,33,0,0,1-13.26,2.71H663.2v-5.56h27.36a27.73,27.73,0,0,0,11.12-2.28,26.49,26.49,0,0,0,9-6.13,28.29,28.29,0,0,0,6.27-9,29.58,29.58,0,0,0,2.14-11.26V136.4a35.67,35.67,0,0,1-12,11.55,34.23,34.23,0,0,1-33.36-.14,35,35,0,0,1-12.11-11.69,34.29,34.29,0,0,1-3.71-8.55A31.86,31.86,0,0,1,656.5,118a33.25,33.25,0,0,1,4.41-16.82A34.9,34.9,0,0,1,672.6,89.08a32,32,0,0,1,8.41-3.7,35,35,0,0,1,9.55-1.29,33.26,33.26,0,0,1,16.82,4.42A34.9,34.9,0,0,1,719.5,100.2a31.82,31.82,0,0,1,3.7,8.41,34.42,34.42,0,0,1,1.29,9.41ZM710.8,138.26A27.86,27.86,0,0,0,719.07,118a28.58,28.58,0,1,0-48.75,20.24,28.56,28.56,0,0,0,40.48,0Z"/></svg>