<svg id="f3a12afd-fcde-448d-95de-62a8b20805b2" data-name="Capa 1" xmlns="http://www.w3.org/2000/svg" viewBox="0 0 770.94 220.32"><defs><style>.b7159d5a-66da-4a66-a943-117f94a7b3d9{fill:#83378d;}.a699a46d-0482-42fd-8827-9ffd73c85414,.a716cb86-1deb-42d6-b524-39b007122a72,.aa6efc5f-a993-4696-8a4a-aade5ba78377,.b325b6d0-1a97-4df9-b624-14a11d0e04e1,.b7159d5a-66da-4a66-a943-117f94a7b3d9,.be309a69-e6d0-4cff-ae44-4bc21fad4a4a,.f5bf0f8e-6189-45c4-8db5-24dd5fd79f7c,.f7523cb9-bb13-4d8d-92dd-3e032206226e{opacity:0.4;}.f7523cb9-bb13-4d8d-92dd-3e032206226e{fill:#302d7e;}.a699a46d-0482-42fd-8827-9ffd73c85414{fill:#fab334;}.b325b6d0-1a97-4df9-b624-14a11d0e04e1{fill:#683d14;}.be309a69-e6d0-4cff-ae44-4bc21fad4a4a{fill:#009741;}.a716cb86-1deb-42d6-b524-39b007122a72{fill:#1b9dd9;}.aa6efc5f-a993-4696-8a4a-aade5ba78377{fill:#e20d18;}.f5bf0f8e-6189-45c4-8db5-24dd5fd79f7c{fill:#fbea1f;}.b3fb9a69-cd73-4d37-8bbb-333680b951e0{fill:#1d1d1b;stroke:#1d1d1b;stroke-miterlimit:10;stroke-width:1.5px;}</style></defs><title>Logo_detailorg_Completo</title><polygon id="bcce234e-0574-4a03-bcd0-342d74a31664" data-name="9" class="b7159d5a-66da-4a66-a943-117f94a7b3d9" points="152.19 6.54 213.81 68.16 213.81 155.3 152.19 216.92 152.19 6.54"/><polygon id="bda70902-77c2-430b-95a4-35439f05236a" data-name="8" class="f7523cb9-bb13-4d8d-92dd-3e032206226e" points="3.43 68.16 213.81 68.16 152.19 6.54 65.05 6.54 3.43 68.16"/><polygon id="ab6a0687-385d-453c-9da3-ac305138db3c" data-name="7" class="a699a46d-0482-42fd-8827-9ffd73c85414" points="65.05 216.92 3.43 155.3 3.43 68.16 65.05 6.54 65.05 216.92"/><polygon id="ab2b26ec-2a91-42d4-963d-affb7b25976b" data-name="6" class="b325b6d0-1a97-4df9-b624-14a11d0e04e1" points="213.81 155.3 152.19 216.92 65.05 216.92 3.43 155.3 213.81 155.3"/><polygon id="b99bec2b-c47e-43c8-9459-e9fced8f979e" data-name="4" class="be309a69-e6d0-4cff-ae44-4bc21fad4a4a" points="213.81 68.16 213.81 155.3 152.19 216.92 65.05 216.92 213.81 68.16"/><polygon id="a3d3bc9c-79f0-494b-8027-75152f9f54d2" data-name="3" class="a716cb86-1deb-42d6-b524-39b007122a72" points="152.19 216.92 65.05 216.92 3.43 155.3 3.43 68.16 152.19 216.92"/><polygon id="a09a4836-76b5-4545-9522-619c4ade70ad" data-name="2" class="aa6efc5f-a993-4696-8a4a-aade5ba78377" points="65.05 6.54 152.19 6.54 213.81 68.16 213.81 155.3 65.05 6.54"/><polygon id="a8e4f1ff-c474-4762-96bc-24da2d49e9d0" data-name="1" class="f5bf0f8e-6189-45c4-8db5-24dd5fd79f7c" points="3.43 155.3 152.19 6.54 65.05 6.54 3.43 68.16 3.43 155.3"/><path class="b3fb9a69-cd73-4d37-8bbb-333680b951e0" d="M310,50V152.08h-25.8a32.69,32.69,0,0,1-16.82-4.42A33.21,33.21,0,0,1,255.26,136a35.29,35.29,0,0,1-5.13-18,33.16,33.16,0,0,1,4.42-16.82,34.78,34.78,0,0,1,11.68-12.12,32.32,32.32,0,0,1,8.41-3.71,35.29,35.29,0,0,1,9.55-1.28h20.39V50Zm-5.41,39.48H284.19A27.58,27.58,0,0,0,264,97.92a27.11,27.11,0,0,0-8.41,20.1,28.71,28.71,0,0,0,28.65,28.65h20.39Z"/><path class="b3fb9a69-cd73-4d37-8bbb-333680b951e0" d="M382.69,108.61q-34.37,16-51.46,23.94c.66,1,1.33,2,2,3s1.51,2,2.28,2.85a28.7,28.7,0,0,0,9.26,6,26.92,26.92,0,0,0,11.12,2.29A29,29,0,0,0,376,138.4q2.7,2.43,4,3.7a33.4,33.4,0,0,1-10.84,7.27,33,33,0,0,1-13.25,2.71,33.36,33.36,0,0,1-13.4-2.71,31.75,31.75,0,0,1-10.69-7.27,26.16,26.16,0,0,1-3.14-3.42,29.91,29.91,0,0,1-2.42-3.85,23.51,23.51,0,0,1-1.28-2.28,23.21,23.21,0,0,1-1-2.7,35.48,35.48,0,0,1-1.57-5.71,31.12,31.12,0,0,1-.57-6.12,33,33,0,0,1,2.71-13.26,36.67,36.67,0,0,1,7.27-10.83,32.9,32.9,0,0,1,10.69-7.13,33.54,33.54,0,0,1,13.4-2.71,33.17,33.17,0,0,1,13.25,2.71A34.66,34.66,0,0,1,380,93.93q1.56,1.71,3,3.56c.86,1.24,1.71,2.52,2.57,3.85.37.76.76,1.57,1.14,2.42a17.63,17.63,0,0,1,1,2.43Q384,108,382.69,108.61Zm-2.14-5a35.91,35.91,0,0,0-2.14-3A32.93,32.93,0,0,0,376,97.92a26.49,26.49,0,0,0-9-6.13,27.77,27.77,0,0,0-11.12-2.28,27.08,27.08,0,0,0-11.12,2.28,27.53,27.53,0,0,0-9.26,6.13,30.68,30.68,0,0,0-6,9A27.7,27.7,0,0,0,327.24,118a28,28,0,0,0,.43,5,36,36,0,0,0,1.14,4.71Q363.3,111.6,380.55,103.62Z"/><path class="b3fb9a69-cd73-4d37-8bbb-333680b951e0" d="M416.18,138.26a31.28,31.28,0,0,0,9.12,6.12,27.57,27.57,0,0,0,11.12,2.29v5.41a33,33,0,0,1-13.26-2.71,36.61,36.61,0,0,1-10.83-7.27,34.54,34.54,0,0,1-7.27-10.83,32.47,32.47,0,0,1-2.7-13.25V49.88h5.41V84h15.68V88.8H407.77V118a27,27,0,0,0,2.28,11.11A29,29,0,0,0,416.18,138.26Z"/><path class="b3fb9a69-cd73-4d37-8bbb-333680b951e0" d="M499.14,84.09v68h-5.42V89.51H473.34a27.56,27.56,0,0,0-20.24,8.41,27.11,27.11,0,0,0-8.41,20.1,28.71,28.71,0,0,0,28.65,28.65v5.41a32.63,32.63,0,0,1-16.82-4.42A33.32,33.32,0,0,1,444.4,136a35.55,35.55,0,0,1-5.13-18,33.16,33.16,0,0,1,4.42-16.82,34.72,34.72,0,0,1,11.69-12.12,32.17,32.17,0,0,1,8.41-3.71,35.29,35.29,0,0,1,9.55-1.28Z"/><path class="b3fb9a69-cd73-4d37-8bbb-333680b951e0" d="M513.82,152.08v-68h5.41v68Z"/><path class="b3fb9a69-cd73-4d37-8bbb-333680b951e0" d="M533.77,152.22V50h5.42V152.22Z"/><path class="b3fb9a69-cd73-4d37-8bbb-333680b951e0" d="M603.19,88.51A34.87,34.87,0,0,1,615.3,100.2a31.84,31.84,0,0,1,3.71,8.41,34.8,34.8,0,0,1,1.28,9.41,32.62,32.62,0,0,1-4.42,16.81A33.53,33.53,0,0,1,604.33,147a38.36,38.36,0,0,1-8.55,3.85,34.86,34.86,0,0,1-9.41,1.28,32.66,32.66,0,0,1-16.82-4.42A33.32,33.32,0,0,1,557.43,136a35.55,35.55,0,0,1-5.13-18,33.26,33.26,0,0,1,4.42-16.82,34.81,34.81,0,0,1,11.69-12.12,32.32,32.32,0,0,1,8.41-3.71,35.29,35.29,0,0,1,9.55-1.28A33.26,33.26,0,0,1,603.19,88.51Zm3.42,49.75A27.86,27.86,0,0,0,614.88,118a28.58,28.58,0,1,0-48.75,20.24,28.56,28.56,0,0,0,40.48,0Z"/><path class="b3fb9a69-cd73-4d37-8bbb-333680b951e0" d="M638.11,101.2A34.72,34.72,0,0,1,649.8,89.08a32,32,0,0,1,8.41-3.71,35.29,35.29,0,0,1,9.55-1.28v5.42a27.56,27.56,0,0,0-20.24,8.41,27.11,27.11,0,0,0-8.41,20.1v34.06h-5.42V118A33.16,33.16,0,0,1,638.11,101.2Z"/><path class="b3fb9a69-cd73-4d37-8bbb-333680b951e0" d="M743,152.08a34,34,0,0,1-2.57,13.26,36.26,36.26,0,0,1-7.27,11,36.8,36.8,0,0,1-10.83,7.27,33,33,0,0,1-13.26,2.71H681.73v-5.56h27.36a27.73,27.73,0,0,0,11.12-2.28,26.49,26.49,0,0,0,9-6.13,28.29,28.29,0,0,0,6.27-9,29.58,29.58,0,0,0,2.14-11.26V136.4a35.67,35.67,0,0,1-12,11.55,34.23,34.23,0,0,1-33.36-.14,35,35,0,0,1-12.11-11.69,34.29,34.29,0,0,1-3.71-8.55A31.86,31.86,0,0,1,675,118a33.25,33.25,0,0,1,4.41-16.82,34.9,34.9,0,0,1,11.69-12.12,32.32,32.32,0,0,1,8.41-3.71,35.29,35.29,0,0,1,9.55-1.28,33.26,33.26,0,0,1,16.82,4.42A34.9,34.9,0,0,1,738,100.2a31.82,31.82,0,0,1,3.7,8.41A34.42,34.42,0,0,1,743,118Zm-13.69-13.82A27.86,27.86,0,0,0,737.6,118a28.58,28.58,0,1,0-48.75,20.24,28.56,28.56,0,0,0,40.48,0Z"/></svg>