<svg id="e5c62996-216e-4482-974f-5519c24df8a0" data-name="Capa 1" xmlns="http://www.w3.org/2000/svg" viewBox="0 0 495.61 196.12"><defs><style>.bd01e28b-5514-4547-a27b-2adecf72c89d,.ec9a85a3-1b4a-45d5-9335-4176a37f475d{fill:#1d1d1b;}.ec9a85a3-1b4a-45d5-9335-4176a37f475d{stroke:#1d1d1b;stroke-miterlimit:10;stroke-width:1.5px;}</style></defs><title>Logo_dTeilorg</title><path class="bd01e28b-5514-4547-a27b-2adecf72c89d" d="M24.76,174.38a4.32,4.32,0,0,1-.91,0,7.81,7.81,0,0,1-1.07-.13c-.36-.06-.68-.12-1-.19l-.63-.15a16.32,16.32,0,0,1-1.86-.67,6.78,6.78,0,0,1-1.73-1,4.87,4.87,0,0,1-1.2-1.39,2.6,2.6,0,0,1-.25-1.13,5.4,5.4,0,0,1,.19-1.33,1.77,1.77,0,0,1,.16-.34l.16-.29a.48.48,0,0,1,.5-.31.57.57,0,0,0,.25-.06,3,3,0,0,1,.54.12c.1,0,.13.19.09.44s-.08.39-.12.54a3,3,0,0,1-.25.53.85.85,0,0,0-.07.6.8.8,0,0,0,.25.54,1.88,1.88,0,0,1,.7.5,2.67,2.67,0,0,0,1,.6c.4.15.79.3,1.17.47a3.37,3.37,0,0,1,.41.13l.35.12c.16.09.34.17.53.26a1.13,1.13,0,0,0,.73,0,1.3,1.3,0,0,0,.47.28.34.34,0,0,0,.25,0,.4.4,0,0,1,.22-.06,1.15,1.15,0,0,1,.44.18c.09,0,.25,0,.51-.06a6,6,0,0,1,1.22,0,5.22,5.22,0,0,0,.73.06.5.5,0,0,0,.47,0l.47-.21a1.33,1.33,0,0,1,.63,0c.17.21.42.21.76,0a1.42,1.42,0,0,1,.63-.19.9.9,0,0,0,.31,0,1.45,1.45,0,0,1,.32,0,1.65,1.65,0,0,0,1.13-.12l.13-.07a.05.05,0,0,0,.06-.06.65.65,0,0,0,.54,0,4.29,4.29,0,0,1,.47-.16,2.07,2.07,0,0,0,.5-.06,2,2,0,0,1,.45-.06,6.62,6.62,0,0,0,.88-.06,2.16,2.16,0,0,0,.88-.38.3.3,0,0,1,.44,0,.35.35,0,0,0,.44-.07.83.83,0,0,1,.38-.22,2.43,2.43,0,0,1,.38,0,3.68,3.68,0,0,0,.47-.15,2.36,2.36,0,0,1,.47-.16l.95-.32a1.31,1.31,0,0,0,.38-.06,1.52,1.52,0,0,0,.31-.13,3.55,3.55,0,0,1,.76-.06,1.66,1.66,0,0,1,.34-.25,3.44,3.44,0,0,1,.54-.25.3.3,0,0,1,.22,0,.27.27,0,0,0,.22,0,5.12,5.12,0,0,0,.57-.25,1.11,1.11,0,0,1,.5-.12,2.43,2.43,0,0,1,.47-.19.87.87,0,0,0,.41-.26l1-.56,1.19-.6a5.21,5.21,0,0,0,1.14-.79l1.07-1a3.83,3.83,0,0,0,.69-.86,2.24,2.24,0,0,0,.29-1,5,5,0,0,0-.1-1.23,1.82,1.82,0,0,0-.38-.85,8,8,0,0,1-.56-.73,10.55,10.55,0,0,0-2.15-2.33,20.24,20.24,0,0,0-2.7-1.82q-2.15-1.14-4.35-2.08a9.26,9.26,0,0,0-1.42-.51,8.27,8.27,0,0,1-1.42-.5c-.71-.25-1.44-.53-2.17-.82s-1.46-.54-2.17-.75a8.26,8.26,0,0,1-1.8-.86c-.57-.35-1.14-.7-1.73-1l-1.23-.94a3.72,3.72,0,0,1-1-1.2,4.7,4.7,0,0,1-.63-2.9,1.06,1.06,0,0,0,0-.5,1.06,1.06,0,0,1,0-.5c.08-.26.17-.51.25-.76a5.27,5.27,0,0,1,.38-.82,10.69,10.69,0,0,1,2.58-3,39.64,39.64,0,0,1,3.53-2.71,7.85,7.85,0,0,1,.66-.47,5.82,5.82,0,0,1,.79-.41,12.11,12.11,0,0,0,1.61-.82,14.88,14.88,0,0,1,1.54-.82c.71-.29,1.4-.55,2.05-.79s1.31-.45,2-.66a13,13,0,0,1,1.77-.5l1.82-.38a1.44,1.44,0,0,1,.51-.06.44.44,0,0,1,.28,0,.38.38,0,0,0,.28,0c.47,0,.92-.06,1.36-.06a6.14,6.14,0,0,1,1.29.13,2.84,2.84,0,0,1,.72.09l.73.22a1,1,0,0,1,.69.51l1.14,1.7a4.32,4.32,0,0,1,.19.69,1.81,1.81,0,0,1-.07.82,1.62,1.62,0,0,0-.12.57v.56a4.45,4.45,0,0,0-.19.76,2.66,2.66,0,0,1-.32.82.74.74,0,0,1-.5.5.56.56,0,0,1-.63-.12,1.7,1.7,0,0,1-.44-1.77c.08-.25.15-.51.22-.79s.13-.55.22-.84.17-.36.12-.45a.52.52,0,0,0-.18-.5,2.36,2.36,0,0,0-.76-.38,6.41,6.41,0,0,0-1.51-.34,6.07,6.07,0,0,0-1.7,0,13.75,13.75,0,0,0-2.21.19A18,18,0,0,0,38.12,136l-2.77,1.32a36.39,36.39,0,0,0-3.37,2,29.85,29.85,0,0,0-3.12,2.49,7.86,7.86,0,0,0-1.13,1.1,11.29,11.29,0,0,0-.95,1.29,3.1,3.1,0,0,0-.35,1.23,2.46,2.46,0,0,0,.29,1.23,2.4,2.4,0,0,0,.66.76,8.93,8.93,0,0,0,.79.56l1.26.7q.55.31,1.26.63l.37.12.45.19a9.15,9.15,0,0,0,1.41.51,8,8,0,0,1,1.42.5.38.38,0,0,0,.25.06,11,11,0,0,0,1.17.51l1.23.44a5.85,5.85,0,0,1,1.29.38c.4.16.79.33,1.16.5.63.29,1.25.56,1.86.79a12.25,12.25,0,0,1,1.8.85c.58.33,1.18.7,1.79,1.1a13,13,0,0,1,1.67,1.29A13.57,13.57,0,0,1,48,158.06a11.77,11.77,0,0,1,1.23,1.7,4.63,4.63,0,0,1,.63,1.45c.13.51.27,1,.44,1.58,0,.29-.07.57-.09.85s0,.55,0,.85-.08.27-.1.31l-.16.32a.51.51,0,0,0-.12.37,2.6,2.6,0,0,1-.41.89,7.39,7.39,0,0,1-.66.75,14.26,14.26,0,0,1-1.36,1.33,9,9,0,0,1-1.67,1.13l-2.14,1.13a27.14,27.14,0,0,1-3.34,1.3c-1.13.35-2.31.7-3.53,1l-1.16.28-.91.19-1,.19c-.36.06-.79.15-1.29.28a15.49,15.49,0,0,1-1.77.28l-1.76.22a5.62,5.62,0,0,1-1.07,0c-.34,0-.69-.06-1.07-.1a.53.53,0,0,0-.32.06,5.3,5.3,0,0,1-.63.07.3.3,0,0,1-.16,0,.4.4,0,0,0-.18-.07Z"/><path class="bd01e28b-5514-4547-a27b-2adecf72c89d" d="M68.42,164.93a4,4,0,0,1-1.41-.51,5.87,5.87,0,0,1-1.17-1.13,3.16,3.16,0,0,1-.63-1.17,11.26,11.26,0,0,1-.31-1.41,11,11,0,0,1-.19-1.26,5.91,5.91,0,0,1,0-1.33l.25-2L64.9,156V156h-.19c-.34.42-.74.88-1.2,1.39s-.86,1-1.2,1.38a.87.87,0,0,1-.22.26,1.46,1.46,0,0,0-.22.18l-.82.76a7.61,7.61,0,0,1-1.57,1.39,3.68,3.68,0,0,0-.63.47,1.87,1.87,0,0,1-.76.41,3,3,0,0,1-1.76-.13,5.75,5.75,0,0,1-.79-.44,2.59,2.59,0,0,1-.6-.57,1.35,1.35,0,0,1-.38-.88v-.69a4.86,4.86,0,0,1,.07-.82c.12-.59.32-1.33.59-2.24a14.29,14.29,0,0,0,.54-2.23.66.66,0,0,1,.35-.35.29.29,0,0,1,.34,0l1.2.95a.48.48,0,0,1,.22.38,4.07,4.07,0,0,1,0,.5l-.06.5a8.46,8.46,0,0,0-.28.82c-.11.34-.2.7-.29,1.07s-.18.74-.28,1.07a5.72,5.72,0,0,0-.22.89.29.29,0,0,0,0,.22.69.69,0,0,1,0,.22c0,.12.08.19.25.19a.57.57,0,0,0,.31-.07l1-.69.76-.63a5.62,5.62,0,0,0,.69-.69c.21-.21.44-.43.7-.66l.69-.66a7.79,7.79,0,0,1,.63-.79q.31-.35.63-.66a6.58,6.58,0,0,0,1-1.26c.37-.59.67-1,.88-1.33l1.13-1.19a.89.89,0,0,1,1-.26,5.55,5.55,0,0,1,.6.29,2,2,0,0,1,.53.41,1.35,1.35,0,0,1,.32.69,4.06,4.06,0,0,1-.13,1.39,10,10,0,0,0-.5,1.54c-.17.65-.3,1.14-.38,1.48a7.78,7.78,0,0,0-.28,1.45,6.08,6.08,0,0,0,0,1.7,2.77,2.77,0,0,0,.09.5,4,4,0,0,0,.16.51,3.94,3.94,0,0,0,.69,1.54,1.46,1.46,0,0,0,1.45.54,7.27,7.27,0,0,0,1.33-.38q.63-.25,1.26-.57c.33-.21.74-.48,1.22-.82s.88-.61,1.17-.82c.8-.67,1.48-1.27,2-1.79s1.12-1.08,1.67-1.67a1.91,1.91,0,0,1,.6-.6,4,4,0,0,0,.66-.53q.31-.45.78,0a.67.67,0,0,1,.23.88,11.94,11.94,0,0,0-.89,1.1,4.11,4.11,0,0,1-1,1L76.8,160.9a25.14,25.14,0,0,1-2.61,2.17,14.78,14.78,0,0,1-2,1.16,7.07,7.07,0,0,1-1.76.73A4.08,4.08,0,0,1,68.42,164.93Z"/><path class="bd01e28b-5514-4547-a27b-2adecf72c89d" d="M82.66,163.73a2,2,0,0,1-.69-.13l-.89-.25a6.53,6.53,0,0,1-1.38-.91,3.26,3.26,0,0,1-.76-1.48,3.74,3.74,0,0,1-.25-2.33l.57-2c.21-.38.42-.77.63-1.2a7.79,7.79,0,0,0,.5-1.19s0,0,0-.07a.08.08,0,0,1,0-.12.39.39,0,0,1,.25-.19.44.44,0,0,1,.32,0l.44.22a3.72,3.72,0,0,1,.38.22s.06.07.06.1,0,.05.13.09a1.28,1.28,0,0,1,.41.69,1.42,1.42,0,0,1-.29.82L81,158.44c-.12.38-.24.75-.34,1.13a2.32,2.32,0,0,0,0,1.14,1.18,1.18,0,0,0,1.11,1.22,6.57,6.57,0,0,0,1.92,0,11.48,11.48,0,0,0,2-.48,20.82,20.82,0,0,0,2.11-.81c.69-.32,1.34-.66,2-1a14.29,14.29,0,0,0,1.55-1l.44-.38a.17.17,0,0,1,.12-.06.32.32,0,0,0,.19-.1l.63-.47a6,6,0,0,1,.57-.47c.25-.19.44-.35.57-.47a6,6,0,0,0,.6-.41l.69-.54a1.87,1.87,0,0,1,.63-.32.44.44,0,0,1,.47.19.63.63,0,0,1-.06.6.61.61,0,0,0,0,.66l-.13.38a.59.59,0,0,1-.31.38l-.51.13-.81.69a6,6,0,0,0-.76.75c-.42.34-.76.59-1,.76l-.66.47a4.89,4.89,0,0,1-.6.41c-.21.13-.46.3-.76.51,0,0-.1.08-.31.12a1.08,1.08,0,0,0-.38.13,2.19,2.19,0,0,1-1,.69c-.37.13-.88.34-1.51.63s-1.35.38-2.17.63A5.54,5.54,0,0,1,82.66,163.73Zm.57-14.3a1.42,1.42,0,0,0-.32-.13.78.78,0,0,1-.19-.12s-.1-.11-.19-.19a1.54,1.54,0,0,1-.19-1.14l.26-1a2.8,2.8,0,0,1,.5-1c0-.21,0-.27.13-.19a1.42,1.42,0,0,1,.63-.19,2.88,2.88,0,0,1,1.07.69c.21.13.3.27.28.41s0,.33-.09.54a.34.34,0,0,1-.07.22,2.18,2.18,0,0,0-.12.22,4.64,4.64,0,0,0-.76,1.2c.13.08.11.14-.06.19A1,1,0,0,1,83.23,149.43Z"/><path class="bd01e28b-5514-4547-a27b-2adecf72c89d" d="M95.13,153.65a5.86,5.86,0,0,1,.16-.69c.06-.21.12-.42.16-.63,0,0,0-.07.12-.35s.19-.62.32-1,.25-.85.38-1.29a7.68,7.68,0,0,1,.38-1.1,6.42,6.42,0,0,0,.37-1,5.75,5.75,0,0,1,.38-1c.08-.13.19-.32.32-.57s.25-.53.37-.82.23-.57.32-.82a2.06,2.06,0,0,0,.12-.57l-.06.07h-.06c-.09-.09-.15-.07-.19.06l-1.13.38-1.77.63a1.51,1.51,0,0,1-.41.12h-.12l-.1,0-.31.16a4.21,4.21,0,0,1-.73.22l-.91.22a.94.94,0,0,1-.57-.25c-.17-.08-.2-.22-.09-.41s.13-.3.09-.35l-.06-.06c0-.29,0-.46.22-.5a2.67,2.67,0,0,1,.53-.07l1.26-.44a.64.64,0,0,0,.13-.15c0-.07.13-.06.25,0a3.44,3.44,0,0,1,.82-.32,1,1,0,0,1,.38-.12,2.23,2.23,0,0,1,.79-.35c.27-.06.53-.12.79-.16l.25-.12a.45.45,0,0,1,.25-.07,3.92,3.92,0,0,0,.57-.15l.56-.22c.3-.13.44-.23.44-.32a.15.15,0,0,1,.07-.12v-.07l.37-.94,2.78-7.06a2,2,0,0,0,.12-.35c0-.14.11-.32.19-.53l.19-.32c.08-.21.34-.31.76-.31a1.47,1.47,0,0,1,.94.25c0,.09.1.19.16.32a3.6,3.6,0,0,0,.22.37,3.2,3.2,0,0,1,.13.38.51.51,0,0,1-.07.44,36.54,36.54,0,0,0-1.82,3.66c-.51,1.17-1,2.41-1.64,3.71-.09.09-.08.12,0,.1a.25.25,0,0,1,.22,0c.88-.21,1.56-.36,2-.44s1.12-.23,1.92-.44a1.46,1.46,0,0,0,.69-.16.64.64,0,0,1,.63,0,.55.55,0,0,1,.32,0,.34.34,0,0,0,.31-.09,1.51,1.51,0,0,1,1.14.06c.16-.08.29-.11.37-.06a.82.82,0,0,1,.73,0,1.8,1.8,0,0,0,.79.16q.12-.06.09.06c0,.09,0,.13,0,.13s.2,0,.22.1,0,.09-.09.09-.3.18-.25.28,0,.16,0,.16a5.09,5.09,0,0,1-1,.16,3.18,3.18,0,0,0-.94.22,5.74,5.74,0,0,0-.6,0,2.06,2.06,0,0,0-.6.16l-.25.12a4.05,4.05,0,0,0-1.48.16,15.56,15.56,0,0,1-1.55.35c-.25.08-.45.16-.6.22l-.53.22-1.07.19-.95.31c-.21,0-.32,0-.34.13a.7.7,0,0,1-.16.25,1.92,1.92,0,0,0-.22.5c-.11.3-.21.61-.32,1s-.22.65-.34.95-.21.48-.26.56c-.5,1.47-1,2.86-1.51,4.16s-.94,2.64-1.32,4A43.66,43.66,0,0,0,96,159a31,31,0,0,0-.37,5c0,1,0,1.73.06,2.17a3.49,3.49,0,0,0,.16.91.6.6,0,0,0,.19.32,1,1,0,0,1,.22.31,1.52,1.52,0,0,1,.66.29.9.9,0,0,1,.35.47.5.5,0,0,1-.16.47,1.21,1.21,0,0,1-.85.22.39.39,0,0,1-.26-.12,5.56,5.56,0,0,1-1.1-.48,1.8,1.8,0,0,1-.47-.78,5.48,5.48,0,0,1-.6-2.4q-.09-1.52-.09-2.64l.12-2.34a3.63,3.63,0,0,1,.07-.88c0-.16.1-.46.18-.88a22,22,0,0,1,.35-2.24c.19-.94.37-1.69.54-2.23Z"/><path class="bd01e28b-5514-4547-a27b-2adecf72c89d" d="M118.76,162.16a2.64,2.64,0,0,1-1-.19,8.92,8.92,0,0,1-1-.6,3,3,0,0,1-.82-.85,7.21,7.21,0,0,1-1.19-2.46.17.17,0,0,0-.19-.19l-1.07,1.07-1.86,1.51a21.39,21.39,0,0,1-1.86,1.39q-.63.38-1.23.69a4.7,4.7,0,0,1-1.29.45,4.8,4.8,0,0,1-1.58.25,1.51,1.51,0,0,1-1.63-1.14l-.51-.94a2,2,0,0,1-.06-1.64,3.08,3.08,0,0,1,.41-.95,5.77,5.77,0,0,0,.47-.88l.69-.88q.89-1,1.86-1.92a14.8,14.8,0,0,1,2.05-1.61l1.07-.63a3.82,3.82,0,0,1,1.89-.5,1,1,0,0,1,.82.31,3.64,3.64,0,0,1,1.07,1.83.88.88,0,0,1-.13.38c-.12.08-.21.08-.25,0l-.44-.38c-.21-.21-.4-.25-.57-.13-.33.09-.67.16-1,.23a2.77,2.77,0,0,0-1,.4,8,8,0,0,0-2.08,1.52,1.14,1.14,0,0,0-.44.38,9,9,0,0,0-2.33,2.77,3.08,3.08,0,0,0-.7,1.45c-.08.16,0,.25.13.25a1.26,1.26,0,0,0,.38.06h.31a6.81,6.81,0,0,1,.92-.19,1.94,1.94,0,0,0,.85-.31,10.55,10.55,0,0,0,3.27-2.15l1.52-1.25.34-.23a1.23,1.23,0,0,0,.29-.22l1-1.07a11.76,11.76,0,0,0,1-1.19.51.51,0,0,1,.75-.19l.57.28a.93.93,0,0,1,.44.41c0,.17.07.3.1.41a.89.89,0,0,1,0,.41c0,.25-.07.52-.09.82s0,.59,0,.88a4.36,4.36,0,0,0,.44,1.95.5.5,0,0,0,.28.16.53.53,0,0,1,.29.16,3.08,3.08,0,0,0,1.82.53,5.36,5.36,0,0,0,1.89-.41,8.69,8.69,0,0,1,.89-.28,3.19,3.19,0,0,0,.88-.41,11.79,11.79,0,0,1,1.38-.94,4.81,4.81,0,0,0,1.26-1.14c.13-.12.36-.39.7-.79a5.74,5.74,0,0,0,.63-.85l.19-.12s.09-.07.28-.07.28,0,.28.07l.26.38a1.29,1.29,0,0,1-.29,1.16c-.31.48-.56.83-.72,1a9.48,9.48,0,0,1-3.31,3,8.61,8.61,0,0,1-3.75,1.14l-.57.06C119,162.26,118.84,162.24,118.76,162.16Z"/><path class="bd01e28b-5514-4547-a27b-2adecf72c89d" d="M128.33,156.42a1,1,0,0,0-.12.41.43.43,0,0,1-.13.29l-.19.44,1.1-.63c.53-.3.88-.51,1-.63v-.07a4.82,4.82,0,0,1,1.11-.56c.35-.13.7-.23,1-.32a10.79,10.79,0,0,1,2.26-.5,3.55,3.55,0,0,1,1.08.06,3.47,3.47,0,0,1,1.26.5,2.1,2.1,0,0,1,.91.54l.85.85a2.43,2.43,0,0,1,.16.63,2.41,2.41,0,0,0,.15.63,5.61,5.61,0,0,1-.06.88,8.41,8.41,0,0,1-.19.88,4.73,4.73,0,0,1-.63,1,9.59,9.59,0,0,1-.88,1l-1,1-.56.57a1.75,1.75,0,0,1-.57.37,7.51,7.51,0,0,1-.95.51,7.22,7.22,0,0,0-.88.44q-.69.31-1.38.57a8.34,8.34,0,0,1-1.58.37,2.47,2.47,0,0,1-1.64.07,4.87,4.87,0,0,1-1.64-.51.29.29,0,0,1-.31-.19s-.06-.08-.06-.25v-.25h.19a3,3,0,0,0,1,.06c.35,0,.74-.1,1.16-.19l.32-.06a1.6,1.6,0,0,0,.59-.22,2.41,2.41,0,0,1,.6-.28,9.57,9.57,0,0,0,1.29-.51,6.62,6.62,0,0,0,1.23-.75l.57-.38a3.93,3.93,0,0,0,1-.85c.31-.36.64-.7,1-1l.47-.73c.14-.23.28-.47.41-.72a5.85,5.85,0,0,0,.19-.6,1.51,1.51,0,0,0,0-.6l.06-.56a1,1,0,0,0-.63-.76.76.76,0,0,0-.47-.09,1.15,1.15,0,0,1-.48,0,4.33,4.33,0,0,0-1.57.41c-.46.23-1,.48-1.58.73a4.57,4.57,0,0,0-1.57,1l-.69.5c-.47.46-.94,1-1.42,1.54a8.37,8.37,0,0,0-1.23,2l-.5,1.38a.16.16,0,0,1-.07.13c-.21.46-.48.55-.82.25a3.45,3.45,0,0,1-.72-.41l-.66-.47a.27.27,0,0,1-.06-.38l.31-1.13a15,15,0,0,0,.82-2.33l.63-2.4.06-.44h.07l.06-.25a2.09,2.09,0,0,0,.06-.47.67.67,0,0,1,.13-.41.89.89,0,0,0,.28-.54,2.77,2.77,0,0,1,.1-.53c.08-.3.16-.62.25-1a7.61,7.61,0,0,1,.25-.91,1.15,1.15,0,0,1,.31-.57,2.4,2.4,0,0,1,.29-.44,1.17,1.17,0,0,0,.15-.69c.09-.26.16-.5.23-.73a1.66,1.66,0,0,1,.28-.6l.19-.5a6.29,6.29,0,0,1,.19-1,2.81,2.81,0,0,1,.5-1v-.13a2.66,2.66,0,0,0,.44-1.07,3.53,3.53,0,0,1,.57-1.26l.38-1.14c.12-.37.25-.73.38-1.07.08-.08.12-.14.12-.19s0-.29.13-.62.29-.61.38-.82a4.42,4.42,0,0,1,.18-.63c.13-.38.27-.78.41-1.2s.3-.81.45-1.17.24-.57.28-.66a1.92,1.92,0,0,0,.12-.69v-.69a2.4,2.4,0,0,0,.07-1.2c.08-.59.46-.8,1.13-.63l.22.09a1.33,1.33,0,0,0,.35,0,.76.76,0,0,1,.5.51,1.35,1.35,0,0,1,.19.35.87.87,0,0,0,.19.28,1.07,1.07,0,0,1,0,.25,1,1,0,0,0,0,.19c-.09.46-.18.88-.29,1.26a3.92,3.92,0,0,1-.47,1.07l-.44,1.51-.25.57a.93.93,0,0,0,0,.38.23.23,0,0,1,0,.09.55.55,0,0,1-.1.19c-.06.11-.18.33-.34.66l-.07.38c-.58,1.35-1.13,2.69-1.63,4s-1,2.71-1.45,4.1a31.38,31.38,0,0,0-1.29,3.05,27.46,27.46,0,0,0-1,3.18l-.19.38Z"/><path class="bd01e28b-5514-4547-a27b-2adecf72c89d" d="M141.81,166.5a.51.51,0,0,1,.07-.56,1.85,1.85,0,0,0,.12-.67v-.72a1.93,1.93,0,0,1,.1-.91,5.36,5.36,0,0,0,.22-1,2.71,2.71,0,0,1,.12-.82c.09-.25.17-.54.26-.88l.19-1.45a6,6,0,0,0,.34-1.23,6.59,6.59,0,0,1,.35-1.29v-.13c.08-.21.26-.73.53-1.57s.57-1.73.89-2.68.6-1.79.88-2.55a9.24,9.24,0,0,1,.47-1.2,12.57,12.57,0,0,0,.41-1.29,7.58,7.58,0,0,1,.47-1.29,2.91,2.91,0,0,1,.25-.69,6.87,6.87,0,0,0,.32-.76,7.31,7.31,0,0,0,.57-1.32,7.34,7.34,0,0,1,.5-1.26c.08,0,.13-.09.13-.13.25-.71.49-1.4.72-2.08a17.25,17.25,0,0,1,.85-2l.73-1.74a12.56,12.56,0,0,0,.59-1.85l.13-.57a1,1,0,0,1,.06-.35.7.7,0,0,0,0-.41c0-.21.21-.38.63-.5a1.9,1.9,0,0,1,.95.12l.82.38a1.12,1.12,0,0,1,.19.29.35.35,0,0,1-.07.34,25.74,25.74,0,0,1-.85,2.43c-.31.78-.64,1.6-1,2.49l-1.45,3.46a.46.46,0,0,0-.07.22.33.33,0,0,1-.12.22c-.17.42-.32.81-.44,1.17a7.64,7.64,0,0,1-.51,1.1,10.41,10.41,0,0,0-.69,1.8,7.7,7.7,0,0,1-.76,1.79,4.78,4.78,0,0,1-.31.85,5.51,5.51,0,0,0-.32.92c-.08.21-.22.57-.41,1.1s-.38,1.12-.59,1.79l-.63,2c-.21.67-.38,1.24-.51,1.7-.08.3-.18.61-.28.95a5.26,5.26,0,0,0-.22.94c-.09.38-.16.74-.22,1.07a3.68,3.68,0,0,1-.35,1c-.17.71-.31,1.35-.44,1.92a5.31,5.31,0,0,0-.13,1.61,5.43,5.43,0,0,1-.12,1.13,3.42,3.42,0,0,0-.06,1.2.41.41,0,0,1,0,.31,1.63,1.63,0,0,0-.13.32,2.69,2.69,0,0,0,0,1.1,7.67,7.67,0,0,0,.28,1.17l.13.12a.25.25,0,0,0,.06.19.09.09,0,0,0,.13,0,.43.43,0,0,1,.53,0,.52.52,0,0,1,.19.47.85.85,0,0,1-.31.54,1.48,1.48,0,0,1-1,.25,1.8,1.8,0,0,1-1.32-.57,1.37,1.37,0,0,1-.57-.72c-.08-.27-.17-.58-.25-.91a3.64,3.64,0,0,0,0-1.23A7.92,7.92,0,0,1,141.81,166.5Z"/><path class="bd01e28b-5514-4547-a27b-2adecf72c89d" d="M154.79,164.3c-.46-.09-.93-.16-1.41-.22a2.24,2.24,0,0,1-1.23-.54,11.79,11.79,0,0,1-1.29-1.51,2.49,2.49,0,0,1-.48-1.83c0-.08,0-.26,0-.53a1,1,0,0,1,.16-.54l.13-.38c.21-.5.36-.84.44-1a9.76,9.76,0,0,1,.57-.95,13,13,0,0,1,2.77-3,8.54,8.54,0,0,1,1.13-.85,12.08,12.08,0,0,1,1.39-.79,1,1,0,0,0,.5-.19,1.31,1.31,0,0,1,1,.06,3,3,0,0,1,.85.57l.25.63a2.78,2.78,0,0,1-.75,2.46c-.46.54-1,1.07-1.48,1.57a21.16,21.16,0,0,1-1.67,1.45,1.43,1.43,0,0,1-.35.25,2.29,2.29,0,0,0-.35.25.78.78,0,0,1-.47.23l-.6.09a.59.59,0,0,1-.88-.19l-.25-.19h-.13a.05.05,0,0,0-.06.06,1.89,1.89,0,0,0-.35,1c0,.38,0,.72,0,1a2.19,2.19,0,0,0,1,1.14,2,2,0,0,0,.66.12,3.18,3.18,0,0,0,.7.06,9.23,9.23,0,0,1,1.1-.06,3.26,3.26,0,0,0,1.23-.25,26.1,26.1,0,0,0,4.22-1.39c1.26-.54,2.54-1.11,3.84-1.7.67-.33,1.29-.66,1.86-1s1.14-.62,1.73-.92c.38-.21.61-.35.7-.41l.75-.53c.21-.21.33-.31.35-.29a1.6,1.6,0,0,0,.53-.15c.09-.09.12-.1.1,0a.52.52,0,0,0,0,.29c0,.17.09.37.16.6a.45.45,0,0,1-.16.53c-.29.3-.42.45-.38.47s-.08.16-.38.41a15.24,15.24,0,0,1-1.89,1.2c-.63.34-1.28.72-2,1.13l-1.29.63c-.4.22-.79.4-1.17.57l-2.55,1a16.08,16.08,0,0,1-2.68.85l-1.82.51a7.23,7.23,0,0,1-1.07.22C155.67,164.29,155.3,164.3,154.79,164.3Zm-.82-6.74a11.25,11.25,0,0,0,2-1.52,19.09,19.09,0,0,0,1.83-1.95.28.28,0,0,0-.13,0,.27.27,0,0,1-.12,0,8.39,8.39,0,0,0-2,1.2,4.94,4.94,0,0,0-1.36,1.77S154.06,157.26,154,157.56Z"/><path class="bd01e28b-5514-4547-a27b-2adecf72c89d" d="M194.92,168.46a2.42,2.42,0,0,0-.12-.23.43.43,0,0,1-.07-.28,1.43,1.43,0,0,0,0-.91.94.94,0,0,1,0-.79,2.22,2.22,0,0,1,0-.63,2.22,2.22,0,0,0,0-.63.34.34,0,0,0,0-.28.26.26,0,0,1,.06-.29.1.1,0,0,1,0-.09.13.13,0,0,0,0-.1,1.09,1.09,0,0,1,0-.72,3.36,3.36,0,0,0,.09-.72,6.08,6.08,0,0,0,.19-.73q.06-.34.12-.72a4.79,4.79,0,0,1,.13-.82c.08-.38.17-.8.25-1.26s.18-.94.29-1.42.17-.91.22-1.29c0-.08,0,0-.22.34a2,2,0,0,0-.29.6,2.83,2.83,0,0,0-.53.67,2,2,0,0,1-.6.66,11.7,11.7,0,0,1-1.48,1.57c-.53.46-1.06,1-1.61,1.51A9.39,9.39,0,0,1,190.2,163c-.38.29-.76.6-1.14.94l-.31.25a5.06,5.06,0,0,1-2.4,1.07,4.51,4.51,0,0,1-1.7.07,4.9,4.9,0,0,1-.91-.29,1.31,1.31,0,0,1-.6-.66,1.69,1.69,0,0,1-.69-1.2.68.68,0,0,1-.06-.31l.12-1.45a.5.5,0,0,1,.13-.38,1.22,1.22,0,0,0,.25-.88A.22.22,0,0,1,183,160a.62.62,0,0,0,.13-.19,3.25,3.25,0,0,0,.31-.75c.09-.29.17-.55.26-.76a9.31,9.31,0,0,0,.53-.82,5.85,5.85,0,0,1,.54-.75,7.38,7.38,0,0,1,.56-.76,6,6,0,0,0,.51-.69,3.35,3.35,0,0,0,.28-.32,1.75,1.75,0,0,0,.28-.44l.13-.06c.29-.29.58-.59.85-.88a3.17,3.17,0,0,1,.91-.7,3.5,3.5,0,0,1,.45-.18l.37-.13a.35.35,0,0,1,.32-.13h.82a1.64,1.64,0,0,1,.69.19c.25.13.48.23.69.32a2.16,2.16,0,0,1,.79.85,4.19,4.19,0,0,1,.41,1.1l.32.76c.08.08.06.18-.07.28a1,1,0,0,1-.37.22,1.07,1.07,0,0,1-.51.13,1,1,0,0,1-.69-.19,3.59,3.59,0,0,0-.19-.41.55.55,0,0,1-.06-.29c-.09-.2-.17-.43-.26-.66a1.34,1.34,0,0,0-.44-.6q-.06-.18,0-.18s0-.05-.06-.13a.54.54,0,0,0-.6,0,1.63,1.63,0,0,0-.47.28l-.76.76c-.46.59-.92,1.18-1.38,1.79s-.91,1.23-1.33,1.86c-.21.46-.42,1-.63,1.55a13.74,13.74,0,0,0-.5,1.67,2.2,2.2,0,0,1-.06.5,2,2,0,0,0-.07.57.75.75,0,0,0,0,.59c.09.19.17.37.26.54s.16.17.25.13a.59.59,0,0,1,.31-.07h.19a2.2,2.2,0,0,0,.85-.34,4.64,4.64,0,0,1,.79-.48A28,28,0,0,0,191,160a5.64,5.64,0,0,0,.59-.69,6.52,6.52,0,0,1,.67-.76,2.32,2.32,0,0,0,.63-.57q.32-.37.63-.81a1.47,1.47,0,0,1,.31-.35c.13-.11.25-.22.38-.35a3.66,3.66,0,0,1,.47-.66,2.29,2.29,0,0,0,.47-.79l.26-.22a.6.6,0,0,0,.19-.28c.12-.21.23-.4.31-.57a3.2,3.2,0,0,1,.32-.5,6,6,0,0,0,.56-1.45c.17-.76.36-1.51.57-2.27s.44-1.53.69-2.33l.38-1.26c.08-.25.18-.53.28-.85s.22-.64.35-1a.85.85,0,0,1,.13-.37,10.47,10.47,0,0,1,.6-2.21,13.53,13.53,0,0,1,.91-2q.32-.69.57-1.29a12.34,12.34,0,0,0,.44-1.3.61.61,0,0,0,.19-.44,5,5,0,0,0,.75-1.51c.34-.59.68-1.16,1-1.73l1.1-1.73a2.48,2.48,0,0,1,.76-.7s0-.06.13-.06l.91.09a7.31,7.31,0,0,1,.91.16.93.93,0,0,0,.32.1.5.5,0,0,1,.25.09,2.08,2.08,0,0,1,.88,2.08c-.08.59-.19,1.21-.31,1.86a9.56,9.56,0,0,1-.57,1.86.91.91,0,0,0-.06.38q-.25.69-.54,1.32t-.6,1.26q-.31.63-.63,1.2l-.63,1.13c-.25.5-.49,1-.72,1.39s-.5.86-.79,1.32c-.42.76-.85,1.52-1.29,2.3a20.06,20.06,0,0,1-1.54,2.3c-.3.46-.62.93-1,1.42s-.73,1-1.1,1.54a7.4,7.4,0,0,1-.41.69,1.16,1.16,0,0,0-.22.69L198,157a26.08,26.08,0,0,0-.73,3.87c-.19,1.54-.34,3.21-.47,5a.28.28,0,0,0,0,.25.62.62,0,0,1,.06.26c0,.46.09.83.13,1.1s.08.54.12.79a5.18,5.18,0,0,1,.1.56,1.15,1.15,0,0,0,.28.57,6.43,6.43,0,0,1,.38.66c0,.11.25.26.63.47s.37.11.35.07.07,0,.28.06.2.22.1.41a1.23,1.23,0,0,1-.35.41c-.21,0-.29.05-.22,0l-.1,0a2.08,2.08,0,0,1-1.26,0,2.34,2.34,0,0,1-.94-.56,4.9,4.9,0,0,0-.54-.57,1.84,1.84,0,0,1-.41-.51q.19-.18,0-.18a1.61,1.61,0,0,1-.31-.95.22.22,0,0,0-.06-.13A.21.21,0,0,1,194.92,168.46Zm4.35-18.9c.34-.55.66-1.05,1-1.52s.64-.94,1-1.44a3.82,3.82,0,0,1,.29-.48,4.35,4.35,0,0,1,.34-.41,4.46,4.46,0,0,0,.19-.53,3,3,0,0,1,.19-.48c.21-.37.38-.67.51-.88a3.06,3.06,0,0,1,.5-.63.35.35,0,0,0,.12-.25v-.19c.42-.8.82-1.61,1.2-2.42s.78-1.69,1.2-2.62c.12-.54.25-1.09.38-1.64a14.49,14.49,0,0,1,.5-1.7,1.82,1.82,0,0,0-.06-1.07s0-.06-.07-.06h-.18a1.66,1.66,0,0,0-.45.69,14.24,14.24,0,0,0-.72,1.23q-.34.66-.66,1.23c-.59,1.13-1.14,2.2-1.64,3.21a28.23,28.23,0,0,0-1.39,3.34,4,4,0,0,0-.44.76,4.32,4.32,0,0,0-.19.69l-.88,2.33a20.49,20.49,0,0,0-.69,2.27c-.17.12-.21.34-.13.63h.07Z"/><path class="bd01e28b-5514-4547-a27b-2adecf72c89d" d="M209,163.73a2,2,0,0,1-.69-.13l-.88-.25a6.65,6.65,0,0,1-1.39-.91,3.36,3.36,0,0,1-.76-1.48,3.74,3.74,0,0,1-.25-2.33l.57-2c.21-.38.42-.77.63-1.2a7.79,7.79,0,0,0,.5-1.19s0,0,0-.07a.07.07,0,0,1,0-.12.39.39,0,0,1,.25-.19.44.44,0,0,1,.32,0l.44.22a3.72,3.72,0,0,1,.38.22s.06.07.06.1,0,.05.13.09a1.22,1.22,0,0,1,.41.69,1.42,1.42,0,0,1-.29.82l-1.07,2.46c-.12.38-.24.75-.34,1.13a2.32,2.32,0,0,0,0,1.14,1.18,1.18,0,0,0,1.11,1.22,6.57,6.57,0,0,0,1.92,0,11.48,11.48,0,0,0,2-.48,20,20,0,0,0,2.11-.81c.7-.32,1.35-.66,2-1a15.12,15.12,0,0,0,1.54-1l.44-.38a.18.18,0,0,1,.13-.06.38.38,0,0,0,.19-.1l.63-.47a4.65,4.65,0,0,1,.56-.47c.25-.19.44-.35.57-.47a4.31,4.31,0,0,0,.6-.41l.69-.54a1.87,1.87,0,0,1,.63-.32.44.44,0,0,1,.47.19.6.6,0,0,1-.06.6.61.61,0,0,0,0,.66l-.13.38a.59.59,0,0,1-.31.38l-.5.13-.82.69a6,6,0,0,0-.76.75c-.42.34-.76.59-1,.76l-.66.47a4.89,4.89,0,0,1-.6.41q-.32.19-.75.51s-.11.08-.32.12a1.17,1.17,0,0,0-.38.13,2.21,2.21,0,0,1-1,.69c-.38.13-.89.34-1.52.63s-1.35.38-2.17.63A5.54,5.54,0,0,1,209,163.73Zm.57-14.3a1.42,1.42,0,0,0-.32-.13,1,1,0,0,1-.19-.12l-.18-.19a1.46,1.46,0,0,1-.19-1.14l.25-1a2.8,2.8,0,0,1,.5-1c0-.21,0-.27.13-.19a1.42,1.42,0,0,1,.63-.19,2.88,2.88,0,0,1,1.07.69c.21.13.3.27.28.41s-.05.33-.09.54a.34.34,0,0,1-.07.22,2.18,2.18,0,0,0-.12.22,4.92,4.92,0,0,0-.76,1.2c.13.08.11.14-.06.19A1,1,0,0,1,209.54,149.43Z"/><path class="bd01e28b-5514-4547-a27b-2adecf72c89d" d="M208.47,188a4,4,0,0,1,0-1.55,10.41,10.41,0,0,1,.41-1.42,16.46,16.46,0,0,1,.75-2c.3-.65.61-1.32,1-2s.84-1.31,1.26-1.92.86-1.23,1.32-1.86c.21-.29.42-.56.63-.82s.44-.5.69-.75a1.22,1.22,0,0,1,.32-.32,1,1,0,0,0,.31-.31l.51-.7a.34.34,0,0,0,.16-.15A.26.26,0,0,1,216,174a5.14,5.14,0,0,0,.89-.85,9.94,9.94,0,0,1,.81-.91,11,11,0,0,0,.85-.82c.28-.3.54-.59.79-.89l.57-.44a5.64,5.64,0,0,1,.69-.59,4.4,4.4,0,0,0,.7-.67.7.7,0,0,1,.31-.25,6.8,6.8,0,0,0,.76-.63,2.31,2.31,0,0,1,.94-.82,3.64,3.64,0,0,0,1.14-.94l.25-.13L228,163.6a6.3,6.3,0,0,0,.94-.56c.3-.21.61-.42.95-.63a.77.77,0,0,0,.25-.51,3.75,3.75,0,0,1,.12-.82c.05-.2.12-.5.23-.88s.2-.76.31-1.16.2-.78.28-1.14a3.58,3.58,0,0,0,.13-.85,1.65,1.65,0,0,0,0-.63s0-.13,0-.28,0-.2,0-.16a5,5,0,0,0-1.26,1,2.65,2.65,0,0,1-.51.5l-.56.44-1.08.95a1.14,1.14,0,0,0-.31.31,2.69,2.69,0,0,1-.32.38l-1.32,1.26a9.46,9.46,0,0,0-1,.79,8.1,8.1,0,0,1-1,.72l-1,.6c-.34.19-.67.37-1,.54a1.37,1.37,0,0,1-.69.18,2.48,2.48,0,0,0-.76.13,2.07,2.07,0,0,0-.5-.16.74.74,0,0,1-.45-.22l-.62-.75a1.76,1.76,0,0,1-.38-1.77,7.25,7.25,0,0,1,.63-1.7l1.13-1.64a5.3,5.3,0,0,1,.47-.5,1.77,1.77,0,0,0,.41-.5.4.4,0,0,1,.26-.26l1.38-1.38a11.46,11.46,0,0,1,1.51-1.26l2-1.26,1.64-.63a2,2,0,0,1,1.7.31,1.63,1.63,0,0,1,.47.41c.1.15.22.31.35.47a.88.88,0,0,1,.16.23c0,.06,0,.13.09.22a.57.57,0,0,1,.16.28.51.51,0,0,0,.15.28,1.69,1.69,0,0,0,.26.22,1,1,0,0,0,.25.16c.21.13.44.25.69.38a2.28,2.28,0,0,1,.63.44,2,2,0,0,1,.51,1.07,5.79,5.79,0,0,1-.07,1c0,.17-.1.41-.19.72s-.16.66-.25,1-.16.74-.22,1.07a4.79,4.79,0,0,0-.09.76v.13l.25-.13q.63-.32,1.2-.63c.37-.21.75-.4,1.13-.57a4.19,4.19,0,0,1,.82-.41,7.77,7.77,0,0,0,.82-.34,10,10,0,0,1,1.23-.51c.27-.08.7-.23,1.29-.44a1,1,0,0,1,.25-.06l.31-.06a4.88,4.88,0,0,0,.95-.35,2,2,0,0,1,.94-.22.5.5,0,0,1,.35.25.74.74,0,0,0,.35.32l-.07.5c0,.13,0,.19-.06.19a1.33,1.33,0,0,1-.5.25,10.46,10.46,0,0,0-1.77.6l-1.7.72a2.81,2.81,0,0,1-.44.16.35.35,0,0,0-.19.1.35.35,0,0,1-.16.09l-.4.16-.57.31c-.76.38-1.51.77-2.27,1.17s-1.49.83-2.2,1.29a1.2,1.2,0,0,0-.38.69c-.09.34-.16.63-.22.88a6.22,6.22,0,0,0-.16.89c0,.21-.09.42-.13.63s-.08.44-.12.69l-.63,2.52-.26,1.13a3.92,3.92,0,0,1-.15.57,3.88,3.88,0,0,0-.16.57,7.91,7.91,0,0,1-.57,1.7c-.12.25-.24.49-.34.72a2,2,0,0,0-.16.85.88.88,0,0,1-.13.38,17.38,17.38,0,0,0-.85,2,12.93,12.93,0,0,1-.85,1.95l-.12.19a10.59,10.59,0,0,1-.44,1.17,6.19,6.19,0,0,1-.63,1,11.12,11.12,0,0,1-.73,1.42l-.85,1.36-.6,1a5,5,0,0,1-.72.92c-.09,0-.13,0-.13.12a8.94,8.94,0,0,1-1.61,1.89c-.6.55-1.24,1.09-1.92,1.64A5.33,5.33,0,0,1,218,191a12.3,12.3,0,0,1-1.26.66l-1.26.57a4.83,4.83,0,0,1-.72.35,2.45,2.45,0,0,1-.85.15h-.07a2.34,2.34,0,0,1-1,.16,4.94,4.94,0,0,1-1-.16A5.11,5.11,0,0,1,209.1,191l-.26-.51a7.77,7.77,0,0,1-.37-1.23A2.79,2.79,0,0,1,208.47,188Zm4.09,3.08a9.57,9.57,0,0,0,1-.09,4.84,4.84,0,0,0,1-.22l.32-.19c.33-.21.68-.41,1-.6a8.21,8.21,0,0,0,1-.6,2.22,2.22,0,0,0,.69-.38.51.51,0,0,1,.16-.09.55.55,0,0,0,.22-.16l1.39-1.26a4.68,4.68,0,0,0,.63-.63c.17-.21.35-.44.57-.69s.4-.57.59-.82a6.75,6.75,0,0,1,.6-.69,9.89,9.89,0,0,0,1.07-1.64,4,4,0,0,1,.7-1.07c.12-.3.25-.61.37-.95a6.39,6.39,0,0,1,.51-1q.12-.12.12-.18a.37.37,0,0,1,.07-.19,1.22,1.22,0,0,0,.09-.32.94.94,0,0,1,.16-.38,8.77,8.77,0,0,0,.57-1.23c.16-.44.35-.89.56-1.35.09-.25.17-.51.26-.79a3,3,0,0,1,.31-.72,1.84,1.84,0,0,0,.25-.66,2.88,2.88,0,0,1,.25-.73l.26-.94.25-1.07a6.15,6.15,0,0,0,.38-1.17,10.37,10.37,0,0,1,.31-1.16,2,2,0,0,0,.13-.63l.25-1.45.31-1.33v-.25l-.12-.12a.19.19,0,0,1-.13.06.05.05,0,0,0-.06.06l-1.45,1c-.55.38-1.1.78-1.67,1.2A21,21,0,0,0,223.9,169l-1.2,1-1.32,1.1q-.63.54-1.26,1.17l-1.2,1.26-1.26,1.13L216.53,176a15.18,15.18,0,0,1-1.07,1.33,15.4,15.4,0,0,0-1.07,1.32c-.29.46-.6.92-.92,1.38s-.59.93-.85,1.39a8.11,8.11,0,0,0-1,1.67l-.82,1.8-.13.37c-.08.3-.14.59-.19.89s-.08.56-.12.81a4.58,4.58,0,0,0-.07,1.71.92.92,0,0,1,.07.44.47.47,0,0,0,.12.63,5.13,5.13,0,0,0,.44.6l.57.59a1.82,1.82,0,0,0,.28.13,1,1,0,0,0,.35.06Zm15.63-36.79a1.65,1.65,0,0,0-.63,0,4.74,4.74,0,0,0-.57.19l-.69.31c-.13,0-.19,0-.19.07-.47.29-1,.61-1.45.94a4.82,4.82,0,0,0-1.26,1.2l-1.39,1.2c-.25.33-.46.64-.63.91s-.36.56-.57.85l-.37.69a.78.78,0,0,0-.07.7c0,.08,0,.12.13.12a1.36,1.36,0,0,0,.82-.19,6.84,6.84,0,0,0,1.76-.94,4.16,4.16,0,0,0,.57-.41c.17-.15.36-.31.57-.47a2.52,2.52,0,0,0,.44-.32,2.59,2.59,0,0,0,.56-.47q.19-.22.51-.54a7.4,7.4,0,0,0,.72-.53l.73-.6c.16-.21.32-.4.47-.57a2.41,2.41,0,0,1,.54-.44,1.21,1.21,0,0,0,.44-.41,3.21,3.21,0,0,1,.37-.47c.13,0,.13-.06,0-.19a1.32,1.32,0,0,0-.5-.5l-.25-.13Z"/><path class="bd01e28b-5514-4547-a27b-2adecf72c89d" d="M244.94,163.73a2,2,0,0,1-.69-.13l-.88-.25a6.94,6.94,0,0,1-1.39-.91,3.36,3.36,0,0,1-.75-1.48,3.75,3.75,0,0,1-.26-2.33l.57-2c.21-.38.42-.77.63-1.2a7.79,7.79,0,0,0,.5-1.19c.05,0,.05,0,0-.07a.07.07,0,0,1,0-.12.51.51,0,0,1,.57-.19l.44.22a2.88,2.88,0,0,1,.38.22s.06.07.06.1,0,.05.13.09a1.22,1.22,0,0,1,.41.69,1.4,1.4,0,0,1-.28.82l-1.07,2.46c-.13.38-.25.75-.35,1.13a2.21,2.21,0,0,0,0,1.14,1.18,1.18,0,0,0,1.1,1.22,6.57,6.57,0,0,0,1.92,0,11.48,11.48,0,0,0,2-.48,20,20,0,0,0,2.11-.81c.7-.32,1.35-.66,2-1a14.07,14.07,0,0,0,1.54-1l.44-.38a.19.19,0,0,1,.13-.06.38.38,0,0,0,.19-.1l.63-.47a4.65,4.65,0,0,1,.56-.47,5.07,5.07,0,0,0,.57-.47,4.31,4.31,0,0,0,.6-.41q.35-.28.69-.54a1.87,1.87,0,0,1,.63-.32.44.44,0,0,1,.47.19.6.6,0,0,1-.06.6.65.65,0,0,0,0,.66l-.12.38c-.09.21-.19.34-.32.38l-.5.13-.82.69a6.67,6.67,0,0,0-.76.75c-.42.34-.75.59-1,.76l-.66.47a4.89,4.89,0,0,1-.6.41q-.31.19-.75.51s-.11.08-.32.12a1.17,1.17,0,0,0-.38.13,2.21,2.21,0,0,1-1,.69c-.38.13-.88.34-1.51.63s-1.36.38-2.18.63A5.54,5.54,0,0,1,244.94,163.73Zm.57-14.3a1.43,1.43,0,0,0-.31-.13.62.62,0,0,1-.19-.12l-.19-.19a1.5,1.5,0,0,1-.19-1.14l.25-1a2.8,2.8,0,0,1,.5-1c0-.21.05-.27.13-.19a1.42,1.42,0,0,1,.63-.19,2.88,2.88,0,0,1,1.07.69c.21.13.31.27.28.41s-.05.33-.09.54a.4.4,0,0,1-.06.22,1.16,1.16,0,0,0-.13.22,4.92,4.92,0,0,0-.76,1.2c.13.08.11.14-.06.19A1,1,0,0,1,245.51,149.43Z"/><path class="bd01e28b-5514-4547-a27b-2adecf72c89d" d="M257.42,153.65a5.92,5.92,0,0,1,.15-.69,4.85,4.85,0,0,0,.16-.63s0-.07.13-.35.19-.62.31-1,.25-.85.38-1.29a9.15,9.15,0,0,1,.38-1.1,6.8,6.8,0,0,0,.38-1,5.46,5.46,0,0,1,.37-1A5.85,5.85,0,0,0,260,146l.38-.82c.12-.29.23-.57.31-.82a1.82,1.82,0,0,0,.13-.57l-.07.07h-.06c-.08-.09-.15-.07-.19.06l-1.13.38-1.76.63a1.74,1.74,0,0,1-.41.12h-.13l-.09,0-.32.16a4.09,4.09,0,0,1-.72.22l-.92.22a1,1,0,0,1-.57-.25c-.16-.08-.19-.22-.09-.41s.14-.3.09-.35l-.06-.06c0-.29,0-.46.22-.5a2.67,2.67,0,0,1,.54-.07l1.26-.44a1,1,0,0,0,.12-.15c0-.07.13-.06.26,0a3.15,3.15,0,0,1,.82-.32,1,1,0,0,1,.37-.12,2.4,2.4,0,0,1,.79-.35c.27-.06.54-.12.79-.16l.25-.12a.47.47,0,0,1,.25-.07,3.92,3.92,0,0,0,.57-.15l.57-.22c.29-.13.44-.23.44-.32a.17.17,0,0,1,.06-.12v-.07l.38-.94,2.77-7.06a3,3,0,0,0,.13-.35c0-.14.1-.32.18-.53l.19-.32c.09-.21.34-.31.76-.31a1.52,1.52,0,0,1,.95.25l.15.32c.07.12.14.25.22.37a2,2,0,0,1,.13.38.55.55,0,0,1-.06.44,34.66,34.66,0,0,0-1.83,3.66c-.51,1.17-1.05,2.41-1.64,3.71-.08.09-.07.12,0,.1s.18,0,.22,0c.88-.21,1.57-.36,2.05-.44s1.12-.23,1.92-.44a1.53,1.53,0,0,0,.7-.16.63.63,0,0,1,.62,0,.55.55,0,0,1,.32,0,.34.34,0,0,0,.31-.09,1.51,1.51,0,0,1,1.14.06c.17-.08.29-.11.38-.06a.8.8,0,0,1,.72,0,1.8,1.8,0,0,0,.79.16q.12-.06.09.06c0,.09,0,.13,0,.13s.19,0,.22.1,0,.09-.1.09-.29.18-.25.28,0,.16,0,.16a5,5,0,0,1-1,.16,3.18,3.18,0,0,0-.94.22,5.74,5.74,0,0,0-.6,0,2.06,2.06,0,0,0-.6.16l-.25.12a4.08,4.08,0,0,0-1.48.16c-.53.15-1,.26-1.54.35a5.93,5.93,0,0,0-.6.22l-.54.22-1.07.19-.94.31c-.21,0-.33,0-.35.13a.5.5,0,0,1-.16.25,2.39,2.39,0,0,0-.22.5c-.1.3-.21.61-.31,1s-.22.65-.35.95l-.25.56c-.51,1.47-1,2.86-1.51,4.16a41.65,41.65,0,0,0-1.33,4,41,41,0,0,0-.94,4.32,31,31,0,0,0-.38,5c0,1,0,1.73.06,2.17a4,4,0,0,0,.16.91.67.67,0,0,0,.19.32.88.88,0,0,1,.22.31,1.52,1.52,0,0,1,.66.29.85.85,0,0,1,.35.47.47.47,0,0,1-.16.47,1.21,1.21,0,0,1-.85.22.37.37,0,0,1-.25-.12,5,5,0,0,1-1.1-.48,1.79,1.79,0,0,1-.48-.78,5.77,5.77,0,0,1-.6-2.4q-.09-1.52-.09-2.64l.13-2.34a4.44,4.44,0,0,1,.06-.88c0-.16.1-.46.19-.88a21.43,21.43,0,0,1,.34-2.24c.19-.94.37-1.69.54-2.23Z"/><path class="bd01e28b-5514-4547-a27b-2adecf72c89d" d="M281,162.16a2.67,2.67,0,0,1-1-.19,9.9,9.9,0,0,1-1-.6,2.85,2.85,0,0,1-.81-.85,7.05,7.05,0,0,1-1.2-2.46.17.17,0,0,0-.19-.19l-1.07,1.07-1.86,1.51a21.39,21.39,0,0,1-1.86,1.39q-.63.38-1.23.69a4.7,4.7,0,0,1-1.29.45,4.79,4.79,0,0,1-1.57.25,1.51,1.51,0,0,1-1.64-1.14l-.51-.94a2,2,0,0,1-.06-1.64,3.33,3.33,0,0,1,.41-.95,5,5,0,0,0,.47-.88l.7-.88a25.76,25.76,0,0,1,1.85-1.92,16.09,16.09,0,0,1,2-1.61l1.07-.63a3.82,3.82,0,0,1,1.89-.5,1,1,0,0,1,.82.31,3.5,3.5,0,0,1,1.07,1.83,1,1,0,0,1-.12.38c-.13.08-.21.08-.25,0l-.45-.38c-.21-.21-.4-.25-.56-.13-.34.09-.67.16-1,.23a2.84,2.84,0,0,0-1,.4,8.16,8.16,0,0,0-2.08,1.52,1.21,1.21,0,0,0-.44.38,9,9,0,0,0-2.33,2.77,3,3,0,0,0-.69,1.45c-.09.16-.05.25.12.25a1.31,1.31,0,0,0,.38.06h.32a6.37,6.37,0,0,1,.91-.19,1.94,1.94,0,0,0,.85-.31,10.59,10.59,0,0,0,3.28-2.15l1.51-1.25.34-.23a1.23,1.23,0,0,0,.29-.22l1-1.07a11.77,11.77,0,0,0,1-1.19.52.52,0,0,1,.76-.19l.56.28a1,1,0,0,1,.45.41c0,.17.07.3.09.41a1,1,0,0,1,0,.41c0,.25-.08.52-.1.82s0,.59,0,.88a4.36,4.36,0,0,0,.44,1.95.53.53,0,0,0,.29.16.5.5,0,0,1,.28.16,3.13,3.13,0,0,0,1.83.53,5.36,5.36,0,0,0,1.89-.41,8.59,8.59,0,0,1,.88-.28,3.19,3.19,0,0,0,.88-.41,11.78,11.78,0,0,1,1.39-.94,4.81,4.81,0,0,0,1.26-1.14c.12-.12.35-.39.69-.79a4.54,4.54,0,0,0,.63-.85l.19-.12s.09-.07.28-.07.29,0,.29.07l.25.38A1.29,1.29,0,0,1,290,157c-.31.48-.55.83-.72,1a9.39,9.39,0,0,1-3.31,3,8.61,8.61,0,0,1-3.75,1.14l-.56.06Q281.16,162.28,281,162.16Z"/><path class="bd01e28b-5514-4547-a27b-2adecf72c89d" d="M286.9,166.5a.53.53,0,0,1,.06-.56,1.67,1.67,0,0,0,.13-.67v-.72a2.05,2.05,0,0,1,.09-.91,4.64,4.64,0,0,0,.22-1,2.71,2.71,0,0,1,.13-.82c.08-.25.17-.54.25-.88l.19-1.45a6,6,0,0,0,.35-1.23,6.52,6.52,0,0,1,.34-1.29v-.13c.09-.21.27-.73.54-1.57s.57-1.73.88-2.68.61-1.79.88-2.55a8.38,8.38,0,0,1,.48-1.2c.16-.46.3-.89.41-1.29a7.58,7.58,0,0,1,.47-1.29,2.53,2.53,0,0,1,.25-.69,5.29,5.29,0,0,0,.31-.76,6.12,6.12,0,0,0,.57-1.32,7.4,7.4,0,0,1,.51-1.26c.08,0,.12-.09.12-.13l.73-2.08a15.69,15.69,0,0,1,.85-2q.38-.89.72-1.74a13.86,13.86,0,0,0,.6-1.85l.13-.57a1,1,0,0,1,.06-.35.7.7,0,0,0,0-.41c0-.21.21-.38.63-.5a1.86,1.86,0,0,1,.94.12l.82.38a.77.77,0,0,1,.19.29.37.37,0,0,1-.06.34c-.25.84-.54,1.65-.85,2.43s-.64,1.6-1,2.49l-1.45,3.46a.56.56,0,0,0-.06.22.31.31,0,0,1-.13.22c-.16.42-.31.81-.44,1.17a6.61,6.61,0,0,1-.5,1.1,9,9,0,0,0-.69,1.8,8.15,8.15,0,0,1-.76,1.79,5.74,5.74,0,0,1-.32.85,5.51,5.51,0,0,0-.31.92c-.09.21-.22.57-.41,1.1s-.39,1.12-.6,1.79l-.63,2c-.21.67-.38,1.24-.5,1.7-.09.3-.18.61-.29.95a6.3,6.3,0,0,0-.22.94c-.08.38-.15.74-.22,1.07a4,4,0,0,1-.34,1c-.17.71-.32,1.35-.44,1.92a5.31,5.31,0,0,0-.13,1.61,4.84,4.84,0,0,1-.13,1.13,4,4,0,0,0-.06,1.2.41.41,0,0,1,0,.31l-.13.32a2.87,2.87,0,0,0,0,1.1,7.69,7.69,0,0,0,.29,1.17l.12.12a.22.22,0,0,0,.07.19.08.08,0,0,0,.12,0,.45.45,0,0,1,.54,0,.54.54,0,0,1,.19.47.91.91,0,0,1-.32.54,1.46,1.46,0,0,1-1,.25,1.81,1.81,0,0,1-1.32-.57,1.48,1.48,0,0,1-.57-.72c-.08-.27-.16-.58-.25-.91a3.19,3.19,0,0,0,0-1.23A7.88,7.88,0,0,1,286.9,166.5Z"/><path class="bd01e28b-5514-4547-a27b-2adecf72c89d" d="M326.34,162.16a2.64,2.64,0,0,1-1-.19,8.92,8.92,0,0,1-1-.6,3,3,0,0,1-.82-.85,7.21,7.21,0,0,1-1.19-2.46.17.17,0,0,0-.19-.19l-1.07,1.07-1.86,1.51a21.39,21.39,0,0,1-1.86,1.39q-.63.38-1.23.69a4.7,4.7,0,0,1-1.29.45,4.8,4.8,0,0,1-1.58.25,1.51,1.51,0,0,1-1.63-1.14l-.51-.94a2,2,0,0,1-.06-1.64,3.08,3.08,0,0,1,.41-.95,5.77,5.77,0,0,0,.47-.88l.69-.88q.88-1,1.86-1.92a14.8,14.8,0,0,1,2.05-1.61l1.07-.63a3.82,3.82,0,0,1,1.89-.5,1,1,0,0,1,.82.31,3.64,3.64,0,0,1,1.07,1.83.88.88,0,0,1-.13.38c-.12.08-.21.08-.25,0l-.44-.38c-.21-.21-.4-.25-.57-.13-.33.09-.67.16-1,.23a2.77,2.77,0,0,0-1,.4,8,8,0,0,0-2.08,1.52,1.14,1.14,0,0,0-.44.38,9,9,0,0,0-2.33,2.77,3.08,3.08,0,0,0-.7,1.45c-.08.16,0,.25.13.25a1.26,1.26,0,0,0,.38.06h.31a6.81,6.81,0,0,1,.92-.19,1.94,1.94,0,0,0,.85-.31,10.55,10.55,0,0,0,3.27-2.15l1.52-1.25.34-.23a1.23,1.23,0,0,0,.29-.22l1-1.07a11.76,11.76,0,0,0,1-1.19.51.51,0,0,1,.75-.19l.57.28a.93.93,0,0,1,.44.41c0,.17.07.3.1.41a1,1,0,0,1,0,.41,6.34,6.34,0,0,0-.1.82c0,.29,0,.59,0,.88a4.36,4.36,0,0,0,.44,1.95.5.5,0,0,0,.28.16.53.53,0,0,1,.29.16,3.08,3.08,0,0,0,1.82.53,5.36,5.36,0,0,0,1.89-.41,8.69,8.69,0,0,1,.89-.28,3.19,3.19,0,0,0,.88-.41,11.79,11.79,0,0,1,1.38-.94,4.81,4.81,0,0,0,1.26-1.14c.13-.12.36-.39.7-.79a5.74,5.74,0,0,0,.63-.85l.19-.12s.09-.07.28-.07.28,0,.28.07l.26.38a1.29,1.29,0,0,1-.29,1.16c-.31.48-.55.83-.72,1a9.48,9.48,0,0,1-3.31,3,8.61,8.61,0,0,1-3.75,1.14l-.57.06C326.61,162.26,326.42,162.24,326.34,162.16Z"/><path class="bd01e28b-5514-4547-a27b-2adecf72c89d" d="M342.47,153.46a.41.41,0,0,1,0,.19.47.47,0,0,0,0,.19.21.21,0,0,1-.12.19c-.09,0-.15,0-.19,0A.18.18,0,0,1,342,154a1.24,1.24,0,0,0-.69-.29,3.84,3.84,0,0,0-.82,0q-.94.25-1.92.57a9.65,9.65,0,0,0-1.86.82,5.67,5.67,0,0,0-1.26.82c-.25.21-.21.38.12.5a.93.93,0,0,0,.38.13c.26.08.51.16.76.22l.82.22a8.17,8.17,0,0,1,1.1.32l1.1.37a2.66,2.66,0,0,0,.7.22,2,2,0,0,1,.69.35,1.12,1.12,0,0,0,.76.19c.67-.17,1.38-.32,2.14-.44a4.28,4.28,0,0,1,.72-.19l.79-.13a4.56,4.56,0,0,0,.75-.12l1.2-.29,1.2-.28a5.06,5.06,0,0,1,.76-.13,1.19,1.19,0,0,0,.37-.06,1.31,1.31,0,0,1,.38-.06c.21-.13.34-.15.38-.06.25-.05.59-.1,1-.16s.67,0,.75.22c.26.21.34.39.26.53a.86.86,0,0,1-.45.35,3.43,3.43,0,0,1-.72.19,4.7,4.7,0,0,1-.66.06,2.65,2.65,0,0,0-.85.13l-.79.25-3.59.82c-.38.08-.88.22-1.51.41a3.45,3.45,0,0,0-1.14.47c-.12.09-.11.22,0,.41a1.75,1.75,0,0,1,.29.47,1,1,0,0,1,.09.48,2.22,2.22,0,0,0,0,.41,2.93,2.93,0,0,1-1,2.2,7.27,7.27,0,0,1-1.22,1.2l-1.36,1a15.26,15.26,0,0,1-1.54.92,16.49,16.49,0,0,1-1.61.72.34.34,0,0,1-.25.13,11.09,11.09,0,0,0-1.29.31,4,4,0,0,1-1.23.19.63.63,0,0,0-.32.07.54.54,0,0,1-.25.06,3.43,3.43,0,0,1-1,0,2.46,2.46,0,0,1-.94-.41,1.49,1.49,0,0,1-.47-.41,2.72,2.72,0,0,1-.29-.54l-.19-.94a.46.46,0,0,1,.13-.32,3.77,3.77,0,0,1,.88-1.51c.46-.42.91-.81,1.36-1.16a10.73,10.73,0,0,1,1.41-1,3.78,3.78,0,0,0,.7-.44,2,2,0,0,1,.75-.38.55.55,0,0,1,.19-.06.19.19,0,0,0,.13-.07c.58-.33,1.18-.65,1.79-.94a19.31,19.31,0,0,1,1.8-.76.11.11,0,0,0,.12-.12s-.06,0-.06,0,0,.07-.06,0l-1.17-.41a9.48,9.48,0,0,0-1.16-.35l-1.2-.31a2.41,2.41,0,0,1-.88-.32,2,2,0,0,1-1.39-2,1.76,1.76,0,0,1,.57-1.7c.13-.13.25-.24.38-.35a3.37,3.37,0,0,1,.38-.28,7.48,7.48,0,0,1,1.48-.85l1.54-.66a15.21,15.21,0,0,1,2.58-.69,1.06,1.06,0,0,0,.29,0l.28,0a.87.87,0,0,1,1,.51,1.18,1.18,0,0,0,.12.31A1,1,0,0,1,342.47,153.46Zm-10,13.42a3.36,3.36,0,0,0,.63-.06l.63-.13a14.12,14.12,0,0,0,2.65-.88l.63-.38a4.58,4.58,0,0,1,.63-.31l.44-.32,1.57-1.07a9.74,9.74,0,0,0,1.77-1.7.48.48,0,0,0,.12-.35.66.66,0,0,1,.07-.34c.08-.09.09-.11,0-.07s-.06,0,0-.06a1.06,1.06,0,0,0-.19-.44c-.13-.21-.23-.29-.31-.25a13.37,13.37,0,0,0-1.52.69c-.46.25-1,.51-1.51.76a2.57,2.57,0,0,0-.6.34,2.29,2.29,0,0,1-.6.35l-.37.19-1.33.75a.71.71,0,0,1-.31.19,1,1,0,0,0-.32.19q-.37.32-.78.6a9.63,9.63,0,0,0-.79.6,4.67,4.67,0,0,0-1.26,1.45l.06.12A3.49,3.49,0,0,0,332.51,166.88Z"/><path class="bd01e28b-5514-4547-a27b-2adecf72c89d" d="M360,153.46a.44.44,0,0,1,0,.19.47.47,0,0,0,0,.19.22.22,0,0,1-.13.19c-.08,0-.15,0-.19,0a.17.17,0,0,1-.12-.06,1.3,1.3,0,0,0-.7-.29,3.86,3.86,0,0,0-.82,0q-.94.25-1.92.57a9.65,9.65,0,0,0-1.86.82,5.91,5.91,0,0,0-1.26.82c-.25.21-.21.38.13.5a.88.88,0,0,0,.38.13c.25.08.5.16.75.22l.82.22a7.77,7.77,0,0,1,1.1.32l1.11.37a2.51,2.51,0,0,0,.69.22,1.84,1.84,0,0,1,.69.35,1.14,1.14,0,0,0,.76.19c.67-.17,1.39-.32,2.14-.44a4.14,4.14,0,0,1,.73-.19l.78-.13a4.62,4.62,0,0,0,.76-.12l1.2-.29,1.19-.28a5.06,5.06,0,0,1,.76-.13,1.31,1.31,0,0,0,.38-.06,1.19,1.19,0,0,1,.37-.06c.21-.13.34-.15.38-.06.25-.05.59-.1,1-.16s.67,0,.76.22c.25.21.33.39.25.53a.83.83,0,0,1-.44.35,3.37,3.37,0,0,1-.73.19,4.7,4.7,0,0,1-.66.06,2.7,2.7,0,0,0-.85.13l-.79.25-3.59.82c-.38.08-.88.22-1.51.41a3.26,3.26,0,0,0-1.13.47c-.13.09-.12.22,0,.41a2,2,0,0,1,.28.47.9.9,0,0,1,.1.48,1.59,1.59,0,0,0,0,.41,4.37,4.37,0,0,1-.23,1.1,3.9,3.9,0,0,1-.78,1.1,7.72,7.72,0,0,1-1.23,1.2c-.44.33-.89.67-1.36,1a15.26,15.26,0,0,1-1.54.92,16.49,16.49,0,0,1-1.61.72.33.33,0,0,1-.25.13,11.09,11.09,0,0,0-1.29.31,4,4,0,0,1-1.23.19.59.59,0,0,0-.31.07.61.61,0,0,1-.25.06,3.41,3.41,0,0,1-1,0,2.5,2.5,0,0,1-.95-.41,1.49,1.49,0,0,1-.47-.41,2.28,2.28,0,0,1-.28-.54l-.19-.94a.45.45,0,0,1,.12-.32,3.79,3.79,0,0,1,.89-1.51c.46-.42.91-.81,1.35-1.16a10.21,10.21,0,0,1,1.42-1,4.05,4.05,0,0,0,.69-.44,2,2,0,0,1,.76-.38.46.46,0,0,1,.18-.06.16.16,0,0,0,.13-.07c.59-.33,1.19-.65,1.8-.94a18.09,18.09,0,0,1,1.79-.76c.09,0,.13,0,.13-.12s-.07,0-.07,0,0,.07-.06,0c-.38-.13-.77-.26-1.16-.41a9.61,9.61,0,0,0-1.17-.35l-1.2-.31a2.48,2.48,0,0,1-.88-.32,2,2,0,0,1-1.38-2,1.73,1.73,0,0,1,.56-1.7c.13-.13.25-.24.38-.35a4.61,4.61,0,0,1,.38-.28,7.48,7.48,0,0,1,1.48-.85l1.54-.66a15.06,15.06,0,0,1,2.59-.69,1,1,0,0,0,.28,0l.28,0a.87.87,0,0,1,1,.51,1,1,0,0,0,.13.31A1,1,0,0,1,360,153.46Zm-10,13.42a3.36,3.36,0,0,0,.63-.06l.62-.13a14.12,14.12,0,0,0,2.65-.88l.63-.38a4.58,4.58,0,0,1,.63-.31l.44-.32,1.58-1.07A9.69,9.69,0,0,0,359,162a.48.48,0,0,0,.13-.35.8.8,0,0,1,.06-.34c.08-.09.09-.11,0-.07s-.05,0,0-.06a1.06,1.06,0,0,0-.19-.44c-.12-.21-.23-.29-.31-.25a12.45,12.45,0,0,0-1.51.69c-.47.25-1,.51-1.51.76a2.38,2.38,0,0,0-.6.34,2.29,2.29,0,0,1-.6.35l-.38.19-1.32.75a.74.74,0,0,1-.32.19,1,1,0,0,0-.31.19c-.26.21-.52.41-.79.6s-.54.39-.79.6a4.8,4.8,0,0,0-1.26,1.45l.07.12A3.19,3.19,0,0,0,350,166.88Z"/><path class="bd01e28b-5514-4547-a27b-2adecf72c89d" d="M371.13,164.3c-.46-.09-.94-.16-1.42-.22a2.3,2.3,0,0,1-1.23-.54,12.65,12.65,0,0,1-1.29-1.51,2.49,2.49,0,0,1-.47-1.83c0-.08,0-.26,0-.53a.86.86,0,0,1,.16-.54l.12-.38c.21-.5.36-.84.45-1s.27-.49.56-.95a13.31,13.31,0,0,1,2.78-3,8.54,8.54,0,0,1,1.13-.85,12.82,12.82,0,0,1,1.38-.79,1,1,0,0,0,.51-.19,1.31,1.31,0,0,1,1,.06,3.15,3.15,0,0,1,.85.57l.25.63a2.79,2.79,0,0,1-.76,2.46,19.81,19.81,0,0,1-1.48,1.57,19.51,19.51,0,0,1-1.67,1.45,1.36,1.36,0,0,1-.34.25,2.29,2.29,0,0,0-.35.25.78.78,0,0,1-.47.23l-.6.09a.59.59,0,0,1-.88-.19l-.25-.19h-.13a.05.05,0,0,0-.06.06,1.89,1.89,0,0,0-.35,1c0,.38,0,.72,0,1a2.19,2.19,0,0,0,1,1.14,2,2,0,0,0,.66.12,3.14,3.14,0,0,0,.69.06,9.53,9.53,0,0,1,1.11-.06,3.25,3.25,0,0,0,1.22-.25,25.91,25.91,0,0,0,4.23-1.39c1.26-.54,2.54-1.11,3.84-1.7.67-.33,1.29-.66,1.86-1s1.14-.62,1.73-.92a8,8,0,0,0,.69-.41l.76-.53c.21-.21.32-.31.34-.29a1.62,1.62,0,0,0,.54-.15c.08-.09.12-.1.09,0a.46.46,0,0,0,0,.29l.15.6a.45.45,0,0,1-.15.53c-.3.3-.42.45-.38.47s-.09.16-.38.41a15.24,15.24,0,0,1-1.89,1.2c-.63.34-1.28.72-1.95,1.13l-1.29.63c-.4.22-.79.4-1.17.57l-2.55,1a16.38,16.38,0,0,1-2.68.85l-1.83.51a6.76,6.76,0,0,1-1.07.22C372,164.29,371.63,164.3,371.13,164.3Zm-.82-6.74a11.61,11.61,0,0,0,2-1.52,18,18,0,0,0,1.82-1.95.27.27,0,0,0-.12,0,.31.31,0,0,1-.13,0,8.58,8.58,0,0,0-2,1.2,5,5,0,0,0-1.35,1.77S370.39,157.26,370.31,157.56Z"/><path class="bd01e28b-5514-4547-a27b-2adecf72c89d" d="M387,153.65c.05-.25.1-.48.16-.69a4.85,4.85,0,0,0,.16-.63s0-.07.13-.35.18-.62.31-1,.25-.85.38-1.29a9.15,9.15,0,0,1,.38-1.1,6.8,6.8,0,0,0,.38-1,5.46,5.46,0,0,1,.37-1,5.85,5.85,0,0,0,.32-.57l.38-.82c.12-.29.23-.57.31-.82a2.16,2.16,0,0,0,.13-.57l-.07.07h-.06c-.08-.09-.15-.07-.19.06l-1.13.38-1.77.63a1.51,1.51,0,0,1-.41.12h-.12l-.1,0-.31.16a4,4,0,0,1-.73.22l-.91.22a.94.94,0,0,1-.57-.25c-.16-.08-.19-.22-.09-.41s.14-.3.09-.35l-.06-.06c0-.29,0-.46.22-.5a2.67,2.67,0,0,1,.54-.07l1.26-.44a1,1,0,0,0,.12-.15c0-.07.13-.06.25,0a3.44,3.44,0,0,1,.82-.32,1,1,0,0,1,.38-.12,2.31,2.31,0,0,1,.79-.35c.27-.06.54-.12.79-.16l.25-.12a.47.47,0,0,1,.25-.07,3.92,3.92,0,0,0,.57-.15l.56-.22c.3-.13.45-.23.45-.32a.17.17,0,0,1,.06-.12v-.07l.38-.94,2.77-7.06a3,3,0,0,0,.13-.35c0-.14.1-.32.18-.53l.19-.32c.09-.21.34-.31.76-.31a1.47,1.47,0,0,1,.94.25c.05.09.1.19.16.32a3.6,3.6,0,0,0,.22.37,2,2,0,0,1,.13.38.51.51,0,0,1-.07.44,36.54,36.54,0,0,0-1.82,3.66c-.51,1.17-1.05,2.41-1.64,3.71-.09.09-.07.12,0,.1s.18,0,.22,0c.88-.21,1.57-.36,2.05-.44s1.12-.23,1.92-.44a1.46,1.46,0,0,0,.69-.16.64.64,0,0,1,.63,0,.55.55,0,0,1,.32,0,.34.34,0,0,0,.31-.09,1.51,1.51,0,0,1,1.14.06c.17-.08.29-.11.38-.06a.8.8,0,0,1,.72,0,1.8,1.8,0,0,0,.79.16q.12-.06.09.06c0,.09,0,.13,0,.13s.2,0,.22.1,0,.09-.09.09-.29.18-.25.28,0,.16,0,.16a5,5,0,0,1-.95.16,3.18,3.18,0,0,0-.94.22,5.74,5.74,0,0,0-.6,0,2.06,2.06,0,0,0-.6.16l-.25.12a4.08,4.08,0,0,0-1.48.16,15.56,15.56,0,0,1-1.55.35c-.25.08-.45.16-.59.22l-.54.22-1.07.19-.95.31c-.21,0-.32,0-.34.13a.59.59,0,0,1-.16.25,1.92,1.92,0,0,0-.22.5c-.1.3-.21.61-.31,1s-.23.65-.35.95l-.25.56c-.51,1.47-1,2.86-1.51,4.16a41.65,41.65,0,0,0-1.33,4,41,41,0,0,0-.94,4.32,29.88,29.88,0,0,0-.38,5c0,1,0,1.73.06,2.17a4,4,0,0,0,.16.91.67.67,0,0,0,.19.32,1,1,0,0,1,.22.31,1.52,1.52,0,0,1,.66.29.9.9,0,0,1,.35.47.47.47,0,0,1-.16.47,1.21,1.21,0,0,1-.85.22.35.35,0,0,1-.25-.12,5.46,5.46,0,0,1-1.11-.48,1.9,1.9,0,0,1-.47-.78,5.77,5.77,0,0,1-.6-2.4q-.09-1.52-.09-2.64l.12-2.34a4.24,4.24,0,0,1,.07-.88c0-.16.1-.46.19-.88a19,19,0,0,1,.34-2.24c.19-.94.37-1.69.54-2.23Z"/><path class="bd01e28b-5514-4547-a27b-2adecf72c89d" d="M405.46,153.46a.44.44,0,0,1,0,.19.47.47,0,0,0,0,.19.2.2,0,0,1-.13.19q-.12.06-.18,0A.18.18,0,0,1,405,154a1.24,1.24,0,0,0-.69-.29,3.82,3.82,0,0,0-.82,0q-.94.25-1.92.57a9.14,9.14,0,0,0-1.86.82,5.67,5.67,0,0,0-1.26.82c-.25.21-.21.38.12.5a.93.93,0,0,0,.38.13c.25.08.51.16.76.22l.82.22a8.62,8.62,0,0,1,1.1.32l1.1.37a2.74,2.74,0,0,0,.69.22,1.94,1.94,0,0,1,.7.35,1.1,1.1,0,0,0,.75.19c.67-.17,1.39-.32,2.15-.44a4.28,4.28,0,0,1,.72-.19l.79-.13a4.72,4.72,0,0,0,.75-.12l1.2-.29,1.2-.28a5.22,5.22,0,0,1,.75-.13,1.21,1.21,0,0,0,.38-.06,1.26,1.26,0,0,1,.38-.06c.21-.13.34-.15.38-.06.25-.05.58-.1,1-.16s.67,0,.75.22c.25.21.34.39.25.53a.8.8,0,0,1-.44.35,3.43,3.43,0,0,1-.72.19,5,5,0,0,1-.66.06,2.65,2.65,0,0,0-.85.13l-.79.25-3.59.82c-.38.08-.88.22-1.51.41a3.45,3.45,0,0,0-1.14.47c-.12.09-.11.22,0,.41a2.06,2.06,0,0,1,.29.47,1,1,0,0,1,.09.48,2.22,2.22,0,0,0,0,.41,4.42,4.42,0,0,1-.22,1.1,4.22,4.22,0,0,1-.79,1.1,7.72,7.72,0,0,1-1.23,1.2c-.44.33-.89.67-1.35,1a15.39,15.39,0,0,1-1.55.92,16.32,16.32,0,0,1-1.6.72.36.36,0,0,1-.25.13,10.18,10.18,0,0,0-1.29.31,4,4,0,0,1-1.23.19.63.63,0,0,0-.32.07.57.57,0,0,1-.25.06,3.42,3.42,0,0,1-1,0,2.46,2.46,0,0,1-.94-.41,1.66,1.66,0,0,1-.48-.41,3.37,3.37,0,0,1-.28-.54l-.19-.94a.42.42,0,0,1,.13-.32,3.77,3.77,0,0,1,.88-1.51c.46-.42.91-.81,1.35-1.16a10.84,10.84,0,0,1,1.42-1,4.05,4.05,0,0,0,.69-.44,2.09,2.09,0,0,1,.76-.38.49.49,0,0,1,.19-.06.19.19,0,0,0,.13-.07c.58-.33,1.18-.65,1.79-.94a19.31,19.31,0,0,1,1.8-.76.11.11,0,0,0,.12-.12s-.06,0-.06,0,0,.07-.06,0l-1.17-.41a10,10,0,0,0-1.16-.35l-1.2-.31a2.35,2.35,0,0,1-.88-.32,2,2,0,0,1-1.39-2,1.72,1.72,0,0,1,.57-1.7,4.14,4.14,0,0,1,.38-.35,4.5,4.5,0,0,1,.37-.28,7.77,7.77,0,0,1,1.48-.85l1.55-.66a14.74,14.74,0,0,1,2.58-.69,1,1,0,0,0,.28,0l.29,0a.87.87,0,0,1,1,.51,1.18,1.18,0,0,0,.12.31A1,1,0,0,1,405.46,153.46Zm-9.95,13.42a3.36,3.36,0,0,0,.63-.06l.63-.13a14.12,14.12,0,0,0,2.65-.88l.63-.38a3.68,3.68,0,0,1,.63-.31l.44-.32,1.57-1.07a9.74,9.74,0,0,0,1.77-1.7.48.48,0,0,0,.12-.35.8.8,0,0,1,.06-.34c.09-.09.1-.11,0-.07s-.06,0,0-.06a1.23,1.23,0,0,0-.19-.44c-.13-.21-.23-.29-.32-.25a13.2,13.2,0,0,0-1.51.69c-.46.25-1,.51-1.51.76a2.57,2.57,0,0,0-.6.34,2.29,2.29,0,0,1-.6.35l-.38.19-1.32.75a.71.71,0,0,1-.31.19,1,1,0,0,0-.32.19,9.63,9.63,0,0,1-.79.6q-.41.28-.78.6a4.55,4.55,0,0,0-1.26,1.45l.06.12A3.49,3.49,0,0,0,395.51,166.88Z"/><path class="ec9a85a3-1b4a-45d5-9335-4176a37f475d" d="M74.4,25V127H48.6a32.63,32.63,0,0,1-16.82-4.42,33.32,33.32,0,0,1-12.12-11.68,35.55,35.55,0,0,1-5.13-18A33.16,33.16,0,0,1,19,76.13,34.81,34.81,0,0,1,30.64,64a31.82,31.82,0,0,1,8.41-3.7A34.9,34.9,0,0,1,48.6,59H69V25ZM69,64.44H48.6a27.56,27.56,0,0,0-20.24,8.41A27.11,27.11,0,0,0,20,93a27.58,27.58,0,0,0,8.41,20.24A27.56,27.56,0,0,0,48.6,121.6H69Z"/><path class="ec9a85a3-1b4a-45d5-9335-4176a37f475d" d="M89.08,30.37V24.81h76.11v5.56Zm35.2,26.23h5.56V127h-5.56Z"/><path class="ec9a85a3-1b4a-45d5-9335-4176a37f475d" d="M215.79,83.54q-34.35,16-51.45,23.95c.66,1,1.33,2,2,3s1.52,2,2.28,2.85a28.94,28.94,0,0,0,9.27,6A27.08,27.08,0,0,0,189,121.6a28.86,28.86,0,0,0,20.09-8.27c1.81,1.62,3.14,2.85,4,3.71a33.57,33.57,0,0,1-10.83,7.27A33.16,33.16,0,0,1,189,127a33.49,33.49,0,0,1-13.4-2.7A32,32,0,0,1,164.91,117a26.9,26.9,0,0,1-3.14-3.43,30.48,30.48,0,0,1-2.42-3.84,26.15,26.15,0,0,1-1.28-2.28,22.28,22.28,0,0,1-1-2.71,35.65,35.65,0,0,1-1.57-5.7,31.3,31.3,0,0,1-.57-6.13,33,33,0,0,1,2.71-13.26,36.48,36.48,0,0,1,7.27-10.83,32.9,32.9,0,0,1,10.69-7.13,34.11,34.11,0,0,1,26.65,0,34.5,34.5,0,0,1,10.83,7.13q1.57,1.71,3,3.56c.85,1.24,1.71,2.52,2.56,3.85.38.76.76,1.57,1.14,2.42a18.18,18.18,0,0,1,1,2.43Q217.08,83,215.79,83.54Zm-2.13-5a35.91,35.91,0,0,0-2.14-3,31.3,31.3,0,0,0-2.43-2.71,26.54,26.54,0,0,0-9-6.13A27.68,27.68,0,0,0,189,64.44a27.08,27.08,0,0,0-11.12,2.28,27.72,27.72,0,0,0-9.27,6.13,31,31,0,0,0-6,9A27.73,27.73,0,0,0,160.35,93a29.22,29.22,0,0,0,.42,5,39.78,39.78,0,0,0,1.14,4.7Q196.41,86.53,213.66,78.55Z"/><path class="ec9a85a3-1b4a-45d5-9335-4176a37f475d" d="M235.46,127V59h5.42v68Z"/><path class="ec9a85a3-1b4a-45d5-9335-4176a37f475d" d="M255.42,127.16V25h5.41v102.2Z"/><path class="ec9a85a3-1b4a-45d5-9335-4176a37f475d" d="M276.51,125.87a4.13,4.13,0,0,1,0-5.7,4.39,4.39,0,0,1,3-1.14,4.21,4.21,0,0,1,2.85,1.14,3.81,3.81,0,0,1,0,5.7,4,4,0,0,1-2.85,1.29A4.11,4.11,0,0,1,276.51,125.87Z"/><path class="ec9a85a3-1b4a-45d5-9335-4176a37f475d" d="M349.06,63.44a34.81,34.81,0,0,1,12.12,11.69,32.32,32.32,0,0,1,3.71,8.41A34.8,34.8,0,0,1,366.17,93a32.76,32.76,0,0,1-4.42,16.82,33.69,33.69,0,0,1-11.55,12.11,38.36,38.36,0,0,1-8.55,3.85,34.41,34.41,0,0,1-9.41,1.28,32.62,32.62,0,0,1-16.81-4.42,33.16,33.16,0,0,1-12.12-11.68,35.29,35.29,0,0,1-5.13-18,33.16,33.16,0,0,1,4.42-16.82A34.78,34.78,0,0,1,314.28,64a32,32,0,0,1,8.41-3.7A35,35,0,0,1,332.24,59,33.26,33.26,0,0,1,349.06,63.44Zm3.42,49.75A27.84,27.84,0,0,0,360.75,93,28.58,28.58,0,1,0,312,113.19a28.56,28.56,0,0,0,40.48,0Z"/><path class="ec9a85a3-1b4a-45d5-9335-4176a37f475d" d="M384,76.13A34.78,34.78,0,0,1,395.67,64a32,32,0,0,1,8.41-3.7A35,35,0,0,1,413.63,59v5.42a27.58,27.58,0,0,0-20.24,8.41A27.11,27.11,0,0,0,385,93V127h-5.41V93A33.16,33.16,0,0,1,384,76.13Z"/><path class="ec9a85a3-1b4a-45d5-9335-4176a37f475d" d="M488.89,127a34,34,0,0,1-2.56,13.26,36.26,36.26,0,0,1-7.27,11,36.72,36.72,0,0,1-10.84,7.27A33,33,0,0,1,455,161.22H427.6v-5.56H455a27.77,27.77,0,0,0,11.12-2.28,26.49,26.49,0,0,0,9-6.13,28.45,28.45,0,0,0,6.27-9A29.77,29.77,0,0,0,483.48,127V111.33a35.79,35.79,0,0,1-12,11.55,34.14,34.14,0,0,1-33.35-.14A34.9,34.9,0,0,1,426,111.05a34.26,34.26,0,0,1-3.7-8.55A31.87,31.87,0,0,1,420.9,93a33.16,33.16,0,0,1,4.42-16.82A34.72,34.72,0,0,1,437,64a31.82,31.82,0,0,1,8.41-3.7A34.9,34.9,0,0,1,455,59a33.26,33.26,0,0,1,16.82,4.42A34.87,34.87,0,0,1,483.9,75.13a32,32,0,0,1,3.71,8.41A34.8,34.8,0,0,1,488.89,93Zm-13.68-13.82A27.84,27.84,0,0,0,483.48,93a28.58,28.58,0,1,0-48.75,20.24,28.56,28.56,0,0,0,40.48,0Z"/></svg>