<svg id="ab19e77f-6dc1-4949-a609-f9888bc57eb5" data-name="Capa 1" xmlns="http://www.w3.org/2000/svg" viewBox="0 0 218.88 218.88"><defs><style>.add6bb0e-fb7e-4a23-9373-abe105349e73{fill:none;stroke:#1d1d1b;stroke-miterlimit:10;}</style></defs><title>Logo_dTeilorg_SoloIcono_SinColor</title><polygon id="a6a2ea9b-0736-4ce8-a6ac-eb31edd69120" data-name="9" class="add6bb0e-fb7e-4a23-9373-abe105349e73" points="152.71 5.71 214.33 67.32 214.33 154.46 152.71 216.08 152.71 5.71"/><polygon id="bc21be32-da13-406a-b07a-74c69793d976" data-name="8" class="add6bb0e-fb7e-4a23-9373-abe105349e73" points="3.95 67.32 214.33 67.32 152.71 5.71 65.57 5.71 3.95 67.32"/><polygon id="e7edfc5b-a168-46ca-a996-30a9858af7d6" data-name="7" class="add6bb0e-fb7e-4a23-9373-abe105349e73" points="65.57 216.08 3.95 154.46 3.95 67.32 65.57 5.71 65.57 216.08"/><polygon id="a2a6e97d-0de9-4980-a8d2-383e51d7e554" data-name="6" class="add6bb0e-fb7e-4a23-9373-abe105349e73" points="214.33 154.46 152.71 216.08 65.57 216.08 3.95 154.46 214.33 154.46"/><polygon id="abf3829e-6981-4fb4-97f4-e3db7a73c4b1" data-name="4" class="add6bb0e-fb7e-4a23-9373-abe105349e73" points="214.33 67.32 214.33 154.46 152.71 216.08 65.57 216.08 214.33 67.32"/><polygon id="b18dc88f-6f3d-4890-a188-5bfaad36080f" data-name="3" class="add6bb0e-fb7e-4a23-9373-abe105349e73" points="152.71 216.08 65.57 216.08 3.95 154.46 3.95 67.32 152.71 216.08"/><polygon id="b8529fca-0463-41fd-a026-deb144e682e9" data-name="2" class="add6bb0e-fb7e-4a23-9373-abe105349e73" points="65.57 5.71 152.71 5.71 214.33 67.32 214.33 154.46 65.57 5.71"/><polygon id="be5dd68f-9d8b-41ef-ab0e-3e2a40bff511" data-name="1" class="add6bb0e-fb7e-4a23-9373-abe105349e73" points="3.95 154.46 152.71 5.71 65.57 5.71 3.95 67.32 3.95 154.46"/></svg>