<svg xmlns="http://www.w3.org/2000/svg" viewBox="0 0 264.56 166.05"><defs><style>.a7ecf90c-4832-421d-afc2-5bdacdd30bb5{fill:#f6b198;}.a239cb68-ee45-46fd-bd04-fcdbffa478ca,.ab82cb5d-d1fe-4d3c-9a84-34c17acc732f,.bd6d646c-83b7-4df0-81fb-249cf7254e3c{fill:none;stroke:#727070;stroke-miterlimit:10;}.bd6d646c-83b7-4df0-81fb-249cf7254e3c{stroke-width:2px;}.a2841c3b-8dd8-4414-819c-f4f45ce51927{fill:#727070;}.ab82cb5d-d1fe-4d3c-9a84-34c17acc732f{stroke-linecap:round;stroke-width:5px;}.a239cb68-ee45-46fd-bd04-fcdbffa478ca{stroke-width:4px;}</style></defs><title>Prod3_Tokenizacion</title><g id="f996d905-0ede-4468-a8e3-45eac4f7e043" data-name="Capa 1"><polyline class="a7ecf90c-4832-421d-afc2-5bdacdd30bb5" points="161.4 64.84 185.48 64.84 185.6 20.64 112.16 20.64 112.16 64.72 145.6 64.72"/><path class="bd6d646c-83b7-4df0-81fb-249cf7254e3c" d="M40.72,122.65V115s.48-10.08,9.12-10.56a79.16,79.16,0,0,1,12.48,0s7.2-1.92,7.2-8.64V69.36s0-8.16,8.64-7.68,123,0,123,0,6.48-.12,6.48,6.48v20.4s-.6,8.52,8.52,8.52h15.24s10.08-.36,10.08,7.8v6.72s-.48,10.08,6.24,10.08h7.7"/><polygon class="a2841c3b-8dd8-4414-819c-f4f45ce51927" points="43.71 121.78 40.72 126.96 37.73 121.78 43.71 121.78"/><polygon class="a2841c3b-8dd8-4414-819c-f4f45ce51927" points="254.58 124.67 259.76 121.68 254.58 118.69 254.58 124.67"/><path class="bd6d646c-83b7-4df0-81fb-249cf7254e3c" d="M255.46,34.28h-7.7c-6.72,0-6.24-10.08-6.24-10.08V17.48c0-8.16-10.08-7.8-10.08-7.8H216.2c-9.12,0-8.52,9.48-8.52,9.48v21.6c0,6.6-6.48,6.52-6.48,6.52s-100.4.48-109,0S84.52,55,84.52,55v3.4c0,6.72-7.2,8.64-7.2,8.64s-18.84-.48-27.48,0-9.12,10.56-9.12,10.56v12s.76,9.52-9.52,9.52H7.34"/><polygon class="a2841c3b-8dd8-4414-819c-f4f45ce51927" points="254.58 31.29 259.76 34.28 254.58 37.27 254.58 31.29"/><polygon class="a2841c3b-8dd8-4414-819c-f4f45ce51927" points="8.22 96.09 3.04 99.08 8.22 102.07 8.22 96.09"/><path class="bd6d646c-83b7-4df0-81fb-249cf7254e3c" d="M7.34,15H15c6.72,0,6.24,10.08,6.24,10.08V31.8c0,8.16,10.08,7.8,10.08,7.8H46.6c9.12,0,8.52,5.52,8.52,5.52v3.4c0,6.6,6.48,8.48,6.48,8.48h124c9.77,0,7.64-7.68,7.64-7.68s.23,3.31,0-3.4c-.31-9.08,7.2-8.64,7.2-8.64s4.28.1,12.48,0c8.65-.11,9.12-10.56,9.12-10.56v-12s-.76-9.52,9.52-9.52h23.86"/><polygon class="a2841c3b-8dd8-4414-819c-f4f45ce51927" points="8.22 17.99 3.04 15 8.22 12.01 8.22 17.99"/><polygon class="a2841c3b-8dd8-4414-819c-f4f45ce51927" points="254.58 8.19 259.76 5.2 254.58 2.21 254.58 8.19"/><path class="ab82cb5d-d1fe-4d3c-9a84-34c17acc732f" d="M174.84,112c0-10,12.75-11,12.75,0,0,7.2.16,24,0,31.2a6.55,6.55,0,0,1-6.88,6.88V160H141.17V150.2s-2.72,1.28-6.08-3S121.17,129.88,114,121.08s4.48-16.16,10.23-9,10.08,12.64,10.08,12.64v-47c0-10.19,14.08-9.44,14.08,0v29.12c0-9.92,13.27-11,13.27,1"/><path class="ab82cb5d-d1fe-4d3c-9a84-34c17acc732f" d="M161.92,107.8c0-7,12.65-11.44,12.65,3.68"/></g><g id="a2964de2-d06a-4f95-bba8-4e15e80a40f3" data-name="Capa 2"><polyline class="a239cb68-ee45-46fd-bd04-fcdbffa478ca" points="153.4 76.36 174.48 76.36 174.6 32.16 101.16 32.16 101.16 76.24 121.99 76.24"/><polygon class="a2841c3b-8dd8-4414-819c-f4f45ce51927" points="120.24 82.22 130.6 76.24 120.24 70.26 120.24 82.22"/></g></svg>