<svg xmlns="http://www.w3.org/2000/svg" viewBox="0 0 79.92 111.96"><defs><style>.bc55a9a9-8ccb-491f-bafd-d17503b3c019{fill:#fbf6bc;}.a0d3327d-6c28-4ffa-8d4e-16fdb4044da7,.b95b72ff-3b54-41cc-a4da-c04eeae74332,.e6804366-d9d5-4b82-919e-10efa24c8d19{fill:none;stroke:#727070;}.b95b72ff-3b54-41cc-a4da-c04eeae74332,.e6804366-d9d5-4b82-919e-10efa24c8d19{stroke-miterlimit:10;}.e6804366-d9d5-4b82-919e-10efa24c8d19{stroke-width:1.5px;}.b5c0b388-4509-4ac8-9404-02c961597c11{fill:#727070;}.a0d3327d-6c28-4ffa-8d4e-16fdb4044da7{stroke-miterlimit:1;stroke-width:2px;}</style></defs><title>Prod4_Inteligencia</title><g id="f58cf0b5-7a2a-4951-a7fa-132214bd72c8" data-name="Capa 4"><path class="bc55a9a9-8ccb-491f-bafd-d17503b3c019" d="M43.94,76.32l14.76.18V64.62C79.85,60.3,89.84,3.24,44.15,3.24Z"/><path class="b95b72ff-3b54-41cc-a4da-c04eeae74332" d="M30.71,102.15H43.13C42.59,110,32.78,110.16,30.71,102.15Z"/><path class="b95b72ff-3b54-41cc-a4da-c04eeae74332" d="M29.27,97h16.2c2.52-.09,3.6,5.31,0,5.13l-16.2-.09C25.49,102.06,25.4,97,29.27,97Z"/><path class="b95b72ff-3b54-41cc-a4da-c04eeae74332" d="M28.27,92H46.54c2.84-.09,4.06,5.31,0,5.13L28.27,97C24,97,23.91,92,28.27,92Z"/><path class="b95b72ff-3b54-41cc-a4da-c04eeae74332" d="M27.35,87H47.52c3.14-.09,4.49,5.31,0,5.13l-20.17-.09C22.65,92.07,22.53,87,27.35,87Z"/><path class="e6804366-d9d5-4b82-919e-10efa24c8d19" d="M37.46,82.8,52.22,83V71.1C73.37,66.78,83.36,9.72,37.67,9.72Z"/><path class="e6804366-d9d5-4b82-919e-10efa24c8d19" d="M22.88,73.44V82.8L34.94,83,34.76,16.2C35.48,11,17.48,4,18.38,20.52c.38,6.91,5,2.92,1.62.72-7.38-4.86-18.81,1.52-12.06,11,3.6,5,3.28-.25,1.62-.18C5.24,32.22-1.06,43.38,9.92,47c5.84,1.91,7.11-.7,4.14-1.44s-2.67,1.29-3.42,2.16c-12.24,14.22,13,26.46,17.1,8.82"/><path class="b5c0b388-4509-4ac8-9404-02c961597c11" d="M29.94,57a2.26,2.26,0,1,0-2.72,1.68A2.27,2.27,0,0,0,29.94,57Z"/><path class="b95b72ff-3b54-41cc-a4da-c04eeae74332" d="M26.48,41.22c-3.24,1.26-6.66,4.68-5.94,11.7"/><path class="b5c0b388-4509-4ac8-9404-02c961597c11" d="M25.93,39.82a1.5,1.5,0,1,1-.85,2A1.51,1.51,0,0,1,25.93,39.82Z"/><path class="b5c0b388-4509-4ac8-9404-02c961597c11" d="M19,53.07a1.51,1.51,0,1,0,1.35-1.65A1.52,1.52,0,0,0,19,53.07Z"/><path class="b95b72ff-3b54-41cc-a4da-c04eeae74332" d="M13.34,35.46s12.6-16.38,21.78,3.42"/><path class="b5c0b388-4509-4ac8-9404-02c961597c11" d="M14.53,36.38a1.5,1.5,0,1,1-.27-2.11A1.5,1.5,0,0,1,14.53,36.38Z"/><path class="b95b72ff-3b54-41cc-a4da-c04eeae74332" d="M25.22,15.12S32.6,19.62,29.54,27"/><path class="b5c0b388-4509-4ac8-9404-02c961597c11" d="M24.44,16.4a1.5,1.5,0,1,1,2.06-.5A1.49,1.49,0,0,1,24.44,16.4Z"/><path class="b5c0b388-4509-4ac8-9404-02c961597c11" d="M28.15,26.42a1.51,1.51,0,1,0,2-.81A1.51,1.51,0,0,0,28.15,26.42Z"/><path class="a0d3327d-6c28-4ffa-8d4e-16fdb4044da7" d="M37.46,42.66H47.54s10.62-.9,9.9-5.58a5.73,5.73,0,0,0-4.68-5c-3.4-.64-6.3,3.78-7,9.9S43.52,54.17,43.22,69.3C43.05,78,42.68,83,42.68,83"/><path class="e6804366-d9d5-4b82-919e-10efa24c8d19" d="M17.84,65.34c-1.62,7.92,12.39,13.11,17.07,2.13"/></g></svg>