<svg xmlns="http://www.w3.org/2000/svg" viewBox="0 0 270.72 218.64"><defs><style>.a826597a-13e1-4086-a40d-3e1ef5771d66{opacity:0.74;}.ba498e36-4e80-4cbe-9b61-9c13a1c1b618{fill:#bfc7c8;}.b50a1b2a-c90a-4c05-9b8b-80bbd7f63deb{fill:#faf5bd;}.f472ba83-7354-4f6a-9c3f-4d6006c8a274{fill:none;stroke:#7e7d7d;stroke-miterlimit:10;stroke-width:2px;}</style></defs><title>dTeilorg_Web_GestionDocumental_Compatible</title><g id="f1de7bdd-a10d-4a25-afff-69e41776aae5" data-name="Capa 5"><path class="ba498e36-4e80-4cbe-9b61-9c13a1c1b618" d="M231.64,119.35c-1-2.63-2.13-11.79,4.69-10.11,12.33,3.05,14.41-9.6,11.8-15.2-3.46-7.45-16.32-10-18.78-1.29s-9.63-.22-10.55-1.92l-.26-.52c-2.39-3.92-4.1-17.15-4.1-17.15S203,74.93,198.36,78.08s-5.42,5.19-4.68,6.24,3.09,1.08,4.92,2.16c2.51,1.48,3.38,3.79,3.72,6.3.79,5.83-3,13-8,15.18-7.07,3.06-18.3-1.75-18-9.12.13-3.22,1.06-5.6.48-6.9-1.56-3.5-6.5-1-10.44.42S156,99.27,156,99.27s7.28,11.14,8.79,15.27c1,2.63,2.54,10.22-4.69,10.11-4.6-.08-8.28.57-10,2.27-3,3-1.4,8.3.27,11.88,2.42,5.2,6.59,6.13,10.17,3.42,1.54-1.17,2.61-3.82,4.41-5.85,7.74-8.73,12.24,2.61,13.38,5.67.73,2,3.6,15.48,3.6,15.48s15.33-1.49,16-1.82,10.31-3.62,2.81-11.57c-4.47-4.73-6.84-5.73-6.54-10.25.15-2.21,1-6.71,8-9.88,6.18-2.77,16-.32,15,10.08-.27,2.94-5.8,13.14,8.37,8.41,4.08-1.36,14.47-9.25,14.47-9.25-5.26-5.68-8.44-14.06-8.44-14.06"/><path class="ba498e36-4e80-4cbe-9b61-9c13a1c1b618" d="M134.18,175.9c2.62-1,11.79-2.14,10.1,4.69-3.05,12.33,9.61,14.41,15.21,11.8,7.44-3.46,9.94-16.32,1.29-18.78s.22-9.63,1.92-10.55l.51-.27c3.92-2.38,16.76-4.92,16.76-4.92s-2-11.81-4.25-16.89c-4.87-10.8-8.63-4.32-10.26-1.87C151.57,160,138,122.68,154.25,123.51c12.81.65,9.74-6.12,8.5-9.24-1.52-3.82-8.49-14.06-8.49-14.06S143.11,107.49,139,109c-2.62,1-11.79,2.13-10.1-4.7,3.05-12.33-9.61-14.41-15.21-11.8-7.44,3.47-9.94,16.32-1.29,18.78s1.55,9.74-1.69,10.77c-2,.63-17.5,5.06-17.5,5.06s4.3,14.4,4.64,15,3.61,10.31,11.56,2.81c4.74-4.48,5.74-6.84,10.26-6.54,2.21.15,6.7,1,9.87,8,2.78,6.18.33,16-10.08,15-2.93-.27-13.13-5.8-8.4,8.37,1.36,4.08,9.25,14.47,9.25,14.47,5.68-5.26,14.06-8.44,14.06-8.44"/><path class="ba498e36-4e80-4cbe-9b61-9c13a1c1b618" d="M168.56,89.38c2.62-1,11.79-2.14,10.1,4.69-3,12.33,9.61,14.41,15.21,11.8,7.44-3.46,9.94-16.32,1.29-18.78s.22-9.63,1.92-10.55l.51-.27c3.92-2.38,16.76-4.92,16.76-4.92s-2-11.81-4.25-16.89c-4.87-10.8-8.63-4.32-10.26-1.87C186,73.5,172.39,36.16,188.63,37c12.81.65,9.74-6.12,8.5-9.24-1.52-3.82-8.49-14.06-8.49-14.06S177.49,21,173.36,22.48c-2.62,1-11.79,2.13-10.1-4.7C166.31,5.45,153.65,3.37,148.05,6c-7.44,3.47-9.94,16.32-1.29,18.78s1.55,9.74-1.69,10.77c-2,.63-17.5,5.06-17.5,5.06s4.3,14.4,4.64,15,3.61,10.31,11.56,2.81C148.51,54,150,52.11,154,51.9c2.21-.12,6.7,1,9.87,8,2.78,6.18-1,16.14-10.08,15-2.92-.36-13.13-5.8-8.4,8.37,1.36,4.08,9.25,14.47,9.25,14.47,5.68-5.26,14.06-8.44,14.06-8.44"/><path class="b50a1b2a-c90a-4c05-9b8b-80bbd7f63deb" d="M95.36,63.6c-1-2.62-3.64-13.94,3.21-12.34,13.75,3.19,18.7-2.94,15.48-11.16-3.62-9.23-11.45-9.59-19.19,0-2.89,3.6-9.5,1.27-10.45-.4-.52-.92-1.75-2.64-2.17-3.6-2-4.52-5.16-15.84-5.16-15.84s-11.55-.52-16.63,1.77c-10.81,4.86-4.32,8.62-1.87,10.25C79.48,46.22,42.14,59.78,43,43.53c.66-12.81-6.11-9.74-9.24-8.49-3.82,1.51-14,8.48-14,8.48S27,54.67,28.46,58.8c1,2.62,2.13,11.79-4.69,10.1C11.44,65.85,9.36,78.51,12,84.11c3.46,7.44,16.32,9.94,18.78,1.29s9.74-1.54,10.77,1.69c.63,2,2.74,17.15,2.74,17.15s16.44-4.59,17.1-4.86,9.29-4.95,1.53-7.16c-5-1.41-6.27-7.16-6-11.68A14.12,14.12,0,0,1,66,69.24c3.85-1.57,16.5.12,16.73,9.74.06,2.94-4.85,11.2,7,7.2,4.08-1.39,14.71-8.31,14.71-8.31a136.34,136.34,0,0,1-9.07-14.44"/><path class="f472ba83-7354-4f6a-9c3f-4d6006c8a274" d="M94.28,84.12c-1-2.62-3.64-13.94,3.2-12.34C111.24,75,116.19,68.84,113,60.62c-3.62-9.23-11.45-9.59-19.19,0-2.89,3.6-9.5,1.27-10.46-.4-.51-.92-1.74-2.64-2.16-3.6C79.2,52.14,76,40.82,76,40.82s-11.55-.52-16.63,1.77c-10.81,4.86-4.32,8.62-1.87,10.25C78.41,66.74,41.06,80.3,41.89,64.05c.66-12.81-6.11-9.74-9.24-8.49-3.82,1.51-14,8.48-14,8.48s7.27,11.15,8.78,15.28c1,2.62,2.13,11.79-4.69,10.1-12.33-3-14.41,9.61-11.8,15.21,3.46,7.44,16.32,9.94,18.78,1.29s9.74-1.54,10.77,1.69c.63,2,2.74,17.15,2.74,17.15s16.44-4.59,17.1-4.86,9.29-5,1.54-7.16c-5-1.41-6.28-7.16-6-11.68a14.12,14.12,0,0,1,9.08-11.3c3.85-1.57,16.5.12,16.72,9.74.07,2.94-4.84,11.2,7,7.2,4.08-1.39,14.7-8.31,14.7-8.31A137.29,137.29,0,0,1,94.24,84"/><path class="f472ba83-7354-4f6a-9c3f-4d6006c8a274" d="M227.32,130.87c-1-2.63-2.13-11.79,4.69-10.11,12.33,3,14.41-9.6,11.8-15.2-3.46-7.45-16.32-10-18.78-1.29s-9.63-.22-10.55-1.92l-.26-.52c-2.39-3.92-4.1-17.15-4.1-17.15S198.64,86.45,194,89.6s-5.42,5.19-4.68,6.24,3.09,1.08,4.92,2.16c2.51,1.48,3.38,3.79,3.72,6.3.79,5.83-3,13-8,15.18-7.07,3.06-18.3-1.75-18-9.12.13-3.22,1.06-5.6.48-6.9-1.56-3.5-6.5-1-10.44.42s-10.37,6.91-10.37,6.91,7.28,11.14,8.79,15.27c1,2.63,2.54,10.22-4.69,10.11-4.6-.08-8.28.57-10,2.27-3,3-1.4,8.3.27,11.88,2.42,5.2,6.59,6.13,10.17,3.42,1.54-1.17,2.61-3.82,4.41-5.85,7.74-8.73,12.24,2.61,13.38,5.67.73,1.95,3.6,15.48,3.6,15.48s15.33-1.49,16-1.82,10.31-3.62,2.81-11.57c-4.47-4.73-6.84-5.73-6.54-10.25.15-2.21.95-6.71,8-9.88,6.18-2.77,16-.32,15,10.08-.27,2.94-5.8,13.14,8.37,8.41,4.08-1.36,14.47-9.25,14.47-9.25-5.26-5.68-8.44-14.06-8.44-14.06"/><path class="f472ba83-7354-4f6a-9c3f-4d6006c8a274" d="M129.86,187.42c2.62-1,11.79-2.14,10.1,4.69-3.05,12.33,9.61,14.41,15.21,11.8,7.44-3.46,9.94-16.32,1.29-18.78s.22-9.63,1.92-10.55l.51-.27c3.92-2.38,16.76-4.92,16.76-4.92s-2-11.81-4.25-16.89c-4.87-10.8-8.63-4.32-10.26-1.87-13.89,20.91-27.45-16.43-11.21-15.6,12.81.65,9.74-6.12,8.5-9.24-1.52-3.82-8.49-14.06-8.49-14.06s-11.15,7.28-15.28,8.79c-2.62,1-11.79,2.13-10.1-4.7,3-12.33-9.61-14.41-15.21-11.8-7.44,3.47-9.94,16.32-1.29,18.78s1.55,9.74-1.69,10.77c-2,.63-17.5,5.06-17.5,5.06s4.3,14.4,4.64,15,3.61,10.31,11.56,2.81c4.74-4.48,5.74-6.84,10.26-6.54,2.21.15,6.7.95,9.87,8,2.78,6.18.33,16-10.08,15-2.93-.27-13.13-5.8-8.4,8.37,1.36,4.08,9.25,14.47,9.25,14.47,5.68-5.26,14.06-8.44,14.06-8.44"/><path class="f472ba83-7354-4f6a-9c3f-4d6006c8a274" d="M164.24,100.9c2.62-1,11.79-2.14,10.1,4.69-3.05,12.33,9.61,14.41,15.21,11.8,7.44-3.46,9.94-16.32,1.29-18.78s.22-9.63,1.92-10.55l.51-.27c3.92-2.38,16.76-4.92,16.76-4.92s-2-11.81-4.25-16.89c-4.87-10.8-8.63-4.32-10.26-1.87C181.63,85,168.07,47.68,184.31,48.51c12.81.65,9.74-6.12,8.5-9.24-1.52-3.82-8.49-14.06-8.49-14.06S173.17,32.49,169,34c-2.62,1-11.79,2.13-10.1-4.7C162,17,149.33,14.89,143.73,17.5c-7.44,3.47-9.94,16.32-1.29,18.78S144,46,140.75,47.05c-2,.63-17.5,5.06-17.5,5.06s4.3,14.4,4.64,15S131.5,77.46,139.45,70c4.74-4.48,6.26-6.33,10.26-6.54,2.21-.12,6.7,1,9.87,8,2.78,6.18-1,16.14-10.08,15-2.92-.36-13.13-5.8-8.4,8.37,1.36,4.08,9.25,14.47,9.25,14.47,5.68-5.26,14.06-8.44,14.06-8.44"/></g></svg>